<svg width="84" height="57" viewBox="0 0 84 57" fill="none" xmlns="http://www.w3.org/2000/svg">
<path d="M9.87914 6.13375L12.7478 12.2825H6.98493L9.87914 6.13375ZM5.9586 14.4666H13.728L15.8765 18.9934L17.7857 17.9138L10.2663 1.62109H9.50785L1.82031 18.0652L3.95259 18.784L5.9586 14.4666Z" fill="#ffffff"/>
<path d="M27.3974 19.2223C28.8088 19.0782 30.1681 18.6116 31.3703 17.8586C31.9632 17.4793 32.507 17.0282 32.9892 16.5155L33.0772 16.4214L31.6382 14.7528C30.5369 16.0642 28.9689 16.8963 27.2655 17.0733C26.3722 17.2011 25.4622 17.1408 24.5936 16.8961C23.7251 16.6514 22.9174 16.2277 22.2223 15.6524C21.5232 15.0712 20.9476 14.3558 20.5294 13.5486C20.1113 12.7414 19.8589 11.8586 19.7873 10.9523C19.639 9.72757 19.8032 8.48521 20.2646 7.34105C20.7249 6.241 21.4702 5.2836 22.4237 4.56755C23.3773 3.8515 24.5045 3.4027 25.6892 3.26743C26.7514 3.13521 27.8297 3.25765 28.8351 3.62464C29.4081 3.83918 29.947 4.13553 30.4351 4.50447L31.5995 2.61283L31.4983 2.54069C30.9297 2.13425 30.3115 1.80221 29.6586 1.55263C28.311 1.05108 26.8616 0.885004 25.4354 1.06873C24.2583 1.17504 23.1158 1.52379 22.08 2.09304C21.0441 2.66229 20.1373 3.43973 19.4165 4.37646C18.6831 5.31246 18.1432 6.38496 17.8282 7.53156C17.5132 8.67816 17.4294 9.87596 17.5816 11.0553C17.7646 13.2883 18.7345 15.3839 20.3183 16.9686C22.1787 18.7868 24.5609 19.5448 27.401 19.2205" fill="#ffffff"/>
<path d="M41.7428 3.82815H47.5778V1.62109H33.7051V3.82815H39.5401V18.3718L41.7428 17.8619V3.82815Z" fill="#ffffff"/>
<path d="M52.4119 1.62109H50.2422V15.8937L52.4119 15.3909V1.62109Z" fill="#ffffff"/>
<path d="M62.5395 19.0418L69.8759 1.62109H67.5132L62.1933 14.2278L56.9587 1.62109H54.5977L61.8303 19.0418H62.5395Z" fill="#ffffff"/>
<path d="M28.1504 45.3348H81.8417V24.8633C76.8804 24.9126 41.0615 25.9455 28.1504 45.3348Z" fill="#ffffff"/>
<path d="M67.8295 18.0543L62.356 21.4535L54.6716 16.0078L25.4611 22.7728L18.5747 18.7401L11.9078 22.5938L1.75977 19.0318V45.3357H1.78044C21.7258 18.8967 75.671 23.819 81.8403 24.4758V21.941L67.8295 18.0543Z" fill="#ffffff"/>
<path d="M71.9473 1.62109V18.3001H81.7737V16.0935H74.1169V10.7647H81.7737V8.55681H74.1169V3.82859H81.841V1.62109H71.9473Z" fill="#ffffff"/>
<path d="M6.11177 50.5142L7.21156 53.2857H5.01198L6.11177 50.5142ZM5.2966 48.2539L1.75 56.8648H3.60601L4.36266 54.9472H7.86131L8.61797 56.8648H10.5219L6.97576 48.2539H5.2966Z" fill="#ffffff"/>
<path d="M16.7951 52.6157C16.8171 52.9516 16.7682 53.2883 16.6515 53.604C16.5347 53.9197 16.3528 54.2073 16.1175 54.448C15.8822 54.6887 15.5989 54.8771 15.286 55.0011C14.973 55.125 14.6375 55.1816 14.3012 55.1672H12.8935V50.014H14.3012C14.6389 50.0025 14.9753 50.062 15.2887 50.1885C15.602 50.3151 15.8854 50.5059 16.1204 50.7488C16.3554 50.9916 16.5369 51.2811 16.6531 51.5984C16.7693 51.9157 16.8177 52.2539 16.7951 52.5911V52.6157ZM14.3012 48.3164H11.0762V56.8657H14.3034C16.9037 56.8657 18.7026 54.9974 18.7026 52.5911V52.5664C18.7026 50.161 16.9055 48.3164 14.3034 48.3164" fill="#ffffff"/>
<path d="M24.7619 48.3164L22.5988 54.338L20.4349 48.3164H18.4258L21.7713 56.9269H23.3788L26.7244 48.3164H24.7619Z" fill="#ffffff"/>
<path d="M27.6484 48.3164V56.8657H33.9494V55.1927H29.4574V53.397H33.3581V51.7236H29.4574V49.9898H33.8904V48.3164H27.6484Z" fill="#ffffff"/>
<path d="M41.1245 48.3164V53.5804L37.2466 48.3164H35.5684V56.8657H37.365V51.431L41.3722 56.8657H42.9211V48.3164H41.1245Z" fill="#ffffff"/>
<path d="M43.9004 48.3164V50.0514H46.4185V56.8657H48.2384V50.0514H50.7565V48.3164H43.9004Z" fill="#ffffff"/>
<path d="M57.1559 53.2114C57.1559 54.5668 56.4824 55.2632 55.3712 55.2632C54.2599 55.2632 53.586 54.543 53.586 53.1516V48.3125H51.7656V53.1987C51.7656 55.7141 53.125 56.9969 55.3479 56.9969C57.5708 56.9969 58.9767 55.7269 58.9767 53.1371V48.3134H57.1559V53.2114Z" fill="#ffffff"/>
<path d="M65.1689 51.2578C65.1689 51.9784 64.6608 52.4676 63.7739 52.4676H61.9302V50.0124H63.7391C64.6256 50.0124 65.1693 50.4273 65.1693 51.2341L65.1689 51.2578ZM67.0134 51.1606V51.136C67.0433 50.4167 66.7885 49.7146 66.3043 49.1819C65.9825 48.8808 65.6027 48.6485 65.188 48.4994C64.7733 48.3503 64.3325 48.2875 63.8927 48.3148H60.1094V56.8641H61.9302V54.1283H63.3608L65.1337 56.8641H67.262L65.2384 53.8111C65.7816 53.6216 66.2483 53.2605 66.5683 52.7824C66.8883 52.3043 67.044 51.735 67.0121 51.1606" fill="#ffffff"/>
<path d="M68.2988 48.3164V56.8657H74.5997V55.1927H70.1073V53.397H74.0081V51.7236H70.1073V49.9898H74.5408V48.3164H68.2988Z" fill="#ffffff"/>
<path d="M79.2155 51.7456C77.7853 51.3673 77.4308 51.1838 77.4308 50.622V50.5974C77.4308 50.1826 77.7968 49.8526 78.4945 49.8526C79.2818 49.9038 80.0339 50.1983 80.6465 50.6955L81.5919 49.2785C80.7302 48.5606 79.6397 48.1751 78.5182 48.1919C76.8281 48.1919 75.6223 49.2174 75.6223 50.769V50.7932C75.6223 52.4908 76.6974 52.9672 78.3647 53.4067C79.7478 53.7732 80.0311 54.0173 80.0311 54.4942V54.5179C80.0311 55.019 79.582 55.3247 78.8376 55.3247C77.9138 55.2968 77.0333 54.9266 76.367 54.2861L75.291 55.6173C76.2474 56.4989 77.5012 56.9873 78.802 56.985C80.5867 56.985 81.84 56.0326 81.84 54.3354V54.3107C81.84 52.8203 80.8942 52.1991 79.2155 51.7456Z" fill="#ffffff"/>
</svg>
