<svg width="385" height="51" viewBox="0 0 385 51" fill="none" xmlns="http://www.w3.org/2000/svg"><path d="M172.873 8.65h-13.26V1.948h33.601V8.65h-13.26V49.83h-7.081V8.65zM199.829 1.948h14.892c10.171 0 16.932 6.877 16.932 15.62 0 6.353-3.556 12.385-10.375 14.484l11.424 17.777h-8.189L210.058 27.01h3.876c7.14 0 10.55-5.042 10.55-9.442 0-5.391-3.468-8.976-10.491-8.976h-7.024V49.83h-7.14V1.948zM254.267 1.948h7.344l17.573 47.88h-7.402l-3.73-10.228h-20.196l-3.672 10.229h-7.49l17.573-47.881zm-3.934 30.832h15.212l-7.606-20.982-7.606 20.982zM274.58 1.948h7.402l12.91 37.302 12.91-37.302h7.402l-16.728 47.88h-7.227L274.58 1.949zM321.149 1.948h28.734v6.76h-21.565v13.698h21.565v6.76h-21.565V43.01h21.565v6.82h-28.734V1.948zM358.51 1.948h7.139v41.061H385v6.82h-26.49V1.948zM112.49 4.687l42.606 18.768v4.983L112.49 47.206V36.86l22.935-8.8 5.508-2.1-5.508-2.097-22.935-8.83V4.687zm-2.244-3.468v15.358l24.392 9.355-24.392 9.354v15.358l47.123-20.749v-7.927L110.246 1.22z" fill="#0091D2"></path><path d="M75.916.782c-13.784 0-24.975 11.19-24.975 24.975 0 13.784 11.19 24.975 24.975 24.975 13.784 0 24.975-11.19 24.975-24.975 0-13.784-11.162-24.975-24.975-24.975zm-.03 35.874c-6.032 0-10.898-4.896-10.898-10.9 0-6.032 4.895-10.898 10.899-10.898 6.003 0 10.899 4.896 10.899 10.899.03 6.032-4.867 10.9-10.9 10.9zM29.113 1.948H21.07L0 49.828h15.591l9.5-24.77 9.501 24.77h15.62L29.113 1.949z" fill="#fff"></path></svg>
