<svg width="112" height="112" viewBox="0 0 112 112" fill="none" xmlns="http://www.w3.org/2000/svg">
<g clip-path="url(#clip0_6779_26137)">
<path d="M2.87648 77.535C2.78516 77.3085 2.78516 77.0821 2.69384 76.8556L2.32857 75.7234C2.28292 75.6328 2.23726 75.5423 2.1916 75.4517C2.14594 75.3158 2.14594 75.1799 2.10028 75.0441C2.05462 74.9082 2.10028 74.8176 2.23726 74.7723L2.28292 74.727C2.51121 74.5459 2.69384 74.3647 2.96779 74.2742C3.15043 74.1836 3.2874 74.0477 3.42438 74.0024C3.60701 73.9118 3.60701 73.9118 3.56135 73.7307C3.51569 73.5042 3.47003 73.3231 3.37872 73.1419C3.19608 72.5532 3.01345 72.0097 2.78516 71.4209L2.7395 71.3304C2.69384 71.1492 2.69384 71.1492 2.51121 71.1492C2.14594 71.1492 1.73502 71.2398 1.36975 71.2851C1.00448 71.3304 0.821848 71.2398 0.730532 70.9228L0.684873 70.7869C0.593556 70.4699 0.50224 70.1528 0.410923 69.8358C0.319606 69.5188 0.182631 69.2471 0.0913143 68.93C-2.47359e-06 68.7036 -0.0456608 68.3413 0.273948 68.2507C0.456581 68.2054 1.05014 68.2054 1.27843 68.2054C1.82633 68.2054 2.37423 68.0695 2.92213 68.0695C3.19608 68.0695 3.47003 68.1148 3.74398 68.0242C3.78964 68.0242 3.8353 68.0242 3.92662 68.0242C4.15491 68.0695 4.3832 68.0242 4.61149 68.0242C5.93559 67.9337 7.21402 67.9337 8.53811 67.9337C8.67509 67.9337 8.76641 67.9337 8.90338 67.8884C9.58826 67.7978 10.3188 67.7978 11.0493 67.7978C11.8712 67.7978 12.7387 67.7525 13.5605 67.7525C13.6975 67.7525 13.8801 67.7978 14.0171 67.8431C14.3367 67.979 14.428 68.4319 14.565 68.7489H14.6107C14.7477 69.3376 15.0216 69.8811 14.3824 70.2887C13.4236 70.968 12.5104 71.6927 11.5059 72.372C11.4146 72.4626 11.2776 72.4626 11.1863 72.5079C11.0037 72.5985 10.821 72.7796 10.6841 72.9155C10.4558 73.0966 10.1818 73.2778 9.90787 73.4589C9.67957 73.6401 9.45128 73.776 9.22299 73.9118C8.90338 74.093 8.58377 74.2742 8.30982 74.5006L7.16836 75.3158C6.52915 75.7687 5.88993 76.2669 5.20505 76.7198C4.70281 77.1274 4.24623 77.535 3.74398 77.8973C3.69833 77.9426 3.65267 77.9879 3.56135 77.9879C3.19608 77.9879 2.92213 77.7614 2.87648 77.535ZM5.79861 72.5985C6.11822 72.4173 6.30085 72.1003 6.62046 71.9191C6.8031 71.7833 7.80758 71.0133 7.8989 70.9228C7.03139 70.9228 6.16388 70.9228 5.29637 70.968C5.34203 71.1945 5.43334 71.4209 5.479 71.6021L5.79861 72.5985Z" fill="#fff"/>
<path d="M16.3457 87.7703C15.3869 88.1779 14.839 88.3138 13.8345 88.4949C13.3779 88.5855 12.9213 88.4496 12.4191 88.3591C12.1908 88.3138 11.9169 88.2685 11.6429 88.2232C11.2776 88.1326 10.8667 88.042 10.5471 87.8609L10.2732 87.7703C9.86224 87.5891 9.40565 87.3627 9.04039 87.091C8.17288 86.4569 7.488 85.6417 6.89444 84.7359C6.75747 84.5548 6.62049 84.3736 6.48352 84.1925C6.34654 83.966 6.20957 83.7396 6.07259 83.5131L5.93562 83.332C5.66167 82.8338 6.11825 82.4715 6.48352 82.1997H6.52918C7.30537 81.611 8.12722 81.0222 8.99473 80.4787C9.26868 80.2976 9.58829 80.207 9.86224 80.0259C9.90789 79.9806 9.90789 79.9806 9.95355 79.9353C10.0449 79.7994 10.1818 79.7541 10.2732 79.6635C10.7297 79.3918 11.1407 79.0295 11.5973 78.7578C11.8255 78.6219 12.0538 78.486 12.3278 78.3049C12.5561 78.169 12.7387 77.9426 12.967 77.8067L13.1953 77.6708C13.3779 77.535 13.5149 77.3538 13.7432 77.2179C13.9715 77.0821 14.1998 76.9462 14.4281 76.8103C14.6107 76.6745 14.7933 76.5386 14.976 76.4027C15.2043 76.2669 15.3869 76.3121 15.5695 76.2216C15.8891 76.0404 16.2087 75.9045 16.574 75.814C17.2589 75.6781 17.7155 76.448 18.0351 76.9462C18.1264 77.0821 18.1721 77.2179 18.2634 77.3538C18.309 77.4444 18.4004 77.4897 18.446 77.5802C18.6743 77.9426 18.8569 78.3954 19.0852 78.7578C19.1309 79.2107 19.4505 79.7088 19.5418 80.1617C19.6788 80.7052 19.7244 81.294 19.7244 81.8374C19.7244 82.4262 19.7244 83.0149 19.6788 83.6037C19.6331 84.3283 19.1765 84.9171 18.8569 85.5511C18.583 86.1399 17.4872 87.1363 16.8936 87.5439C16.6653 87.5891 16.4827 87.6797 16.3457 87.7703ZM15.6608 84.4189C16.2087 84.0113 16.5284 83.5131 16.6197 82.8791L16.6653 82.5621C16.848 81.7468 16.6653 81.1128 16.3914 80.2976C16.3001 80.1164 16.2087 79.9353 16.1174 79.7994C15.8891 79.89 15.6608 79.9806 15.4326 80.1164C14.7477 80.524 14.0628 80.9316 13.4236 81.3845C13.3323 81.4298 13.1953 81.5204 13.104 81.5657C12.6474 81.8374 12.2365 82.1545 11.8255 82.4715C11.5973 82.6526 11.3233 82.7885 11.0494 82.9697C10.8667 83.1055 10.7297 83.2867 10.5015 83.3773L10.2275 83.5584C10.1362 83.6037 9.95355 83.6943 10.0449 83.8754C10.5471 84.6453 11.0494 84.7812 11.8712 85.2341C11.9625 85.2794 12.2821 85.3247 12.3278 85.3247C13.104 85.4153 13.8345 85.4606 14.565 85.0982C14.7477 85.0077 14.8847 85.0077 15.0673 84.8718C15.2499 84.7359 15.4326 84.5548 15.6608 84.4189Z" fill="#fff"/>
<path d="M30.6367 92.2992C29.9975 92.6615 29.3127 93.0238 28.7191 93.522C28.4451 93.7032 28.1712 93.8843 27.8972 94.0202C27.7146 94.1108 27.532 94.2466 27.395 94.3825C27.0754 94.6995 26.3449 95.1524 25.9339 95.4242L25.8426 95.4695C25.3404 95.6506 24.9294 95.9676 24.4729 96.2394C24.1989 96.4205 23.9706 96.647 23.6967 96.8281C23.514 96.964 23.3314 97.0546 23.1488 97.0999C22.6922 97.2357 22.1899 97.7792 21.779 98.0509C21.642 98.1415 21.5051 98.1868 21.4138 98.2321C20.9115 98.5038 20.5006 98.7756 19.9983 99.002C19.4504 99.2285 18.9482 98.8661 18.5373 98.5491C18.309 98.368 18.0807 98.0962 17.8981 97.8698C17.6698 97.6433 17.6241 97.3716 17.7154 97.0999C17.8981 96.5564 18.0807 96.0582 18.2177 95.4695C18.309 95.1977 18.4003 94.926 18.5829 94.6995C18.8569 94.3372 18.8569 93.839 19.0395 93.4314C19.2678 92.9333 19.4961 92.3898 19.6787 91.8463C19.7244 91.6199 19.8614 91.4387 19.9527 91.2123C20.044 90.9405 20.1353 90.6688 20.2723 90.4424C20.4093 90.1706 20.4093 89.8536 20.5006 89.5366C20.5919 89.3101 20.7289 89.0837 20.8202 88.8572C20.9572 88.5402 21.1398 88.1779 21.2311 87.8609C21.3224 87.5439 21.5051 87.2721 21.642 86.9551C21.779 86.5475 22.2356 85.053 22.4639 84.7812C22.6009 84.6001 22.9205 84.4642 23.1488 84.6001C23.5597 84.8265 23.9706 85.0983 24.4272 85.37C24.6555 85.5059 24.8381 85.5964 25.0208 85.7776C25.2034 85.9587 25.4773 86.1852 25.3404 86.5022C25.2491 86.6834 25.2491 86.8645 25.2034 87.0457C25.1577 87.2721 24.6098 88.6308 24.5185 88.7667C24.3359 89.0384 24.2446 89.3101 24.1533 89.6272C24.0163 89.9895 23.8793 90.3518 23.651 90.7141C23.4227 91.1217 23.2857 91.5746 23.1031 92.0275L22.5096 93.3409C22.4639 93.4314 22.3726 93.6126 22.4639 93.7032C22.6009 93.7938 22.7835 93.6579 22.8748 93.5673C23.0575 93.3409 23.2857 93.205 23.5597 93.0691C24.6098 92.4804 25.523 91.801 26.4818 91.1217C26.5731 91.0764 26.6645 90.9858 26.7558 90.9405C26.9841 90.7141 28.1712 89.8989 28.4451 89.763C28.8104 89.5819 28.993 89.5366 29.3127 89.8083C29.7236 90.1706 30.1345 90.5329 30.4998 90.9405C30.4998 90.9858 30.5454 90.9858 30.5454 91.0311C30.6824 91.167 30.865 91.2576 31.002 91.3934C31.139 91.5293 31.4129 91.7105 31.276 91.8916C31.276 91.8916 30.7737 92.2086 30.6367 92.2992Z" fill="#fff"/>
<path d="M35.02 108.377C34.7003 108.241 34.3351 108.015 34.0155 107.833C33.5132 107.607 33.011 107.38 32.5087 107.199C31.9152 106.973 31.3673 106.701 30.7737 106.475C30.5454 106.339 29.5866 105.795 29.3583 105.66C29.3127 105.614 29.3127 105.614 29.267 105.614C29.13 105.569 28.9474 105.524 28.8104 105.478C28.4908 105.342 28.2169 105.161 27.9429 105.025C27.669 104.844 27.5776 104.618 27.6233 104.346C27.669 104.12 27.7146 103.848 27.8059 103.622C27.8973 103.44 27.9886 103.214 28.0799 103.033C28.3538 102.399 28.5365 101.765 28.8561 101.176C28.9017 101.04 29.0387 100.995 29.0844 100.859C29.2213 100.587 29.3583 100.315 29.4953 100.044L29.6779 99.6361C29.8149 99.319 29.9975 99.0926 30.1345 98.7756V98.7303C30.1345 98.5944 30.1802 98.4585 30.2715 98.368C30.4085 98.0509 30.6368 97.7339 30.7737 97.4169C30.8194 97.3263 30.8194 97.1904 30.9107 97.0999C31.002 96.8734 31.139 96.6923 31.2303 96.5111C31.4129 96.1488 31.5043 95.7865 31.6869 95.4242C31.8239 95.1524 31.9608 94.926 32.0978 94.6543C32.1435 94.5637 32.1435 94.5184 32.1435 94.4278C32.1891 94.3372 32.2348 94.2919 32.2805 94.2467C32.6001 93.7485 32.9653 92.7521 33.6959 92.888L34.1524 92.9786V93.0691C34.5177 93.2503 34.8373 93.4315 35.2026 93.5673C35.3852 93.6579 35.6135 93.7032 35.8418 93.7938C36.4354 94.0202 37.0289 94.2467 37.5768 94.5184C37.7138 94.5637 37.7595 94.6995 37.9421 94.7901C38.1247 94.8807 38.353 94.926 38.5357 95.0166C38.7183 95.1072 38.9009 95.243 39.0836 95.3336C39.6315 95.6053 40.225 95.7412 40.7729 96.0129C41.0012 96.1035 41.3208 96.3752 41.1838 96.6923C41.0469 97.0093 40.9555 97.3263 40.8186 97.5981C40.7273 97.8245 40.362 98.5038 40.225 98.685C39.9967 98.9114 39.8597 98.9114 39.5858 98.8209C38.8553 98.5038 38.1247 98.1868 37.3942 97.8245C37.1202 97.6886 36.8919 97.5528 36.618 97.4169C36.2984 97.281 35.9788 97.1905 35.6592 97.0546C35.4309 96.964 35.2483 96.8281 35.0656 96.7376C34.7917 96.6017 34.746 96.6017 34.5634 96.9187L34.2894 97.4622C34.2438 97.5981 34.1524 97.6886 34.1068 97.8245C34.0611 97.9604 34.0611 98.0057 34.1981 98.0962C34.3351 98.1415 34.5177 98.1868 34.6547 98.2774C34.9286 98.4133 35.2483 98.5491 35.5222 98.685C36.4354 99.1379 37.3485 99.5455 38.2617 99.9531C38.627 100.134 38.9922 100.361 38.7639 100.768C38.6726 100.995 38.49 101.221 38.3987 101.448C38.3074 101.674 38.1247 101.946 38.0791 102.172C37.3029 103.123 37.0289 102.761 36.0701 102.308C35.8418 102.218 35.6135 102.127 35.4309 102.036C35.1569 101.901 34.9286 101.674 34.609 101.538C34.3807 101.448 34.1981 101.402 33.9698 101.312C33.7415 101.221 33.5589 101.085 33.3306 100.949C33.1023 100.859 32.874 100.678 32.737 100.949L31.7326 103.033C31.6412 103.259 31.5499 103.486 31.5043 103.712C31.8695 103.893 32.1891 104.074 32.5544 104.21C32.7827 104.346 33.0566 104.437 33.2849 104.573C33.8785 104.844 34.4721 105.116 35.0656 105.388C35.4765 105.569 36.2071 105.886 36.5267 106.203C36.755 106.384 36.7093 106.656 36.618 106.882C36.481 107.154 36.3897 107.426 36.2527 107.698C35.9788 107.879 35.5679 108.649 35.02 108.377Z" fill="#fff"/>
<path d="M53.5573 101.991C53.5116 102.172 53.4203 102.353 53.4203 102.58C53.3747 102.761 53.3747 102.987 53.329 103.214C53.329 103.35 53.2377 103.486 53.2377 103.621C53.192 103.848 53.192 104.12 53.1464 104.346C53.1007 104.527 53.055 104.708 53.055 104.844C53.055 104.935 53.055 105.025 53.055 105.116C53.055 105.252 53.0094 105.388 52.9637 105.524C52.9637 105.66 53.0094 105.841 52.9637 105.977C52.9637 106.112 52.8268 106.429 52.7811 106.701C52.6898 107.199 52.6898 107.698 52.5985 108.196C52.5528 108.422 52.4615 108.603 52.4615 108.83C52.4158 109.011 52.4158 109.192 52.4158 109.373C52.4158 109.464 52.3702 109.554 52.3702 109.645C52.3245 109.962 52.3245 110.279 52.2789 110.596L52.1875 111.185C52.1875 111.321 52.1875 111.457 52.1419 111.638C52.0962 111.909 51.9136 112.136 51.6396 112.091C51.32 112.045 51.0004 112 50.6352 111.955C50.2242 111.909 49.859 111.774 49.448 111.638C49.1741 111.547 48.9915 111.366 48.8545 111.094C48.5805 110.641 48.3522 110.188 48.1239 109.69C47.9413 109.283 47.713 108.92 47.5304 108.558C47.2564 108.06 47.0281 107.562 46.7085 107.018C46.5259 106.746 46.2063 105.977 46.0237 105.614C45.8867 105.342 45.7497 105.116 45.6127 104.844H45.5671C45.5671 104.935 45.5214 105.071 45.4758 105.161C45.4301 105.388 45.4301 105.569 45.4301 105.841C45.3844 106.067 45.3388 106.248 45.3388 106.475C45.2931 106.746 45.2931 107.018 45.2475 107.29C45.1105 108.286 45.0192 109.328 44.8365 110.37L44.7909 110.641C44.6996 111.049 43.969 110.913 43.6494 110.868C43.4668 110.822 43.3298 110.777 43.1472 110.732C42.9189 110.687 42.6906 110.732 42.4623 110.687C42.0514 110.641 41.6861 110.415 41.7318 109.962C41.7318 109.871 41.7774 109.781 41.7774 109.69C41.8231 109.419 41.8687 109.101 41.8687 108.83C41.9144 108.513 42.0057 108.196 42.0514 107.879C42.1427 107.38 42.1427 106.928 42.234 106.429C42.2797 106.203 42.3253 106.022 42.371 105.795C42.371 105.705 42.371 105.614 42.371 105.524C42.371 105.433 42.4166 105.342 42.4623 105.252C42.4623 105.116 42.4623 104.98 42.508 104.844C42.508 104.754 42.5536 104.708 42.5536 104.618C42.5993 104.301 42.5993 104.029 42.6449 103.712C42.6449 103.576 42.6906 103.486 42.7363 103.35C42.7819 103.123 42.7819 102.942 42.7819 102.716C42.8276 102.535 42.8732 102.353 42.9189 102.172C42.9646 101.991 42.9189 101.765 42.9645 101.583C42.9645 101.493 43.0102 101.402 43.0102 101.312C43.0559 101.085 43.0559 100.814 43.1015 100.542L43.2842 99.5002C43.3298 99.2737 43.3755 99.0473 43.4668 98.8208C43.5581 98.4585 43.6038 98.0509 43.6951 97.7339C43.7407 97.5527 43.8321 97.4169 43.969 97.4169C44.2886 97.3263 44.6539 97.281 44.9735 97.3263C45.2475 97.3716 45.4758 97.4622 45.7041 97.598C45.9323 97.7339 46.0693 98.0056 46.1606 98.2321C46.4346 98.8661 46.6629 99.5455 46.9368 100.18C47.1651 100.768 49.5394 105.297 49.859 105.66C49.9046 105.478 49.9503 105.297 49.9959 105.116L50.5895 101.221C50.5895 101.085 50.6352 100.949 50.5895 100.814C50.5895 100.497 50.6352 100.18 50.6808 99.8625C50.7265 99.5908 50.8634 98.7756 50.9091 98.5491C50.9548 98.4132 51.0461 98.2774 51.2287 98.3227C51.9592 98.4132 52.6441 98.5944 53.3747 98.685C53.5573 98.7303 53.6943 98.7756 53.8312 98.9114C53.9682 99.0473 53.9682 99.1379 53.9682 99.319C53.9226 99.6361 53.8312 99.9531 53.7856 100.27C53.7399 100.542 53.7399 100.814 53.6943 101.131C53.6486 101.357 53.6486 101.629 53.6029 101.855C53.6486 101.81 53.6029 101.901 53.5573 101.991Z" fill="#fff"/>
<path d="M65.7024 100.27C65.6111 100.587 65.2915 100.678 65.0175 100.678C64.6979 100.723 64.3783 100.814 64.013 100.859L63.1912 100.949C62.7346 101.04 62.9172 102.172 62.9629 102.444C63.0542 103.078 63.1912 103.667 63.2368 104.301C63.2825 104.708 63.2825 105.116 63.3738 105.569C63.3738 105.705 63.4195 105.841 63.4651 106.022C63.4651 106.158 63.4651 106.339 63.4651 106.475C63.5108 106.746 63.5565 106.973 63.6021 107.199C63.6478 107.562 63.7847 107.924 63.8304 108.332C63.8304 108.467 63.8304 108.603 63.8304 108.739C63.8761 109.147 64.013 109.509 64.0587 109.917C64.1044 110.188 64.1044 110.505 64.1044 110.777C64.1044 111.004 63.9674 111.185 63.7847 111.23C63.0999 111.411 62.4607 111.547 61.7758 111.638C61.5475 111.683 61.3192 111.592 61.0909 111.502C60.817 111.411 60.7713 111.094 60.7256 110.822C60.68 110.551 60.7256 110.324 60.68 110.098C60.5887 109.509 60.4517 108.966 60.3604 108.377C60.3147 108.105 60.3147 107.833 60.2691 107.562C60.2691 107.471 60.2234 107.38 60.2234 107.335C60.2234 107.199 60.2691 107.063 60.2691 106.928C60.2234 106.656 60.269 106.429 60.2234 106.203C60.1777 105.931 60.1321 105.66 60.0864 105.342C59.9951 104.573 59.9038 103.757 59.8125 102.987C59.7668 102.716 59.7668 102.489 59.7212 102.263C59.6755 102.036 59.5385 101.901 59.5385 101.719C59.4929 101.221 59.3102 101.312 58.8993 101.357C58.3514 101.402 57.7578 101.538 57.2099 101.583C56.9816 101.629 56.4794 101.583 56.4337 101.357C56.3424 101.085 56.2511 100.768 56.2511 100.497L56.2055 100.315C56.1598 99.8625 56.0685 99.3643 56.0685 98.9114C56.0685 98.7756 56.1598 98.685 56.2511 98.685C56.5251 98.6397 56.7077 98.5944 56.936 98.5038L56.9816 98.4585C57.1643 98.4585 57.3926 98.4585 57.5752 98.4133C57.9861 98.368 58.3514 98.2774 58.7623 98.2321C59.0819 98.3227 59.4929 98.2774 59.8581 98.2321C60.2691 98.1868 60.68 98.0509 61.0452 98.0056C61.1366 98.0056 61.2279 98.0056 61.3192 98.0056C61.5018 97.9604 61.6845 97.9151 61.9128 97.8698L63.0999 97.7339C63.6021 97.6886 64.1044 97.6886 64.6066 97.598L64.8806 97.5528C65.5654 97.4622 65.6111 98.0509 65.6567 98.5491C65.6567 99.002 65.7937 99.9078 65.7024 100.27Z" fill="#fff"/>
<path d="M79.0347 100.995C79.263 101.538 79.3086 101.855 79.4456 102.444C79.5369 102.852 79.6739 103.259 79.7195 103.712C79.7195 103.984 79.6739 104.301 79.6282 104.573C79.5826 105.297 79.4456 105.66 79.0803 106.248C78.852 106.656 78.5324 107.063 78.0758 107.245C77.8019 107.335 77.5736 107.471 77.3453 107.607C77.3453 107.652 77.254 107.698 77.254 107.698L76.3408 108.06L75.7473 108.286C75.519 108.377 75.245 108.332 74.9711 108.422C74.6971 108.467 74.1036 108.558 73.8296 108.467C73.4643 108.332 73.0534 108.196 72.7338 108.015C71.8206 107.516 70.8162 105.524 70.4052 104.618C70.2683 104.256 70.04 103.939 69.903 103.531C69.8117 103.304 69.6747 103.078 69.5834 102.852C69.4921 102.58 69.4007 102.353 69.3094 102.127C69.1268 101.719 68.8985 101.312 68.7159 100.949C68.4876 100.406 68.3506 99.8625 68.1223 99.319C68.031 99.0473 67.894 98.8208 67.8027 98.5491C67.6657 98.1868 67.4831 97.7792 67.4831 97.3716C67.4831 97.2357 67.5287 97.0999 67.6657 97.0093C67.9853 96.7828 68.3049 96.6017 68.6702 96.4205C68.8985 96.3299 69.1724 96.2846 69.3551 96.1941C69.5834 96.1035 69.8117 95.9676 70.0856 96.0129C70.3139 96.0582 70.4052 96.3752 70.4965 96.5564C70.6792 97.0093 70.8618 97.4169 71.0444 97.8245C71.1814 98.1415 71.3641 98.4585 71.501 98.7756L71.638 99.0926C71.8206 99.5002 71.9576 99.9078 72.1402 100.361C72.2316 100.632 72.3685 100.859 72.4142 101.131C72.4142 101.176 72.4142 101.221 72.4599 101.266C72.6425 101.674 72.9164 102.036 73.0991 102.489C73.373 103.214 73.9666 104.799 74.6058 105.297C74.9254 105.524 75.382 105.433 75.7473 105.297C76.7517 104.89 76.7061 103.757 76.3865 102.897L76.3408 102.761C76.3408 102.58 76.1582 102.082 76.0669 101.901C75.9299 101.538 75.7473 101.085 75.519 100.768C75.519 100.723 75.4733 100.632 75.4733 100.587C75.382 100.406 75.245 100.18 75.1994 99.9984C74.9711 99.4096 74.7428 98.8661 74.4688 98.3227C74.4232 98.2321 74.3318 98.0962 74.2862 98.0056C74.2405 97.9151 74.2862 97.8245 74.2405 97.7339C74.1949 97.598 74.1492 97.5075 74.1036 97.3716C73.8753 96.8281 73.6013 96.2846 73.373 95.7412C73.2817 95.56 73.1904 95.3336 73.1447 95.1071C73.0991 94.9713 73.1447 94.8354 73.2817 94.7448C73.5557 94.5184 74.3775 94.1108 74.7428 93.9749C74.9254 93.9296 75.108 93.8843 75.2907 93.839C75.8386 93.7032 75.9756 93.839 76.2952 94.2466C76.3865 94.3825 76.4778 94.5184 76.5235 94.6995C76.6604 95.0166 76.7517 95.3789 76.8887 95.7412C76.98 95.9676 77.117 96.1941 77.2083 96.4205C77.3453 96.7375 77.4366 97.0546 77.5736 97.4169C77.7106 97.7339 77.8932 98.0962 78.0302 98.4132C78.0758 98.5491 78.0758 98.685 78.1215 98.7756C78.2128 99.002 78.3498 99.2284 78.4411 99.5002C78.4868 99.636 78.5324 99.7719 78.5781 99.9078C78.6694 100.18 78.852 100.361 78.989 100.587C78.9433 100.678 78.9433 100.859 79.0347 100.995Z" fill="#fff"/>
<path d="M94.8781 96.3752C94.6498 96.5564 94.4672 96.6923 94.2389 96.8734C94.1476 96.964 94.0563 97.0546 93.9649 97.0999C93.554 97.4169 93.1431 97.7339 92.6865 98.0056C92.4582 98.1415 92.2299 98.1868 91.956 98.0962C91.4994 98.0057 91.0885 97.8698 90.6775 97.7339L88.7142 97.1452C88.5316 97.0999 88.349 97.0999 88.212 97.2357C88.0293 97.4169 87.6184 97.6886 87.4814 97.8698C87.3445 98.0057 87.3445 98.0509 87.4814 98.1868C87.7554 98.5038 88.0293 98.8209 88.3033 99.1379C88.5772 99.4549 88.8512 99.7719 89.0795 100.089C89.3534 100.406 89.6274 100.723 89.2165 101.04C88.9882 101.221 88.7599 101.448 88.5316 101.629C88.4403 101.719 88.3033 101.765 88.212 101.81C88.0293 101.946 87.8924 102.127 87.7097 102.263C87.4814 102.444 87.2531 102.489 86.9335 102.399C86.6596 102.308 85.1985 100.542 84.9246 100.225C84.7419 99.9984 84.605 99.7266 84.4223 99.4549C84.3767 99.3643 84.2854 99.319 84.194 99.2737C83.9201 98.9567 83.6461 98.6397 83.3722 98.2774C81.8655 96.4205 80.2218 94.6995 78.715 92.8427C78.4867 92.571 78.3041 92.2539 78.6237 91.9822C78.715 91.8916 78.8063 91.8463 78.8977 91.7558C79.0346 91.6652 79.1716 91.484 79.3086 91.3934C79.4456 91.3029 79.5825 91.2123 79.7195 91.1217C80.587 90.4877 81.4089 89.763 82.2764 89.129C82.8243 88.7667 83.4178 88.4497 83.9657 88.1779C84.3767 87.9515 84.6506 87.9968 85.0159 87.9062C85.6094 87.725 86.1117 87.7703 86.7052 87.9968C87.1618 88.1326 87.6641 88.3138 88.075 88.6308C88.212 88.7214 88.349 88.8573 88.4859 88.9931C88.7599 89.2196 89.1251 89.446 89.3534 89.763C89.7644 90.2612 89.9927 90.85 90.2666 91.4387C90.4492 91.8463 90.4949 92.3445 90.5406 92.7974C90.5406 93.0238 90.5406 93.1597 90.4492 93.3409C90.3579 93.522 90.3123 94.0655 90.2666 94.2919C90.2666 94.3825 90.2209 94.4731 90.2666 94.5184C90.3579 94.609 91.2711 94.6995 91.4994 94.6995C91.7277 94.7448 91.956 94.7901 92.1843 94.8807C93.1431 95.243 94.1476 95.1977 95.0151 95.7865C95.0607 95.7865 95.0607 95.8318 95.1064 95.8771C95.2434 96.1035 95.0151 96.2394 94.8781 96.3752ZM85.3355 91.2576C84.5136 90.9858 83.6918 91.4387 83.0982 91.9369C82.9156 92.1181 82.733 92.2992 82.5503 92.4804V92.571L82.733 92.7974C83.0526 93.1597 83.3722 93.522 83.6461 93.8843C83.7375 94.0202 83.8288 94.1561 83.9657 94.2919C84.3767 94.8354 84.8789 95.3336 85.3355 95.8318C85.4725 96.0129 85.5638 96.0129 85.7464 95.9224C85.8377 95.8318 85.9747 95.7865 86.1117 95.6506C86.5226 95.2883 86.8422 94.8354 87.0705 94.3372C87.2531 93.9749 87.3445 93.5673 87.2075 93.1597C87.1162 92.9333 87.0249 92.7974 87.0249 92.571C87.0249 92.4804 86.7966 92.2086 86.7509 92.1634C86.2487 91.6199 85.9291 91.484 85.3355 91.2576Z" fill="#fff"/>
<path d="M104.329 84.6906C104.101 85.0077 103.827 85.2794 103.645 85.5964C103.325 86.0493 103.051 86.5022 102.731 86.9551C102.366 87.4533 102.046 87.9967 101.681 88.4949C101.544 88.7214 100.814 89.5366 100.631 89.7177C100.585 89.7177 100.585 89.763 100.54 89.8083C100.448 89.9442 100.403 90.08 100.311 90.2159C100.129 90.4876 99.9005 90.7594 99.7179 90.9858C99.4896 91.2123 99.2613 91.3028 98.9874 91.2123C98.7591 91.1217 98.5308 91.0311 98.3025 90.8952C98.1199 90.7594 97.9372 90.6688 97.7546 90.5329C97.2067 90.1253 96.5675 89.8536 96.0196 89.4913C95.9283 89.4007 95.8369 89.3101 95.7456 89.2196C95.4717 89.0384 95.2434 88.8572 95.0151 88.6761L94.6498 88.4043C94.3759 88.2232 94.1476 87.9967 93.8736 87.8156L93.828 87.7703C93.691 87.725 93.5997 87.6797 93.4627 87.5891C93.1887 87.408 92.9148 87.1363 92.5952 86.9551C92.5039 86.9098 92.3669 86.8645 92.2756 86.7739C92.093 86.6381 91.9103 86.5022 91.7277 86.3663C91.4081 86.1399 91.0428 85.9587 90.7232 85.7323C90.4949 85.5511 90.2666 85.37 90.0383 85.1888C89.9927 85.1435 89.9013 85.1435 89.81 85.0982C89.7644 85.053 89.6731 85.0077 89.6274 84.9624C89.1708 84.5548 88.2576 84.0566 88.5316 83.332L88.7142 82.8791H88.8055C89.0338 82.5621 89.2621 82.2903 89.4904 81.9733C89.6274 81.7921 89.7187 81.5657 89.8557 81.4298C90.1753 80.8864 90.4949 80.3882 90.8602 79.89C90.9515 79.7541 91.0885 79.7088 91.1798 79.6183C91.3168 79.4371 91.4081 79.256 91.4994 79.0748C91.6364 78.8936 91.7733 78.7578 91.9103 78.5766C92.2756 78.0784 92.5039 77.535 92.8691 77.0821C93.0061 76.8556 93.3257 76.6292 93.5997 76.8103C93.8736 76.9915 94.1476 77.1726 94.4215 77.3538C94.6498 77.4897 95.2434 77.9426 95.3803 78.1237C95.563 78.3502 95.563 78.5313 95.426 78.7578C94.9694 79.3918 94.5128 80.0712 94.0563 80.7052C93.8736 80.9316 93.691 81.1581 93.5084 81.3845C93.3257 81.6563 93.1887 81.9733 93.0061 82.245C92.8691 82.4262 92.7322 82.6073 92.5952 82.7885C92.4126 83.0602 92.4126 83.1055 92.6865 83.2867L93.1888 83.649C93.2801 83.7396 93.3714 83.8301 93.5084 83.8754C93.5997 83.966 93.691 83.9207 93.7823 83.8302C93.8736 83.6943 93.9193 83.5584 94.0106 83.4225C94.1932 83.1508 94.3759 82.8791 94.5585 82.6526C95.1521 81.8374 95.7 81.0222 96.2935 80.1617C96.5218 79.8447 96.7958 79.5277 97.2067 79.7994C97.435 79.9353 97.6176 80.1164 97.8002 80.2523C98.0285 80.3882 98.2568 80.6146 98.4851 80.7052C99.307 81.611 98.896 81.7921 98.2568 82.6979C98.1199 82.8791 97.9829 83.1055 97.8459 83.2867C97.6633 83.5584 97.3893 83.7396 97.2067 84.0113C97.0697 84.1925 96.9784 84.4189 96.8414 84.5548C96.7044 84.7359 96.5218 84.9171 96.3848 85.1435C96.2479 85.3247 96.0196 85.5511 96.2935 85.7323L98.1655 87.0457C98.3938 87.1815 98.5764 87.2721 98.8047 87.408C99.033 87.091 99.2613 86.7739 99.4896 86.4569C99.6266 86.2305 99.8092 86.004 99.9918 85.7776C100.357 85.2341 100.722 84.7359 101.088 84.1925C101.362 83.8301 101.773 83.1961 102.138 82.8791C102.366 82.6979 102.594 82.7432 102.823 82.8791C103.051 83.0602 103.325 83.1961 103.553 83.3773C104.01 83.649 104.695 84.1472 104.329 84.6906Z" fill="#fff"/>
<path d="M107.388 69.1565C107.708 69.3829 107.936 69.7 108.21 69.9717C108.758 70.6057 109.306 71.7833 109.397 72.5985C109.397 73.0061 109.215 74.0024 109.078 74.3647C108.895 74.8629 108.667 75.3158 108.393 75.7687L107.891 76.448C107.525 76.9462 107.069 77.2632 106.521 77.5802C105.973 77.8973 105.334 77.852 104.74 77.8973C104.329 77.9426 103.599 77.8973 103.234 77.7614C103.051 77.7161 102.914 77.5802 102.777 77.3991C102.64 77.1726 102.731 76.9009 102.823 76.6745L102.96 76.3122H103.005C103.142 75.8593 103.234 75.3611 103.371 74.9082C103.462 74.727 103.599 74.5006 103.781 74.3647C103.918 74.2741 104.74 74.3647 104.969 74.41C105.425 74.41 105.425 74.2289 105.653 74.1836C105.882 74.1383 105.927 74.0024 106.064 73.8213C106.201 73.5948 106.384 73.3684 106.475 73.0966C106.704 72.4173 106.567 71.6927 105.836 71.4209C105.425 71.2851 105.014 71.3756 104.695 71.6474C104.238 72.055 103.599 72.5985 103.371 73.1872C103.325 73.2778 103.325 73.3231 103.279 73.3684C102.686 74.1836 101.955 75.1799 100.996 75.5422C100.129 75.8593 99.9005 75.9951 98.9873 75.814C98.8504 75.7687 98.7134 75.7687 98.5308 75.6781C98.2111 75.5422 96.9327 74.8629 96.7501 74.5459L96.4761 74.093C96.3848 73.9571 96.2935 73.8213 96.1565 73.6854C95.8826 73.3684 95.8369 72.9155 95.7456 72.5079C95.5173 71.738 95.6999 70.8322 95.9739 70.0623C96.0652 69.7905 96.2022 69.5188 96.3391 69.2471C96.3848 69.0659 96.5674 68.93 96.6588 68.7489C96.8414 68.296 97.0697 68.2507 97.3436 67.9337C97.8459 67.3449 98.8504 66.7562 99.6266 66.8015C99.7635 66.8015 99.8548 66.7562 99.9918 66.7562C100.357 66.7562 101.27 66.8015 101.59 66.9373C101.955 67.0732 102.046 67.5714 101.909 67.9337C101.727 68.3866 101.316 69.2018 101.042 69.7C100.768 70.1981 100.129 69.7452 99.6722 70.017C99.2156 70.2434 98.759 70.5604 98.6221 71.0133C98.4851 71.3756 98.5764 72.1456 98.9873 72.2814C99.1243 72.3267 99.3526 72.3267 99.4896 72.372C99.8092 72.4173 100.037 72.4173 100.266 72.1456C100.677 71.6927 101.179 71.1039 101.544 70.651C101.818 70.334 102.046 70.017 102.32 69.6547C102.503 69.3829 102.731 69.1565 103.005 68.9753C103.736 68.4319 104.192 68.2507 105.151 68.2507C105.608 68.2507 106.11 68.296 106.521 68.4771C106.795 68.7489 107.115 68.93 107.388 69.1565Z" fill="#fff"/>
<path d="M33.9698 18.9308C33.7872 19.0667 33.5589 19.1573 33.3763 19.2932L32.4174 20.0178C32.3261 20.0631 32.2805 20.1537 32.1891 20.1989C32.0978 20.2895 31.9609 20.3348 31.8239 20.4254C31.6869 20.4707 31.6412 20.4707 31.5043 20.3801L31.4586 20.3348C31.1847 20.1537 31.002 20.0631 30.7737 19.8366C30.6368 19.7008 30.4541 19.6102 30.3628 19.4743C30.2258 19.2932 30.2258 19.2932 30.0432 19.429C29.8606 19.5649 29.6779 19.6555 29.541 19.7913C29.0387 20.1537 28.5821 20.516 28.0799 20.8783L28.0342 20.9236C27.8973 21.0141 27.8973 21.0594 27.9429 21.1953C28.0342 21.5576 28.2625 21.8746 28.4452 22.237C28.5821 22.554 28.5821 22.7351 28.3082 22.9616L28.0799 23.0974C27.8059 23.2786 27.532 23.4598 27.258 23.6862C26.9841 23.8674 26.7558 24.0938 26.5275 24.275C26.2992 24.4108 26.0253 24.592 25.8426 24.3203C25.7513 24.1844 25.5687 23.5956 25.4774 23.4145C25.2947 22.9163 25.0208 22.4181 24.8382 21.9199C24.7468 21.6935 24.7012 21.4217 24.5642 21.15C24.5185 21.1047 24.5185 21.0594 24.5185 20.9689C24.4729 20.7424 24.3816 20.5613 24.2903 20.3348C23.788 19.112 23.4227 17.8892 23.0118 16.6664C22.9662 16.5305 22.9205 16.4399 22.8748 16.3494C22.6009 15.7153 22.3269 15.036 22.0986 14.3566C21.8247 13.5867 21.5051 12.8168 21.2768 12.0016C21.2311 11.8657 21.2311 11.6846 21.2311 11.5487C21.2768 11.2317 21.6877 10.96 21.916 10.7788V10.7335C22.3726 10.4165 22.8292 10.0089 23.4227 10.4165C24.3816 11.0958 25.3404 11.7752 26.2992 12.4998C26.3905 12.5904 26.4819 12.6809 26.5275 12.7715C26.6645 12.9074 26.8928 13.0433 27.0754 13.1338C27.3494 13.315 27.5777 13.4962 27.8516 13.6773C28.0799 13.8585 28.3082 13.9943 28.5365 14.1755C28.8104 14.4019 29.0844 14.6284 29.3583 14.8548L30.4541 15.67C31.0933 16.1229 31.7326 16.6211 32.4174 17.074C32.9197 17.4363 33.4676 17.7533 34.0155 18.1156C34.0611 18.1609 34.1068 18.2062 34.1525 18.2515C34.3351 18.478 34.1525 18.795 33.9698 18.9308ZM28.3082 17.6628C28.0342 17.4363 27.669 17.3004 27.395 17.1193C27.2124 16.9834 26.1166 16.2588 26.0253 16.2588C26.2992 17.074 26.5732 17.8892 26.8471 18.7044C27.0298 18.6138 27.258 18.4327 27.395 18.2968L28.3082 17.6628Z" fill="#fff"/>
<path d="M42.6906 9.37483C42.9189 9.9183 42.9189 10.2353 43.0558 10.8241C43.1472 11.2317 43.2841 11.6393 43.2841 12.0922C43.2841 12.3639 43.1928 12.6809 43.1928 12.9527C43.1472 13.6773 43.0102 14.0396 42.5993 14.6284C42.371 15.036 42.0514 15.4436 41.5948 15.6247C41.3208 15.7153 41.0925 15.8512 40.8642 15.987C40.8642 16.0323 40.7729 16.0776 40.7729 16.0776L39.8598 16.4399L39.2662 16.6664C39.0379 16.757 38.764 16.7117 38.49 16.757C38.2161 16.8023 37.6225 16.8475 37.3485 16.757C36.9833 16.6211 36.5724 16.4852 36.2527 16.3041C35.3396 15.8059 34.3808 13.7679 33.9698 12.8168C33.8329 12.4545 33.6502 12.0922 33.4676 11.7299C33.3763 11.5034 33.2393 11.277 33.148 11.0505C33.0567 10.7788 33.011 10.5524 32.9197 10.3259C32.7371 9.9183 32.5088 9.5107 32.3718 9.1031C32.1435 8.55963 32.0065 8.01616 31.7782 7.4274C31.6869 7.15567 31.5499 6.92922 31.4586 6.65749C31.3216 6.29517 31.1847 5.88757 31.139 5.47997C31.139 5.3441 31.2303 5.20824 31.3216 5.11766C31.6413 4.89121 31.9609 4.71005 32.3261 4.57419C32.5544 4.48361 32.8284 4.43832 33.0567 4.34774C33.285 4.25716 33.5132 4.1213 33.7872 4.21187C34.0155 4.25716 34.1068 4.57419 34.1981 4.75534C34.3808 5.20823 34.5634 5.61584 34.746 6.06873C34.883 6.38575 35.0656 6.70278 35.2026 7.0198L35.3396 7.33682C35.5222 7.74443 35.6592 8.19732 35.7962 8.60492C35.8875 8.87665 36.0245 9.1031 36.0701 9.42012C36.0701 9.46541 36.0701 9.5107 36.1158 9.55599C36.2984 9.96359 36.5267 10.3712 36.7093 10.7788C36.9833 11.5034 37.5312 13.1338 38.1704 13.5867C38.49 13.8132 38.9466 13.7679 39.3119 13.632C40.3163 13.2697 40.3163 12.0922 39.9967 11.2317L39.9511 11.0958C39.9511 10.9147 39.7684 10.4165 39.7228 10.2353C39.5858 9.87301 39.4032 9.42012 39.1749 9.1031C39.1292 9.05781 39.1292 8.96723 39.1292 8.92194C39.0379 8.74079 38.9466 8.51434 38.8553 8.33318C38.627 7.74443 38.3987 7.20096 38.1704 6.6122C38.1247 6.52162 38.0334 6.38575 37.9878 6.29517C37.9421 6.2046 37.9878 6.11402 37.9421 6.02344C37.8964 5.88757 37.8508 5.79699 37.8051 5.66113C37.5768 5.11766 37.3029 4.57419 37.0746 4.03072C36.9833 3.84956 36.892 3.62312 36.892 3.39667C36.8463 3.2608 36.9376 3.12494 37.0289 3.03436C37.3029 2.80791 38.1247 2.4456 38.49 2.30973C38.6726 2.26444 38.8553 2.21915 39.0379 2.17386C39.5858 2.038 39.7228 2.21915 39.9967 2.58147C40.0881 2.71733 40.1794 2.8532 40.225 3.03436C40.362 3.35138 40.4077 3.71369 40.5446 4.07601C40.636 4.30245 40.7729 4.5289 40.8642 4.75534C41.0012 5.07237 41.0925 5.43468 41.2295 5.7517C41.3665 6.06873 41.5491 6.43104 41.6404 6.79335C41.6861 6.92922 41.6861 7.06509 41.7318 7.15567C41.8231 7.38211 41.96 7.60856 42.0514 7.88029C42.097 8.01616 42.097 8.15203 42.1883 8.28789C42.2797 8.55963 42.4623 8.74079 42.5536 9.01252C42.6449 9.05781 42.6449 9.23897 42.6906 9.37483Z" fill="#fff"/>
<path d="M56.3424 9.87302C56.2968 10.2806 56.0685 10.5976 55.9315 10.96C55.5662 11.7299 54.7444 12.6809 54.0139 13.0885C53.6486 13.2697 52.6441 13.4961 52.2332 13.5414C51.7309 13.5867 51.183 13.5867 50.6351 13.4961L49.8133 13.315C49.2197 13.2244 48.7175 12.9074 48.2152 12.5451C47.713 12.1828 47.4847 11.594 47.1651 11.0505C46.9368 10.7335 46.7085 10.0542 46.6629 9.64657C46.6629 9.46541 46.7085 9.28426 46.7998 9.1031C46.9368 8.87666 47.2564 8.83137 47.4847 8.83137L47.85 8.78608H47.8956C48.3522 8.6955 48.8545 8.60492 49.311 8.55963C49.5393 8.55963 49.7676 8.60492 49.9503 8.74079C50.0872 8.83137 50.3155 9.60128 50.4068 9.82773C50.5895 10.2353 50.7721 10.19 50.8634 10.3712C51.0004 10.5524 51.1374 10.5524 51.3657 10.5976C51.6396 10.6429 51.9136 10.6882 52.1875 10.6882C52.8724 10.6429 53.5116 10.19 53.4659 9.42013C53.4203 8.96723 53.1463 8.65021 52.7811 8.46905C52.2332 8.19732 51.457 7.8803 50.8178 7.92558C50.7264 7.92558 50.6808 7.92558 50.6351 7.92558C49.6763 7.69914 48.4435 7.47269 47.6673 6.74807C47.0281 6.11402 46.7998 5.97815 46.6172 5.02708C46.5715 4.89121 46.5715 4.75535 46.5259 4.57419C46.4802 4.21188 46.6172 2.80791 46.7998 2.49089L47.0738 2.038C47.1651 1.90213 47.2564 1.76626 47.3021 1.58511C47.4847 1.2228 47.8956 0.95106 48.1696 0.724615C48.8088 0.226435 49.722 -0.0453002 50.4982 -0.0905893C50.7721 -0.135878 51.0917 -0.0905893 51.3657 -0.0905893C51.5483 -0.0905893 51.7766 -1.10418e-05 51.9592 -1.10418e-05C52.4158 -0.0453002 52.5984 0.181145 52.9637 0.271724C53.7399 0.498169 54.6531 1.13222 54.9727 1.85684C55.0183 1.94742 55.1097 2.038 55.1553 2.17387C55.2923 2.49089 55.6576 3.35138 55.6576 3.7137C55.7032 4.1213 55.2466 4.34774 54.8814 4.39303C54.3791 4.43832 53.466 4.39303 52.918 4.34774C52.3245 4.30246 52.5071 3.53254 52.0505 3.21552C51.6396 2.89849 51.183 2.62676 50.6808 2.67205C50.3155 2.71734 49.6306 3.12494 49.6306 3.53254C49.6306 3.66841 49.722 3.89485 49.7676 4.03072C49.8589 4.34774 49.9503 4.5289 50.2699 4.61948C50.8634 4.80064 51.594 4.98179 52.1875 5.16295C52.5984 5.25353 53.0094 5.3441 53.4203 5.43468C53.7399 5.47997 54.0595 5.61584 54.3335 5.797C55.1553 6.24989 55.5206 6.56691 55.8858 7.4274C56.0685 7.83501 56.2511 8.33319 56.2511 8.74079C56.4794 9.14839 56.4337 9.55599 56.3424 9.87302Z" fill="#fff"/>
<path d="M69.8573 4.39304C69.6747 4.66478 69.3551 4.61949 69.0811 4.5742C68.7615 4.52891 68.4419 4.48362 68.0766 4.43833L67.2548 4.30247C66.7982 4.25718 66.6156 5.38941 66.5699 5.66114C66.4329 6.29519 66.3873 6.88395 66.296 7.51799C66.2046 7.9256 66.1133 8.3332 66.022 8.7408C65.9764 8.87667 65.9764 9.01254 65.9764 9.19369C65.9307 9.32956 65.8394 9.46543 65.8394 9.64658C65.7937 9.87303 65.7937 10.1448 65.7481 10.4165C65.7024 10.7788 65.7024 11.1864 65.6111 11.5487C65.5654 11.6846 65.5198 11.8205 65.4741 11.9563C65.3828 12.3186 65.4285 12.7262 65.3371 13.1338C65.2915 13.4056 65.2002 13.7226 65.1545 13.9943C65.1088 14.2208 64.8806 14.3114 64.6979 14.3114C64.013 14.2661 63.3282 14.2208 62.6433 14.0849C62.415 14.0396 62.2324 13.9038 62.0497 13.7679C61.8214 13.5867 61.8671 13.2697 61.9128 12.998C61.9584 12.7715 62.0497 12.5451 62.0954 12.2734C62.1867 11.6846 62.2324 11.0958 62.3237 10.5524C62.3693 10.2806 62.4607 10.0089 62.5063 9.78245C62.5063 9.69187 62.5063 9.60129 62.552 9.51072C62.5976 9.37485 62.689 9.23898 62.689 9.1484C62.7346 8.92196 62.8259 8.69551 62.8716 8.42378C62.9172 8.15204 62.9172 7.88031 63.0086 7.56328C63.1455 6.79337 63.3282 6.02345 63.4195 5.25354C63.4651 5.02709 63.5108 4.75536 63.5565 4.52891C63.5565 4.30247 63.5108 4.12131 63.5565 3.94015C63.6478 3.44197 63.4651 3.48726 63.0542 3.39668C62.5063 3.30611 61.9128 3.21553 61.4105 3.12495C61.1822 3.07966 60.7256 2.8985 60.7256 2.67206C60.7256 2.35503 60.7256 2.0833 60.7713 1.76628L60.817 1.58512C60.9083 1.13223 60.9539 0.634048 61.1366 0.181157C61.1366 0.0452891 61.2735 0 61.3649 0C61.6388 0.0452891 61.8214 0.0452891 62.0954 0.0452891H62.1411C62.3237 0.0905783 62.5063 0.135867 62.689 0.181157C63.0542 0.271735 63.4651 0.317024 63.8761 0.362313C64.15 0.543469 64.6066 0.588759 64.9262 0.679337C65.3371 0.769915 65.7481 0.724626 66.159 0.815204C66.2503 0.815204 66.3416 0.860493 66.4329 0.905782C66.6156 0.951072 66.8439 0.905782 67.0265 0.951072L68.168 1.17752C68.6702 1.2681 69.1268 1.44925 69.629 1.49454L69.903 1.53983C70.5878 1.6757 70.4509 2.21917 70.3139 2.71735C70.2226 3.17024 70.0856 4.07602 69.8573 4.39304Z" fill="#fff"/>
<path d="M74.5145 13.949L73.4187 16.5758C73.2817 16.8928 73.0534 17.1646 72.6425 17.0287L72.1403 16.8023C71.6837 16.6211 71.3184 16.3946 70.9075 16.2588C70.4966 16.0776 70.2683 15.5342 70.4052 15.1266C70.4966 14.9454 70.5422 14.719 70.5879 14.5378C70.6792 14.3566 70.8162 14.1755 70.9075 13.9943C70.9988 13.7226 71.0445 13.4509 71.1358 13.1791C71.2271 12.9527 71.3641 12.7262 71.4554 12.4545C71.912 11.4581 72.3685 10.4165 72.7795 9.42013C72.9164 9.05781 73.0078 8.74079 73.1447 8.37848C73.2361 8.19732 73.3274 7.97087 73.4187 7.78972L73.51 7.56327C73.5557 7.4274 73.647 7.33683 73.6926 7.20096C73.7383 7.0198 73.784 6.88393 73.8296 6.74807L74.1492 5.97815C74.4232 5.25353 74.7428 4.48361 75.1537 3.80427C75.3363 3.53254 75.519 3.53254 75.7929 3.66841L76.0212 3.75899C76.2952 3.84956 76.5691 3.94014 76.8431 4.07601C77.117 4.21188 77.4366 4.30246 77.7106 4.43832C78.0302 4.61948 78.0758 4.71006 77.9845 5.02708C77.9845 5.11766 77.9389 5.20824 77.8932 5.25353C77.6649 5.75171 77.4823 6.29518 77.2996 6.79336C77.1627 7.20096 77.0257 7.60856 76.8887 7.97087C76.7974 8.19732 76.7061 8.37848 76.6148 8.60492C76.5235 8.87666 76.3865 9.14839 76.2952 9.42013C76.1582 9.73715 75.9756 10.0089 75.8842 10.3259C75.7929 10.5524 75.7929 10.7788 75.7016 11.0052C75.6103 11.1864 75.5646 11.4128 75.4733 11.594C75.382 11.7752 75.245 11.9563 75.1537 12.1828C75.0167 12.4998 74.9711 12.8168 74.8341 13.1338C74.7884 13.4509 74.6058 13.6773 74.5145 13.949Z" fill="#fff"/>
<path d="M90.7688 16.2588C90.6319 16.3947 90.4949 16.5305 90.3579 16.7117C90.2209 16.8475 90.1296 17.074 89.9927 17.2099C89.9013 17.3004 89.81 17.391 89.7187 17.5269C89.5817 17.708 89.4448 17.9345 89.3078 18.1609C89.2165 18.2968 89.0795 18.4327 88.9882 18.5685C88.9425 18.6138 88.8969 18.7044 88.8512 18.795C88.7599 18.8856 88.6686 19.0214 88.5772 19.112C88.4859 19.2026 88.4859 19.3837 88.3946 19.5196C88.3033 19.6555 88.075 19.8366 87.8924 20.0631C87.5728 20.4707 87.3445 20.8783 87.0249 21.2859C86.8879 21.467 86.7052 21.6029 86.5683 21.7841C86.477 21.9199 86.3856 22.0558 86.2943 22.237C86.2487 22.2822 86.1573 22.3728 86.1117 22.4634C85.9291 22.7351 85.7921 23.0069 85.6094 23.2333L85.2442 23.6862C85.1529 23.7768 85.1072 23.9579 85.0159 24.0938C84.8333 24.3203 84.5593 24.4561 84.331 24.275C84.0571 24.0938 83.7831 23.9127 83.5092 23.7315C83.1895 23.5051 82.8699 23.2333 82.596 22.9163C82.3677 22.6898 82.322 22.4634 82.322 22.1464C82.2764 21.6029 82.2764 21.1047 82.322 20.5613C82.3677 20.1084 82.322 19.7008 82.322 19.2932C82.2764 18.7044 82.322 18.1609 82.2764 17.5722C82.2307 17.2099 82.322 16.3947 82.322 15.9871C82.322 15.7153 82.322 15.3983 82.322 15.1266H82.2764C82.2307 15.2171 82.1394 15.3077 82.0481 15.3983C81.9111 15.5795 81.8198 15.7606 81.6828 15.9418C81.5458 16.1229 81.4089 16.2588 81.3176 16.4399C81.1349 16.6664 80.998 16.9381 80.861 17.1193C80.2674 17.9345 79.7195 18.8403 79.0803 19.6555L78.8977 19.8819C78.6237 20.1989 78.0302 19.7461 77.8019 19.5649C77.6649 19.429 77.5736 19.2932 77.3909 19.2026C77.2083 19.0667 76.98 18.9761 76.7974 18.8403C76.4778 18.6138 76.2038 18.2515 76.4778 17.8892C76.5234 17.7986 76.6147 17.7533 76.6604 17.6628C76.843 17.4363 76.98 17.1646 77.1626 16.9381C77.3453 16.6664 77.5736 16.4399 77.7562 16.1682C78.0302 15.7606 78.3041 15.353 78.5781 14.9454C78.715 14.7642 78.852 14.6284 78.989 14.4472C79.0346 14.4019 79.0803 14.2661 79.126 14.2208C79.1716 14.1755 79.2629 14.0849 79.3086 14.0396C79.3999 13.949 79.4456 13.7679 79.5369 13.6773C79.5825 13.632 79.6282 13.5414 79.6739 13.4962C79.8565 13.2244 79.9935 12.9527 80.1761 12.7262C80.2218 12.6357 80.3131 12.5451 80.4044 12.4545C80.5414 12.2733 80.6327 12.0922 80.7697 11.911C80.9066 11.7752 80.9979 11.6393 81.1349 11.5034C81.2719 11.3676 81.3176 11.1864 81.4545 11.0052C81.5002 10.9147 81.5915 10.8694 81.6372 10.7788C81.7741 10.5524 81.9111 10.3712 82.0481 10.1448L82.6873 9.28426C82.8243 9.10311 83.0069 8.92195 83.1439 8.78608C83.4178 8.51435 83.6005 8.15203 83.8288 7.8803C83.9201 7.74443 84.0571 7.65385 84.2397 7.69914C84.5593 7.78972 84.8789 7.8803 85.1529 8.06146C85.3812 8.19732 85.5181 8.42377 85.7008 8.65022C85.8377 8.87666 85.8377 9.1484 85.8377 9.42013C85.7464 10.0995 85.7008 10.7788 85.6551 11.5034C85.6094 12.1375 85.5638 17.2551 85.7464 17.708C85.8834 17.5722 85.9747 17.4363 86.1117 17.3004L88.4403 14.0849C88.5316 13.9943 88.6229 13.8585 88.6229 13.7679C88.7599 13.4962 88.9425 13.2244 89.1708 12.9527C89.3534 12.7262 89.81 12.0469 89.9927 11.911C90.084 11.7752 90.2666 11.7752 90.4036 11.8657C90.9971 12.2733 91.545 12.7262 92.1386 13.1791C92.2756 13.2697 92.4125 13.4509 92.4125 13.5867C92.5039 13.7679 92.4125 13.8585 92.3212 13.9943C92.1386 14.2661 91.9103 14.4925 91.7277 14.7642C91.545 14.9907 91.4081 15.2624 91.2711 15.4889C91.1341 15.67 90.9971 15.8965 90.8602 16.0776C90.9058 16.1229 90.8602 16.1682 90.7688 16.2588Z" fill="#fff"/>
<path d="M3.92661 51.4031C3.92661 51.4937 3.83529 51.539 3.74398 51.5843C3.51568 51.6296 2.5112 51.6749 2.23725 51.6749C1.9633 51.6749 1.46106 51.4937 1.46106 51.1314C1.46106 50.6785 1.55237 50.2709 1.55237 49.818C1.55237 49.6369 1.50671 49.501 1.50671 49.3198C1.50671 49.184 1.50671 49.0028 1.50671 48.8669C1.50671 48.5499 1.46106 48.2329 1.46106 47.9612C1.46106 47.5083 1.55237 47.1007 1.55237 46.6478C1.55237 46.5572 1.55237 46.4213 1.55237 46.3307C1.55237 46.1949 1.59803 46.0137 1.59803 45.8779C1.59803 45.6514 1.55237 45.4703 1.55237 45.2438C1.55237 45.0174 1.59803 44.7909 1.59803 44.5645L1.4154 44.655C1.23276 44.7456 1.00447 44.9268 0.77618 44.9268C0.319596 44.9268 0.273938 44.4739 0.22828 44.1569C0.22828 43.9757 0.136963 43.7946 0.136963 43.6134C0.136963 43.3417 0.273938 43.1152 0.50223 42.9794C0.730522 42.7982 0.958814 42.5717 1.18711 42.3906C1.55237 42.0736 1.91764 41.7113 2.28291 41.4395C2.5112 41.3037 2.69383 41.2131 2.96778 41.2131C3.47003 41.2131 3.88095 41.3942 3.88095 41.9377C3.92661 42.5265 3.97227 43.1152 3.97227 43.7493C3.97227 44.5645 3.92661 45.3797 3.92661 46.1949C3.92661 47.6441 4.01793 49.0481 4.01793 50.4973C3.97227 50.7238 3.97227 51.1314 3.92661 51.4031Z" fill="#fff"/>
<path d="M12.9213 47.5988C12.9213 47.7347 12.83 47.8706 12.83 48.0517L12.693 48.5499C12.5561 49.0028 12.1908 49.7727 11.9168 50.135L11.4146 50.7238C11.3689 50.7691 11.3233 50.8144 11.2776 50.8597C11.0037 50.9502 10.8667 51.1767 10.6384 51.3126C10.2731 51.539 9.86221 51.6296 9.45129 51.6296C9.17734 51.6296 8.94904 51.6749 8.72075 51.6749C8.53812 51.6749 8.08154 51.4937 7.8989 51.4484C7.62495 51.4031 7.39666 51.2673 7.21403 51.1314C6.52915 50.6785 6.20954 50.3162 6.07257 49.4557C6.07257 49.4104 6.07257 49.3651 6.07257 49.3651C6.07257 48.8216 6.75744 48.8216 7.07705 48.6858C7.30534 48.5499 7.53363 48.5046 7.76193 48.5046C8.40114 48.5046 8.08154 49.184 8.58378 49.3651C8.72075 49.4104 8.94904 49.501 9.13168 49.501C9.63392 49.501 10.0905 48.9575 10.1362 48.4593C10.1362 48.414 10.1362 48.414 10.1362 48.3688C10.2275 48.2329 10.3188 47.9159 10.3188 47.78C10.3188 47.7347 10.3188 47.6894 10.2731 47.5988C9.63392 47.8706 9.35997 48.0517 8.62944 48.0517C8.12719 48.0517 7.351 47.8706 6.89442 47.5536L6.8031 47.5083C5.88993 47.0554 5.43335 45.8326 5.43335 44.9268C5.43335 44.7909 5.43335 44.655 5.47901 44.5192C5.47901 44.3833 5.47901 44.2022 5.52467 44.0663C5.75296 42.8435 6.30086 41.983 7.48798 41.5301C8.30983 41.1678 8.40114 41.1225 9.35997 41.1225C9.86221 41.1225 10.4558 41.2131 10.9124 41.3489C11.1863 41.3942 11.3689 41.5301 11.5516 41.7113C11.7799 41.9377 11.9625 42.2094 12.1451 42.4812C12.1451 42.5265 12.1451 42.5265 12.1908 42.5265C12.5561 42.9341 12.8757 43.704 12.9213 44.2474C12.967 44.6098 13.0583 44.9721 13.0583 45.3797C13.0583 45.6514 13.104 45.8779 13.104 46.1043C13.104 46.6025 13.0126 47.1007 12.9213 47.5988ZM9.17734 43.2964C9.13168 43.2964 9.08602 43.2964 9.04036 43.2964C8.40114 43.2964 7.85324 43.8851 7.85324 44.5192C7.85324 44.655 7.8989 44.8362 7.94456 44.9721C8.12719 45.6061 8.53812 45.9231 9.17734 45.9231C9.86221 45.9231 10.2275 45.3344 10.3645 44.7456C10.4101 44.655 10.4101 44.5192 10.4101 44.4286C10.4558 43.704 9.7709 43.4322 9.17734 43.2964Z" fill="#fff"/>
<path d="M103.918 49.2745C103.873 49.4557 103.781 49.6821 103.781 49.8633C103.781 49.9539 103.781 49.9992 103.736 50.0445C103.371 50.5879 102.914 51.0408 102.366 51.4031C102.275 51.4484 101.544 51.6749 101.453 51.7201C101.133 51.7654 100.768 51.7654 100.448 51.7654C100.174 51.7654 99.9462 51.7654 99.7179 51.7201C98.8504 51.5843 98.5764 51.4937 97.7546 51.0861C97.5719 50.9955 97.4806 50.9502 97.3893 50.7691C97.3436 50.6785 97.2523 50.6332 97.2067 50.5426C96.9784 50.135 96.7957 49.7274 96.7044 49.3198C96.6588 49.2292 96.6131 49.1387 96.6131 49.0481C96.6131 48.6405 96.6588 48.2329 96.7044 47.8253C96.7501 47.5988 96.8414 47.3724 96.9327 47.1912C97.024 47.0554 97.1153 46.9195 97.161 46.7836C97.298 46.5572 97.4806 46.3307 97.7089 46.1496C97.5263 45.8779 97.1153 45.3797 97.0697 45.1079C96.9784 44.7456 96.9327 44.3833 96.9327 44.021C96.9327 43.2058 97.3436 42.617 97.9372 42.0283C98.1198 41.8471 98.3938 41.8018 98.5764 41.6207C98.896 41.3489 99.3526 41.2584 99.7635 41.1678C99.8092 41.1678 99.9005 41.1225 99.9462 41.1225C99.9918 41.1225 100.037 41.1225 100.083 41.1225C100.357 41.1225 100.631 41.0319 100.905 41.0319C101.179 41.0319 101.499 41.0319 101.727 41.1678C101.909 41.2584 102.092 41.3037 102.275 41.4395C102.503 41.5301 102.64 41.7113 102.823 41.8924C103.371 42.3453 103.644 43.2511 103.644 43.9304C103.644 44.5645 103.508 45.3344 103.188 45.8779C103.142 45.9684 103.005 46.1043 103.005 46.1949C103.005 46.2402 103.051 46.2855 103.051 46.3307C103.188 46.4213 103.279 46.5119 103.371 46.6931C103.69 47.1912 104.01 47.6894 104.01 48.2782C104.055 48.5952 104.01 48.9575 103.918 49.2745ZM100.403 47.4177C99.7635 47.4177 98.9417 47.78 98.9417 48.5046C98.9417 49.3198 99.8548 49.7274 100.585 49.7274C101.179 49.7274 101.772 49.2745 101.772 48.6858C101.772 48.0064 101.042 47.4177 100.403 47.4177ZM100.311 43.3417C99.8548 43.3417 99.2613 43.5228 99.2613 44.0663C99.2613 44.7003 99.8548 45.0174 100.403 45.0174C100.905 45.0174 101.316 44.5192 101.316 44.0663C101.316 43.5681 100.722 43.3417 100.311 43.3417Z" fill="#fff"/>
<path d="M112 48.2782C112 48.5499 111.909 48.7764 111.863 49.0028C111.726 49.5916 111.406 50.3162 111.041 50.7691C110.95 50.8597 110.402 51.222 110.219 51.3126C110.037 51.4031 109.352 51.539 109.124 51.5843C108.895 51.6296 108.713 51.6749 108.484 51.6749C107.982 51.6749 107.48 51.6296 107.023 51.539C106.521 51.4031 105.38 50.8597 105.106 50.4068C105.06 50.3162 104.969 50.1803 104.969 50.0445V49.9992C104.969 49.9086 105.06 49.7274 105.151 49.6822C105.517 49.4104 105.882 49.1387 106.247 48.9122C106.338 48.8217 106.475 48.7764 106.567 48.7764C106.795 48.7764 106.932 48.9575 107.069 49.0934C107.343 49.4104 107.708 49.4104 108.073 49.4557C108.119 49.4557 108.165 49.4557 108.21 49.4557C108.347 49.4557 108.53 49.4104 108.667 49.3651C108.941 49.3198 109.078 49.1387 109.306 48.9575C109.534 48.7311 109.58 48.4594 109.58 48.1423C109.58 47.3724 109.352 46.4213 108.484 46.3308C108.347 46.2855 108.21 46.2855 108.073 46.2855C107.48 46.2855 107.48 46.5119 107.206 46.5119C107.115 46.5119 106.978 46.5119 106.886 46.5119C106.612 46.5119 106.338 46.5119 106.11 46.5572C106.064 46.5572 106.064 46.5572 106.019 46.5572C105.745 46.5572 105.517 46.4666 105.517 46.1496C105.517 45.5156 105.517 44.9268 105.517 44.2928C105.517 43.7946 105.517 43.2964 105.471 42.7982C105.471 42.5718 105.425 42.3453 105.425 42.1189C105.425 41.7566 105.608 41.1678 106.019 41.1225C106.201 41.1225 106.384 41.0772 106.567 41.0772C106.932 41.0319 107.297 41.0772 107.662 41.0772C108.028 41.0772 108.393 41.1225 108.758 41.1225C109.078 41.1225 109.397 41.0772 109.717 41.0772C109.9 41.0772 110.128 41.0772 110.311 41.0772C110.585 41.0772 110.813 41.1678 111.041 41.2131C111.224 41.2584 111.315 41.349 111.315 41.5754C111.315 41.8471 111.361 42.1189 111.361 42.3453C111.361 42.4812 111.361 42.5718 111.361 42.6623C111.361 42.7529 111.406 42.8888 111.406 42.9794V43.0247C111.315 43.387 110.904 43.387 110.63 43.387C110.037 43.387 109.489 43.3417 108.941 43.3417C108.667 43.3417 108.347 43.387 108.028 43.387C107.936 43.387 107.891 43.387 107.845 43.4776C107.799 43.704 107.845 43.9757 107.845 44.2022C108.302 44.2475 108.895 44.2022 109.352 44.2928C110.082 44.3833 111.041 44.6551 111.452 45.2891C111.589 45.5156 111.726 45.7873 111.863 46.0137C111.954 46.1949 111.954 46.4213 111.954 46.6025C111.954 46.9648 112.091 47.3271 112.091 47.6894C112 47.9612 112 48.097 112 48.2782Z" fill="#fff"/>
<path d="M57.1643 62.1366C57.3013 63.4047 56.8447 64.8087 57.3926 65.9409C57.4839 66.0315 57.3469 66.3485 57.2099 66.5297C57.0273 66.9373 56.8447 66.3938 56.662 66.4844C53.9682 67.1637 50.9547 66.3485 48.3066 66.9373C44.3343 66.6203 42.4166 65.6692 39.7684 62.5895C39.0836 62.0914 38.9466 62.0914 38.5357 62.8613C37.7595 64.6728 36.755 66.3938 35.5222 67.9789C34.1525 69.6094 34.4264 72.3267 34.746 74.3194C35.2939 76.0404 37.0289 76.9009 37.7595 78.486C38.4443 80.7958 31.6412 78.8483 32.1435 76.6292C31.9609 73.1872 29.5866 70.1075 29.541 66.6656C30.1345 64.2199 29.9975 61.729 29.0844 59.374C28.3082 57.9701 27.8973 54.7545 27.0754 58.1965C26.7558 60.9591 26.3905 63.9935 23.651 65.3975C22.7835 64.7634 24.1989 64.3105 23.1488 63.9482C22.6009 63.3595 23.0118 62.5442 23.1488 61.9102C23.0575 60.3251 24.7925 59.691 25.1578 58.2418C25.386 56.6114 25.2034 54.8904 26.2079 53.5317C26.3905 49.501 29.9062 47.1007 33.6959 46.6478C45.9323 44.4739 57.8948 36.7295 70.5878 38.5863C73.9209 39.2204 75.9755 44.4286 78.3041 44.2927C79.7195 44.0663 82.596 46.0137 82.2307 43.3417C82.1851 42.7529 82.3677 40.7149 83.1896 41.7565C83.7375 42.7076 83.6005 44.5645 84.6963 44.9721C87.0249 44.8815 88.212 47.3724 88.6229 49.2745C88.212 51.6296 89.947 54.0299 89.3534 56.2038C89.1251 57.6983 89.9013 59.7363 89.0795 60.9591C84.9702 64.1294 87.0249 62.6801 85.3355 66.6656C84.3767 68.7941 79.7652 61.729 77.1626 63.3595C74.1492 63.9029 72.2772 66.7561 69.3094 67.6166C68.9898 67.7525 68.9441 67.9789 69.1724 68.296C69.4007 68.613 68.9441 68.93 69.0811 69.2923C69.3551 70.4246 68.9441 71.5568 69.3551 72.689C69.629 73.3683 69.1268 74.2288 69.5834 74.9535C69.2637 75.2252 69.5377 75.4969 69.5377 75.7687C69.492 76.1763 69.3551 76.6292 69.1724 76.9915C68.5789 77.7161 68.3962 79.2559 67.5744 79.573C66.7069 79.5277 64.9262 77.8973 64.9262 77.0368C64.8805 76.2669 65.3828 75.5875 65.3828 74.8629C64.8349 73.4589 62.5976 72.5079 61.7758 70.968C60.4517 69.247 57.9405 67.8431 57.9861 65.4428C58.0318 65.1257 57.9405 64.8087 58.0318 64.4917C58.1231 64.1747 57.6209 64.0388 57.9405 63.7218C58.1688 63.45 57.8492 63.1783 57.8035 62.9066C57.8492 61.4573 57.7122 60.0081 57.5295 58.5588C57.5295 58.5135 57.3469 58.4229 57.2556 58.4229C56.8447 59.5099 57.3013 61.0044 57.1643 62.1366ZM83.0982 43.3417C82.8243 45.3344 82.4134 46.9195 82.2764 48.9122C82.2307 50.5879 84.0114 51.0861 84.4223 49.2745C84.5136 47.1912 83.9657 45.3344 83.0982 43.3417Z" fill="#fff"/>
<path d="M27.8059 58.5135C29.2213 61.1856 29.3583 63.9935 28.6734 66.892C26.7558 70.1981 25.2947 74.6365 27.9886 78.1237C29.6323 80.3882 24.2446 79.9806 23.8336 78.7125C23.4684 77.9426 23.6967 77.0821 23.3314 76.3121C23.788 75.8593 23.0575 75.4969 23.3314 75.0441C23.8793 74.8176 23.1488 74.5006 23.4227 74.1836C23.2857 72.7343 23.1031 71.1492 23.514 69.6094C23.7423 68.2054 23.651 66.0768 25.0664 65.3522C26.0253 64.9446 26.2079 63.8576 27.0297 63.3595C27.4863 61.7743 27.6233 60.1892 27.8059 58.5135Z" fill="#fff"/>
<path d="M61.5018 79.5277C57.9861 79.4824 57.8035 78.0331 57.6209 74.9988C57.0273 72.4173 54.2878 70.4246 54.4248 67.7072C54.8813 67.8431 55.2466 67.209 55.7032 67.5261C56.2511 67.9337 56.799 67.2543 57.4382 67.4808C58.808 69.3376 61.6388 71.0133 61.4562 73.5948C60.9539 76.5386 65.885 79.7994 61.5018 79.4371C61.5018 79.4824 61.5018 79.4824 61.5018 79.5277Z" fill="#fff"/>
<path d="M46.7998 28.8492C46.7998 28.985 46.7998 29.0756 46.7998 29.2115C46.7998 29.4832 46.7085 29.4379 46.6628 29.6644C46.6172 29.8455 46.4802 30.0267 46.3432 30.1625C46.2519 30.2531 46.1149 30.389 46.0236 30.4796C46.0236 30.5249 45.978 30.5249 45.978 30.5249C45.7953 30.6154 45.6584 30.6607 45.4757 30.706C45.3388 30.7513 44.7908 30.7966 44.6082 30.7966C44.2886 30.7966 43.969 30.706 43.6951 30.6607C43.5124 30.6154 43.3754 30.5701 43.2385 30.4796L42.9189 30.389C42.5993 30.2078 42.4166 30.072 42.234 29.7549C42.1427 29.6191 42.0514 29.4379 41.96 29.302C41.9144 29.1662 41.8231 28.8944 41.8231 28.7586C41.8231 28.4416 42.2796 28.4416 42.5079 28.4416C42.7362 28.4416 43.0102 28.4416 43.2841 28.4416C43.4668 28.4416 43.5124 28.8039 43.6037 28.9397C43.6951 29.2568 44.243 29.4379 44.5626 29.4379C44.9735 29.4379 45.2931 29.2568 45.2931 28.8039C45.2931 28.668 45.2474 28.5774 45.1105 28.4868C44.7909 28.2604 43.6494 27.9887 43.2385 27.8528C43.1472 27.8528 43.0558 27.8075 42.9645 27.8075C42.9189 27.8075 42.8275 27.7622 42.7819 27.7169C42.6906 27.6263 42.5536 27.4905 42.4623 27.3999C42.234 27.1735 42.0514 26.63 42.0514 26.313C42.0514 26.1771 42.097 25.8601 42.1427 25.7242C42.1883 25.5883 42.234 25.4978 42.2796 25.3619C42.3253 25.1807 42.4623 25.0902 42.5993 24.9543C42.6449 24.8637 42.9645 24.592 43.0102 24.592C43.5124 24.4108 43.832 24.2749 44.3799 24.2749C44.4712 24.2749 44.5626 24.2749 44.6995 24.3202C44.8365 24.3655 44.9278 24.3655 45.0648 24.3655C45.2931 24.4108 45.7953 24.592 45.978 24.7731C46.0236 24.8184 46.0693 24.8637 46.1149 24.909C46.1606 25.0449 46.2519 25.1354 46.2976 25.226C46.4802 25.4525 46.5259 25.8601 46.5259 26.1318C46.5259 26.1771 46.5259 26.2224 46.5259 26.2677C46.5259 26.4488 46.4346 26.5394 46.2519 26.5847C46.1149 26.5847 46.0236 26.63 45.8867 26.63C45.6584 26.63 45.2474 26.63 45.0648 26.4941C45.0191 26.4488 44.9735 26.4488 44.9735 26.3583C44.9278 26.1318 44.8365 25.7695 44.6082 25.6789C44.4712 25.6336 44.3799 25.5883 44.243 25.5883C44.106 25.5883 43.969 25.6336 43.8777 25.6789C43.7864 25.7242 43.7864 25.7695 43.7407 25.8148C43.6951 25.9054 43.6494 25.9506 43.6494 26.0412C43.6494 26.4035 43.969 26.4488 44.243 26.5847C44.9735 26.9017 45.978 26.9017 46.4345 27.5811C46.5259 27.6716 46.6628 27.8075 46.7542 27.8981C46.8455 28.0792 46.9368 28.2604 46.9368 28.4416C46.8455 28.6227 46.7998 28.7586 46.7998 28.8492Z" fill="#fff"/>
<path d="M49.9046 29.1662V30.5249C49.9046 30.706 49.8589 30.8419 49.6307 30.8419H49.3567C49.1284 30.8419 48.9001 30.7966 48.6718 30.7966C48.4435 30.7966 48.2152 30.6154 48.2152 30.389C48.2152 30.2984 48.2152 30.2078 48.2152 30.1173C48.2152 30.0267 48.2609 29.9361 48.2609 29.8455C48.2609 29.7097 48.2152 29.5738 48.2152 29.4379C48.2152 29.3021 48.2152 29.2115 48.2152 29.0756C48.2152 28.5321 48.2609 28.034 48.2609 27.4905C48.2609 27.3093 48.2609 27.1282 48.2609 26.9923C48.2609 26.9017 48.2609 26.7659 48.2609 26.6753V26.5394C48.2609 26.4941 48.2609 26.4035 48.2609 26.3583C48.2609 26.2677 48.2609 26.2224 48.2609 26.1318V25.7242C48.2609 25.3619 48.2609 24.9543 48.3066 24.592C48.3066 24.4561 48.4435 24.4108 48.5805 24.4108H48.7175C48.8545 24.4108 48.9914 24.4108 49.1284 24.4108C49.2654 24.4108 49.448 24.4108 49.585 24.4108C49.7676 24.4108 49.8133 24.4561 49.8133 24.6373C49.8133 24.6826 49.8133 24.7279 49.8133 24.7731C49.8133 25.0449 49.8133 25.3166 49.8133 25.5883C49.8133 25.8148 49.8589 25.9959 49.8589 26.1771C49.8589 26.2677 49.8589 26.4035 49.8589 26.4941C49.8589 26.63 49.8589 26.7659 49.8589 26.9017C49.8589 27.0376 49.8133 27.2188 49.8133 27.3546C49.8133 27.4452 49.8589 27.5811 49.8589 27.6716C49.8589 27.7622 49.8589 27.8528 49.8589 27.9887C49.8589 28.0792 49.8133 28.2151 49.8133 28.3057C49.8133 28.4416 49.8589 28.6227 49.8589 28.7586C49.9046 28.8945 49.9046 29.0303 49.9046 29.1662Z" fill="#fff"/>
<path d="M56.662 25.9507C56.662 26.0412 56.6164 26.1318 56.6164 26.2224C56.6164 26.313 56.6164 26.4035 56.6164 26.5394C56.6164 26.5847 56.6164 26.6753 56.6164 26.7206C56.6164 26.8112 56.6164 26.947 56.6164 27.0829C56.6164 27.1735 56.6164 27.264 56.6164 27.3093C56.6164 27.3546 56.6164 27.3999 56.6164 27.4452C56.6164 27.4905 56.6164 27.5811 56.6164 27.6716C56.6164 27.7169 56.662 27.8075 56.662 27.8528C56.662 27.9434 56.6164 28.0792 56.6164 28.2151C56.6164 28.4416 56.6164 28.668 56.6164 28.9397C56.6164 29.0303 56.5707 29.1662 56.5707 29.2568C56.5707 29.3473 56.5707 29.4379 56.5707 29.4832C56.5707 29.5285 56.5707 29.5738 56.5707 29.6191C56.5707 29.7549 56.6164 29.9361 56.6164 30.072V30.3437C56.6164 30.389 56.6164 30.4796 56.6164 30.5702C56.6164 30.706 56.5707 30.8419 56.3881 30.8419C56.2054 30.8419 56.0685 30.8419 55.8858 30.8419C55.7032 30.8419 55.4749 30.7966 55.2923 30.7966C55.1553 30.7966 55.064 30.706 54.9727 30.5702C54.79 30.389 54.6531 30.1625 54.5161 29.9814C54.3791 29.8002 54.2878 29.6644 54.1508 29.4832C53.9682 29.2568 53.8312 29.0303 53.6486 28.8492C53.5116 28.7133 53.329 28.3963 53.2377 28.2151C53.1463 28.1245 53.055 27.9887 52.9637 27.8981H52.918C52.918 27.9434 52.918 27.9887 52.918 28.034C52.918 28.1245 52.918 28.2604 52.918 28.351C52.918 28.4416 52.918 28.5774 52.918 28.668C52.918 28.8039 52.918 28.9397 52.918 29.0756C52.918 29.5738 52.9637 30.072 52.9637 30.5249V30.6607C52.9637 30.8419 52.5984 30.8419 52.4158 30.8419C52.3245 30.8419 52.2332 30.7966 52.1419 30.7966C52.0505 30.7966 51.9136 30.8419 51.8222 30.8419C51.6396 30.8419 51.4113 30.7513 51.4113 30.5702C51.4113 30.5249 51.4113 30.4796 51.4113 30.4343C51.4113 30.2984 51.4113 30.1626 51.4113 30.0267C51.4113 29.8908 51.4113 29.7097 51.4113 29.5738C51.4113 29.3473 51.4113 29.1209 51.4113 28.8945C51.4113 28.8039 51.4113 28.7133 51.4113 28.5774C51.4113 28.5321 51.4113 28.4869 51.4113 28.4416C51.4113 28.3963 51.4113 28.351 51.4113 28.3057C51.4113 28.2604 51.4113 28.1698 51.4113 28.1245C51.4113 28.0792 51.4113 28.034 51.4113 28.034C51.4113 27.8981 51.3657 27.7622 51.3657 27.5811C51.3657 27.5358 51.3657 27.4905 51.3657 27.3999C51.3657 27.3093 51.3657 27.1735 51.3657 27.0829C51.3657 26.9923 51.3657 26.9017 51.3657 26.8112C51.3657 26.7206 51.3657 26.63 51.3657 26.5394C51.3657 26.4941 51.3657 26.4488 51.3657 26.4035C51.3657 26.2677 51.3657 26.1771 51.3657 26.0412V25.5431C51.3657 25.4525 51.3657 25.3166 51.4113 25.226C51.457 25.0449 51.4113 24.8637 51.4113 24.6826C51.4113 24.592 51.457 24.5467 51.5483 24.5014C51.6853 24.4561 51.8679 24.4108 52.0505 24.4108C52.1875 24.4108 52.2788 24.4561 52.4158 24.5014C52.5528 24.5467 52.6441 24.6373 52.6898 24.7731C52.8724 25.0449 53.0094 25.3619 53.192 25.6336C53.3746 25.9054 54.8357 27.8528 55.0183 27.9887C55.0183 27.8981 55.0183 27.8075 55.0183 27.7169V25.8601C55.0183 25.8148 55.0183 25.7242 55.0183 25.6789C54.9727 25.5431 54.9727 25.3619 54.9727 25.226C54.9727 25.0902 54.9727 24.6826 54.9727 24.592C54.9727 24.5014 55.0183 24.4561 55.1096 24.4561C55.4749 24.4561 55.8402 24.4561 56.1598 24.4561C56.2511 24.4561 56.3424 24.5014 56.3881 24.5467C56.4794 24.592 56.4794 24.6373 56.4794 24.7279C56.4794 24.8637 56.4794 25.0449 56.4794 25.1807C56.4794 25.3166 56.4794 25.4525 56.4794 25.5883C56.4794 25.7242 56.4794 25.8148 56.4794 25.9507C56.662 25.8601 56.662 25.9054 56.662 25.9507Z" fill="#fff"/>
<path d="M63.0542 26.1771C63.0085 26.2224 62.9629 26.2677 62.9172 26.2677C62.8716 26.2677 62.5976 26.0865 62.552 26.0412C62.278 25.8601 62.2323 25.9507 62.0497 25.8601C61.9127 25.8148 61.7301 25.7695 61.5475 25.7695C61.3648 25.7695 60.9996 25.8148 60.8169 25.9054C60.68 25.9507 60.4973 25.9507 60.406 26.0412C60.1777 26.2224 59.9494 26.4488 59.8125 26.6753C59.7668 26.7659 59.7668 26.9017 59.7211 26.947C59.6298 27.0829 59.6298 27.264 59.6298 27.4452C59.6298 27.5358 59.6298 27.6716 59.6298 27.7622L59.6755 27.9887C59.7211 28.3057 59.8125 28.4416 59.9951 28.7133C60.1321 28.8945 60.3604 28.985 60.543 29.0756C60.7713 29.1662 61.0452 29.2568 61.3192 29.2568C61.5018 29.2568 61.6388 29.1662 61.6845 29.1662C61.9127 29.1662 62.2324 29.0303 62.3693 28.8492C62.4606 28.7586 62.552 28.7586 62.6889 28.7586C62.7346 28.7586 62.7803 28.7586 62.8259 28.7586C63.0085 28.8039 63.0085 29.3473 63.0085 29.4832C63.0085 29.5738 63.0542 29.6191 63.0542 29.7097C63.0542 29.9361 63.0085 30.2078 62.7802 30.2984C62.7346 30.3437 62.6889 30.3437 62.6433 30.389C62.3237 30.6607 61.8214 30.706 61.4105 30.706C61.0452 30.706 60.68 30.6154 60.3147 30.5702C60.0864 30.5249 59.5842 30.2078 59.3102 30.1173C59.2189 30.072 58.808 29.7097 58.7167 29.6191C58.5797 29.5285 58.4884 29.3926 58.3971 29.2568L58.1688 28.8945C58.1231 28.7586 58.0774 28.6227 57.9861 28.4868C57.8948 28.351 57.8948 28.1698 57.8948 28.034C57.8492 27.8981 57.8035 27.7169 57.8035 27.5811C57.8035 27.3546 57.8035 26.9923 57.8492 26.7206C57.8492 26.5847 57.9405 26.4941 57.9405 26.3583C57.9405 26.2677 57.9861 26.1771 58.0318 26.0865C58.0774 25.9959 58.1231 25.9054 58.1688 25.8148C58.2144 25.6789 58.3057 25.4978 58.3971 25.3619C58.4884 25.226 58.7623 24.8637 58.8993 24.7731L59.2646 24.5467C59.3559 24.5014 59.4929 24.5014 59.5842 24.4108C59.6298 24.3655 59.7211 24.3655 59.7668 24.3202C60.0864 24.2297 60.406 24.1391 60.7256 24.0938C60.7713 24.0938 60.8626 24.0485 60.9539 24.0485C60.9996 24.0485 61.0909 24.0485 61.1822 24.0485C61.3192 24.0485 61.4562 24.0485 61.5931 24.0485C61.7758 24.0485 61.9127 24.1391 62.0497 24.1391C62.0954 24.1391 62.0954 24.1391 62.141 24.1391C62.278 24.1391 62.6889 24.275 62.8259 24.3655C62.9172 24.4108 62.9629 24.4561 62.9629 24.592C62.9629 24.7278 62.9629 24.8184 62.9629 24.9543V25.4072C62.9629 25.5431 63.0085 25.6336 63.0085 25.7695C63.1912 26.0865 63.1455 26.1318 63.0542 26.1771Z" fill="#fff"/>
<path d="M68.7615 30.8419C68.5789 30.8419 68.3962 30.7966 68.2136 30.7966C67.9396 30.7966 67.6657 30.7966 67.3918 30.8419C67.0721 30.8419 66.7525 30.8872 66.4786 30.8872C66.3416 30.8872 65.7937 30.8419 65.6567 30.7966H65.6111C65.5197 30.7966 65.4741 30.8419 65.3828 30.8419C65.2001 30.8419 65.0632 30.8419 64.8805 30.8419C64.7436 30.8419 64.6522 30.7513 64.5609 30.6154C64.5153 30.5249 64.5153 30.389 64.5153 30.2531C64.5153 30.1625 64.5153 30.072 64.5153 29.9361C64.5153 29.6191 64.4696 29.3021 64.4696 28.985C64.4696 28.9397 64.5153 28.8492 64.5153 28.8039C64.5153 28.668 64.5153 28.5321 64.5153 28.351V28.1245C64.5153 27.9887 64.5153 27.8075 64.5153 27.6716C64.5153 27.6264 64.4696 27.5358 64.4696 27.4905C64.4696 27.3093 64.4696 27.1282 64.4696 26.9923C64.4696 26.947 64.4696 26.9017 64.4696 26.8112C64.4696 26.7206 64.4696 26.5847 64.4696 26.4941C64.4696 26.313 64.424 26.1318 64.424 25.9507C64.424 25.8148 64.424 25.6789 64.424 25.5431C64.424 25.4978 64.424 25.4525 64.424 25.4525C64.424 25.4072 64.424 25.3619 64.424 25.3619C64.4696 25.0902 64.4239 24.592 64.7436 24.5014L64.9719 24.4561L65.0175 24.5014C65.2001 24.5014 65.3828 24.5014 65.5654 24.5014C65.6567 24.5014 65.7937 24.5014 65.885 24.5014C66.2046 24.5014 66.5242 24.4561 66.7982 24.4561C66.8895 24.4561 66.9352 24.5014 67.0265 24.5014C67.1178 24.5014 67.2548 24.5014 67.3461 24.5014C67.4374 24.5014 67.5744 24.5014 67.6657 24.5014C67.9853 24.5014 68.2593 24.4561 68.5332 24.4561C68.6702 24.4561 68.8528 24.5014 68.8528 24.6373C68.8528 24.7731 68.8528 24.9543 68.8528 25.0902C68.8528 25.226 68.8528 25.5883 68.8072 25.6789C68.7615 25.8148 68.7158 25.8601 68.5332 25.8601C68.1679 25.8601 67.757 25.8601 67.3461 25.8601C67.2091 25.8601 67.0721 25.8601 66.9352 25.8601C66.7525 25.8601 66.6156 25.9054 66.4329 25.9054C66.2959 25.9054 66.2046 25.9054 66.1133 25.9054C65.9763 25.9054 65.9307 25.9054 65.9307 26.0865V26.4035C65.9307 26.4488 65.9307 26.5394 65.9307 26.5847C65.9307 26.63 65.9763 26.6753 66.022 26.6753C66.1133 26.6753 66.159 26.6753 66.2503 26.6753C66.3873 26.6753 66.5699 26.6753 66.7069 26.6753C67.2091 26.6753 67.7114 26.6753 68.2136 26.6753C68.3962 26.6753 68.6245 26.7206 68.6245 26.9017C68.6245 27.0376 68.6245 27.1282 68.6245 27.264C68.6245 27.3999 68.6245 27.5358 68.6245 27.6716C68.4876 28.2604 68.3049 28.1245 67.757 28.1245C67.62 28.1245 67.5287 28.1245 67.3918 28.1245C67.2548 28.1245 67.0721 28.0792 66.9352 28.0792C66.7982 28.0792 66.7069 28.0792 66.6156 28.0792C66.4786 28.0792 66.3873 28.0792 66.2503 28.0792C66.1133 28.0792 65.9763 28.034 65.9763 28.2151V29.3021C65.9763 29.4379 65.9763 29.5285 66.022 29.6644C66.2046 29.6644 66.3873 29.6644 66.6156 29.6644C66.7525 29.6644 66.8895 29.6644 67.0265 29.6644C67.3461 29.6644 67.6657 29.6644 67.9853 29.6644C68.2136 29.6644 68.5789 29.6644 68.8072 29.7097C68.9441 29.7549 68.9898 29.8455 68.9898 29.9814C68.9898 30.1173 68.9898 30.2531 68.9898 30.389C69.1268 30.4343 69.0811 30.8419 68.7615 30.8419Z" fill="#fff"/>
</g>
<defs>
<clipPath id="clip0_6779_26137">
<rect width="112" height="112" fill="white"/>
</clipPath>
</defs>
</svg>
