<svg width="180" height="80" viewBox="0 0 180 80" fill="none" xmlns="http://www.w3.org/2000/svg"><g clip-path="url(#header-desktop_svg__clip0_13983_12137)"><path d="M152.687 1.067c12.759 0 25.057 7.212 26.175 18.566.676 9.22-4.275 17.385-12.95 20.367 8.675 2.982 13.626 11.148 12.95 20.369-1.118 11.354-13.414 18.566-26.175 18.566a31.504 31.504 0 01-12.775-2.632C124.04 69.24 118.262 48.25 103.679 40c14.587-8.248 20.364-29.237 36.233-36.303a31.493 31.493 0 0112.775-2.63zm0-1.067a32.743 32.743 0 00-13.209 2.724c-8.652 3.84-14.381 11.682-19.921 19.26-5.004 6.845-9.74 13.32-16.416 17.09l-1.638.926 1.638.927c6.684 3.78 11.412 10.244 16.416 17.09 5.54 7.577 11.269 15.412 19.913 19.26A32.74 32.74 0 00152.687 80c6.633 0 13.052-1.85 18.056-5.212a22.299 22.299 0 006.251-6.146 17.815 17.815 0 002.94-8.175v-.025c.35-4.791-.731-9.343-3.129-13.165A19.742 19.742 0 00168.698 40a19.744 19.744 0 008.109-7.281c2.398-3.822 3.479-8.374 3.129-13.163v-.027a17.82 17.82 0 00-2.94-8.173 22.33 22.33 0 00-6.253-6.144C165.731 1.849 159.318 0 152.687 0z" fill="#fff"></path><path d="M165.912 40c8.675-2.982 13.626-11.148 12.95-20.367-1.5-15.22-23.085-22.998-38.95-15.936-15.865 7.06-21.65 28.055-36.233 36.303 14.587 8.248 20.364 29.237 36.233 36.303 15.868 7.067 37.45-.716 38.95-15.936.676-9.214-4.275-17.385-12.95-20.367z" fill="#FF2D00"></path><path d="M170.527 32.725c3.506-5.911 2.215-13.362-2.476-18.394a13.99 13.99 0 00-4.512-3.259c-5.713-2.563-12.186-.868-14.805.022a13.183 13.183 0 016.978-.284c7.264 1.677 13.442 6.356 14.129 13.53.52 7.09-4.079 13.361-10.751 15.654 0 .006 7.134.006 11.437-7.27z" fill="url(#header-desktop_svg__paint0_linear_13983_12137)"></path><path d="M126.621 26.088c-1.411-.446-3.3.465-2.665 3.16 0 0 1.326-2.735 3.972-1.768-.094-.62-.474-1.13-1.307-1.392z" fill="url(#header-desktop_svg__paint1_linear_13983_12137)"></path><path d="M115.99 42.31c-1.948.292-3.342.44-3.342.44s3.954.744 11.084 10.038c3.985 5.2 6.305 8.88 12.798 13.11-8.197-5.967-12.679-17.129-20.54-23.587z" fill="url(#header-desktop_svg__paint2_linear_13983_12137)"></path><path d="M134.608 30.48c-3.217 6.563-10.409 8.532-13.494 9.52 7.252 4.1 11.189 14.414 18.751 18.064 7.977 3.513 18.615-.355 19.361-7.914.337-4.585-2.635-8.662-6.948-10.144 4.313-1.483 7.285-5.523 6.948-10.105-.744-7.845-11.666-11.075-18.93-8.108l-4.944 3.86a8.625 8.625 0 01-.744 4.827z" fill="#0032FF"></path><path d="M121.106 40c.646.367 1.267.778 1.856 1.23 5.558-1.828 12.189-5.65 12.458-14.065a8.84 8.84 0 01-.813 3.315c-3.223 6.567-10.416 8.532-13.501 9.52z" fill="url(#header-desktop_svg__paint3_linear_13983_12137)"></path><path d="M159.09 40c6.672-2.293 11.271-8.565 10.751-15.655-.682-7.165-6.865-11.852-14.129-13.535-7.726-1.784-15.229 3.611-15.424 10.978 7.264-2.973 18.187.256 18.931 8.107.337 4.582-2.636 8.622-6.949 10.105 4.313 1.483 7.286 5.56 6.949 10.144-.746 7.572-11.384 11.433-19.352 7.92-7.562-3.65-11.493-13.964-18.751-18.064 3.085-.988 10.277-2.953 13.493-9.52 1.169-2.377 2.098-8.328-4.46-9.772-5.225-1.158-11.533 4.01-6.182 8.54-.635-2.702 1.255-3.606 2.665-3.16 2.739.865.598 4.41-.563 5.743-4.624 5.312-13.41 8.169-13.41 8.169 11.215 6.345 15.54 22.278 27.237 27.926 12.331 5.426 28.802-.548 29.945-12.254.52-7.09-4.079-13.379-10.751-15.672z" fill="#fff"></path><path d="M167.505 53.57c0 11.87-13.347 16.004-13.347 16.004l.085-.01c8.042-1.395 14.87-6.502 15.598-13.898.52-7.09-4.079-13.379-10.751-15.672 0 .006 8.415 3.662 8.415 13.576z" fill="url(#header-desktop_svg__paint4_linear_13983_12137)"></path><path d="M145.84 43.24a4.154 4.154 0 00-.799-1.852c2.922-.307 3.731-1.386 3.731-1.386s-.823-1.106-3.84-1.396a6.39 6.39 0 001.948-.868c1.239-.817 2.271-2.28 3.015-4.515 1.107-3.32 1.465-7.513 2.198-11.466-3.713-1.383-8.215-1.437-11.819.038.195-7.366 7.699-12.761 15.425-10.978.442.103.446.103 0 0-4.044-.945-9.156-1.23-12.304-1.23-3.547 0-9.623.36-13.817 1.634 5.967 4.44 5.008 15.108 7.309 22.006.746 2.235 1.776 3.698 3.013 4.515.596.395 1.254.689 1.948.868-3.011.292-3.833 1.396-3.833 1.396s.802 1.079 3.73 1.386a4.192 4.192 0 00-.801 1.85c-.566 2.922-1.862 14.005-6.471 21.014a23.385 23.385 0 005.398 3.668c5.478 2.413 11.768 2.573 17.17.984-8.468-4.422-10.551-22.36-11.201-25.669z" fill="url(#header-desktop_svg__paint5_linear_13983_12137)"></path><path d="M145.84 43.24a4.154 4.154 0 00-.799-1.852c2.922-.307 3.731-1.386 3.731-1.386s-.823-1.106-3.84-1.396a6.39 6.39 0 001.948-.868c1.239-.817 2.271-2.28 3.016-4.515 1.106-3.32 1.464-7.513 2.197-11.466a16.346 16.346 0 00-2.369-.68 51.156 51.156 0 00-.333 3.114c-.793 10.616-4.091 13.581-5.435 14.354 1.857 0 3.101 1.457 3.101 1.457s-1.18 1.446-2.817 1.446c.341.42.752 1.395.854 3.646.643 14.39 3.605 21.396 6.374 24.8l.185-.013h.13a25.766 25.766 0 005.26-.965c-8.47-4.43-10.553-22.368-11.203-25.677z" fill="url(#header-desktop_svg__paint6_radial_13983_12137)"></path><path d="M140.288 21.793s7.889-.579 11.355 2.736c.144-.929.294-1.857.464-2.774-3.713-1.382-8.215-1.436-11.819.038z" fill="url(#header-desktop_svg__paint7_linear_13983_12137)" style="mix-blend-mode: multiply;"></path><path d="M3.475 58.695a2.552 2.552 0 00-.691-.093H1.558v5.25h.758v-.538c0-.374 0-.687-.023-.94-.024-.253-.033-.436-.053-.552l.037-.015c.233.224.545.349.869.35a1.035 1.035 0 00.908-.474 2.3 2.3 0 00.32-1.297c0-.54-.096-.942-.285-1.205a1.194 1.194 0 00-.614-.486zm-.012 2.434a.582.582 0 01-.286.29c-.122.04-.25.059-.38.056h-.49V59.39h.49c.136-.004.271.014.402.052.124.052.224.15.276.274.091.218.131.453.117.687.016.25-.028.498-.129.726zm3.83-2.526h.758v5.25h-.758v-2.317H5.976v2.317H5.22v-5.25h.757v1.102c.007.52-.018 1.041-.076 1.56h.024c.107-.125.24-.226.39-.296a2.213 2.213 0 01.987-.253l-.008-2.114zm1.808 0h.758v5.25H9.1v-5.25zm4.108 4.395h.024v.855h-2.324v-5.25h.758v3.376c0 .434-.023.95-.069 1.544l.037.015c.185-.174.41-.302.655-.37a2.75 2.75 0 01.92-.17zm.832-4.395h.764v5.25h-.764v-5.25zm3.735.092a2.554 2.554 0 00-.694-.093h-1.233v5.25h.756v-.538c0-.374 0-.687-.022-.94a5.133 5.133 0 00-.054-.552l.039-.015c.111.11.243.197.39.255.155.066.323.1.492.098a1.036 1.036 0 00.908-.473 2.3 2.3 0 00.317-1.297c0-.54-.094-.942-.282-1.205a1.21 1.21 0 00-.617-.49zm-.012 2.434a.568.568 0 01-.288.29c-.122.04-.25.06-.378.056h-.493V59.39h.493c.135-.004.27.014.4.052.125.053.224.151.277.274.092.218.132.453.117.687.016.25-.028.498-.128.726zm3.682-2.434a2.552 2.552 0 00-.692-.093h-1.235v5.25h.758v-.538c0-.374 0-.687-.024-.94-.023-.253-.033-.436-.052-.552l.037-.015c.236.225.55.35.878.35a1.035 1.035 0 00.908-.474 2.3 2.3 0 00.32-1.297c0-.54-.095-.942-.285-1.205a1.194 1.194 0 00-.613-.486zm-.018 2.434a.582.582 0 01-.286.29c-.126.041-.258.06-.39.056h-.49V59.39h.49c.136-.004.271.014.401.052.125.052.224.15.277.274.091.218.131.453.117.687.019.248-.022.497-.119.726zm1.753-2.526h.758v5.25h-.758v-5.25zm3.935 0h.742v5.25h-.666a11.508 11.508 0 00-.329-1.797 8.445 8.445 0 00-.594-1.627 2.24 2.24 0 00-.538-.744v4.168h-.742v-5.25h.561c.43.273.77.668.974 1.133.31.66.515 1.363.61 2.084h.06a20.886 20.886 0 01-.076-1.862l-.002-1.355zm1.79 0H31.3v.787h-1.635v.33c0 .315 0 .604-.023.87-.023.267-.031.47-.053.614h.024c.157-.171.36-.297.584-.362.29-.1.594-.15.9-.147v.824h-1.438v1.544h1.635v.788h-2.379l-.008-5.248zm5.615 3.003c.106.216.157.455.148.695 0 .56-.134.97-.402 1.23a1.563 1.563 0 01-1.135.386 2.59 2.59 0 01-.567-.06 1.802 1.802 0 01-.485-.18v-.81c.298.189.645.288 1 .285a.93.93 0 00.634-.181.713.713 0 00.195-.562 1.066 1.066 0 00-.09-.469.85.85 0 00-.22-.288 1.991 1.991 0 00-.317-.21l-.137-.075a4.855 4.855 0 01-.613-.361 1.107 1.107 0 01-.333-.398 1.397 1.397 0 01-.129-.645 1.31 1.31 0 01.38-1.052 1.336 1.336 0 011.058-.388c.171 0 .342.02.508.06.154.038.302.098.438.18v.787a1.267 1.267 0 00-.39-.193 1.628 1.628 0 00-.48-.065 1.13 1.13 0 00-.427.07.481.481 0 00-.253.233.914.914 0 00-.084.422.63.63 0 00.267.54c.111.081.23.152.354.211.233.113.457.242.67.386.174.116.316.271.417.452h-.007zm2.102-.652c.083.1.123.228.113.357a.487.487 0 01-.113.355.472.472 0 01-.357.118.466.466 0 01-.355-.118.488.488 0 01-.114-.355.493.493 0 01.114-.357.472.472 0 01.355-.116.483.483 0 01.357.116zm1.517-2.352h2.308v3.747c.01.302-.038.602-.142.886a1.08 1.08 0 01-.428.525 1.571 1.571 0 01-1.43 0 1.059 1.059 0 01-.429-.525 2.373 2.373 0 01-.144-.886v-.424h.758v.397c-.004.154.014.308.052.458.025.105.085.199.17.266.09.061.198.092.308.087a.453.453 0 00.477-.353c.039-.15.056-.304.053-.458V60.42c0-.315 0-.604.021-.869.021-.264.033-.47.055-.615l-.032-.016c-.159.178-.366.308-.598.373-.322.102-.66.151-.999.144v-.834zm5.139 0H42.25a28.89 28.89 0 00-.64 2.622c-.19.952-.33 1.829-.42 2.629h.78l.136-1.147h1.317c.047.369.092.753.136 1.147h.78c-.09-.8-.23-1.676-.42-2.63a29.62 29.62 0 00-.636-2.62h-.004zm-1.06 3.323c.125-.866.295-1.725.509-2.574h.076c.213.849.382 1.708.506 2.574h-1.09zm4.87-3.23a2.533 2.533 0 00-.691-.093h-1.235v5.25h.757v-.538c0-.374 0-.687-.023-.94a5.266 5.266 0 00-.053-.552l.04-.015c.11.11.243.197.389.255.155.066.322.1.49.098a1.038 1.038 0 00.91-.473 2.3 2.3 0 00.318-1.297c0-.54-.095-.942-.284-1.205-.144-.227-.36-.4-.616-.49h-.002zm-.01 2.434a.582.582 0 01-.288.29c-.122.04-.25.06-.378.056h-.493V59.39h.493c.136-.003.271.014.402.052a.522.522 0 01.274.274c.093.217.134.452.119.687.017.249-.027.498-.127.726h-.002zm3.495-2.526h-1.028a28.89 28.89 0 00-.641 2.62c-.19.953-.33 1.83-.42 2.63h.78l.136-1.147h1.317c.045.369.092.753.137 1.147h.779c-.09-.8-.23-1.676-.419-2.63a29.11 29.11 0 00-.639-2.62h-.002zm-1.06 3.322c.124-.866.294-1.725.509-2.574h.074c.214.849.383 1.708.508 2.574h-1.09zm5.065-3.322h.744v5.25h-.662a11.296 11.296 0 00-.33-1.797 8.438 8.438 0 00-.593-1.627 2.212 2.212 0 00-.538-.744v4.168h-.742v-5.25h.56c.431.273.77.668.975 1.133.31.66.515 1.363.61 2.084h.06c-.03-.374-.05-.697-.06-.965-.01-.268-.016-.567-.016-.897l-.008-1.355zm2.837 2.35c.083.1.123.229.113.358a.488.488 0 01-.113.355.598.598 0 01-.713 0 .495.495 0 01-.113-.355.5.5 0 01.113-.357.605.605 0 01.713 0zm1.38-2.35h.758v5.25h-.757v-5.25zm3.936 0h.742v5.25h-.666a11.531 11.531 0 00-.33-1.797 8.445 8.445 0 00-.594-1.627 2.239 2.239 0 00-.522-.744v4.168h-.742v-5.25h.547c.431.273.77.667.974 1.133.31.66.515 1.363.61 2.084h.06a20.886 20.886 0 01-.075-1.862l-.004-1.355zm3.054 0h-1.264v5.25h.758a2.697 2.697 0 00-.045-.427v-.015l.021-.016c.099.157.232.289.39.386.168.097.36.145.553.14a.842.842 0 00.659-.315c.209-.269.352-.582.416-.915.104-.476.152-.961.145-1.448 0-.88-.13-1.542-.39-1.984a1.327 1.327 0 00-1.237-.657h-.006zm.682 4.136a.594.594 0 01-.584.462c-.114-.001-.226-.012-.337-.033l-.27-.06V59.39h.494a.682.682 0 01.668.477c.15.45.216.924.195 1.397.024.496-.03.992-.16 1.471l-.006.004zm3.333-4.212a1.307 1.307 0 00-1.202.653c-.26.435-.39 1.117-.39 2.048 0 .93.13 1.613.39 2.048a1.423 1.423 0 001.203.652 1.439 1.439 0 001.203-.652c.26-.434.39-1.117.39-2.048 0-.932-.13-1.615-.39-2.048a1.306 1.306 0 00-1.198-.652H69.8zm.625 4.164a.655.655 0 01-.624.441.664.664 0 01-.624-.441c-.125-.296-.185-.784-.185-1.463 0-.68.06-1.168.185-1.464a.655.655 0 01.624-.44.664.664 0 01.624.44c.122.295.184.783.185 1.464.002.68-.058 1.168-.179 1.463h-.006zm4.01-4.089h.757v5.25h-.666a11.296 11.296 0 00-.33-1.796 8.445 8.445 0 00-.584-1.627 2.19 2.19 0 00-.563-.744v4.168h-.742v-5.25h.561c.431.273.77.667.974 1.133.311.659.517 1.362.61 2.084h.06c-.029-.374-.05-.697-.06-.965-.01-.268-.016-.567-.016-.897l-.002-1.355zm1.791 0h2.393v.788h-1.635v.33c0 .315 0 .604-.023.87-.023.267-.033.47-.053.614h.022a1.29 1.29 0 01.584-.362c.29-.1.595-.15.902-.147v.824H76.98v1.544h1.635v.788h-2.38l-.006-5.248zm5.615 3.004c.105.216.156.455.148.695 0 .56-.134.97-.402 1.23a1.56 1.56 0 01-1.135.386 2.62 2.62 0 01-.57-.06 1.763 1.763 0 01-.482-.18v-.81c.298.19.645.289 1 .285a.936.936 0 00.634-.181.712.712 0 00.205-.562 1.066 1.066 0 00-.092-.469.846.846 0 00-.218-.288c-.1-.08-.207-.15-.32-.21l-.136-.075a4.795 4.795 0 01-.612-.361 1.107 1.107 0 01-.333-.398 1.39 1.39 0 01.584-1.927c.225-.115.477-.168.73-.154.17 0 .34.02.506.06.155.038.303.098.44.18v.787a1.313 1.313 0 00-.39-.193 1.638 1.638 0 00-.48-.066 1.144 1.144 0 00-.43.07.49.49 0 00-.252.233.914.914 0 00-.084.423.652.652 0 00.072.317.729.729 0 00.195.224c.112.08.23.151.356.21.233.113.457.242.67.386.167.117.304.27.401.448h-.005zm.997-3.004h.758v5.25h-.758v-5.25zm4.313 2.622a29.354 29.354 0 00-.639-2.621h-1.03c-.237.795-.45 1.669-.64 2.62-.189.953-.33 1.83-.42 2.63h.779c.045-.386.09-.772.136-1.147h1.317l.137 1.147h.779a29.96 29.96 0 00-.413-2.63h-.006zm-1.699.7c.125-.865.294-1.724.507-2.573h.076c.213.849.382 1.708.506 2.574h-1.089zM11.478 54.321h-.78a1.457 1.457 0 01-1.285-.772c-.635-1.033-1.33-2.741-1.769-4.42-.39 1.575-1.364 3.926-2.238 5.2h-.78a1.513 1.513 0 01-1.314-.772C1.603 50.754.514 47.623 0 43.863h1.664c.847 0 1.482.463 1.648 1.378.27 1.598.721 3.162 1.346 4.66a30.792 30.792 0 001.708-5.68h.997c1.013 0 1.77.435 2.028 1.605.3 1.402.751 2.768 1.345 4.075a25.856 25.856 0 001.634-6.038h1.46a1.23 1.23 0 01.93.352 1.208 1.208 0 01.357.922c-.002.155-.017.31-.045.463-.561 2.473-2.073 6.399-3.585 8.721h-.01zm9.27-8.391c1.604 0 2.42.944 2.42 3.206 0 1.903-.877 2.982-2.178 2.982-1.572 0-2.42-1.048-2.42-3.237 0-1.737.756-2.951 2.178-2.951zm-.04 8.505c3.387 0 5.323-2.123 5.323-5.56 0-3.37-2.448-5.258-5.006-5.258-3.357 0-5.338 2.203-5.338 5.544 0 3.236 2.178 5.274 5.02 5.274zm10.88-8.48c.833 0 1.213.434 1.213 1.183a1.15 1.15 0 01-.347.866 1.17 1.17 0 01-.879.333 8.822 8.822 0 01-1.149-.046v-2.272c.19-.03.382-.049.575-.058l.588-.006zm3.313 8.316a3.639 3.639 0 001.54-.27v-.076a7.824 7.824 0 01-.724-1.258l-.803-1.678c-.39-.824-.65-1.198-1.15-1.424 1-.224 1.906-1.392 1.906-2.772 0-1.873-1.588-3.089-3.824-3.089h-1.169c-.802 0-2.404.193-3.13.45v8.407c0 .965.65 1.633 1.769 1.633h1.104v-3.88c.166.013.318.029.454.044.68.089.974.255 1.375 1.139l.78 1.677c.301.674.907 1.095 1.875 1.095l-.004.002zm7.523.042c1.648 0 2.283-.66 2.283-1.708v-.965h-.076c-.423.18-1.375.313-2.207.313h-.454c-1.301 0-1.664-.404-1.664-1.751v-4.587c0-1.168-.53-1.752-1.663-1.752h-1.21v6.532c0 2.608 1.136 3.926 3.781 3.926h1.21v-.008zm7.176-8.308c1.422 0 2.572 1.033 2.572 3.089 0 1.768-.893 2.951-2.556 2.951h-.47a.633.633 0 01-.575-.425.615.615 0 01-.03-.248v-5.307c.149-.032.3-.052.453-.06h.606zm.39 8.331c2.994 0 5.051-2.316 5.051-5.47 0-3.521-2.752-5.154-5.308-5.154h-1.09c-1.01.022-2.013.188-2.976.492v7.627c0 1.799 1.42 2.51 3.296 2.51h1.029l-.002-.005zm18.603-7.188v-1.064c0-1.453-1.21-2.457-3.25-2.457-3.478 0-5.611 2.51-5.611 5.513 0 3.266 2.57 5.304 5.429 5.304 2.041 0 3.386-1.019 3.386-2.35v-1.066h-.075c-.514.54-1.753.965-2.873.965-1.693 0-2.994-1.004-2.994-3.117 0-1.678 1.241-2.786 2.934-2.786 1.15 0 2.45.386 2.978 1.064l.076-.006zm5.971 7.287c3.222 0 4.839-2.052 4.839-4.66v-4.011c0-1.363-.575-1.901-1.648-1.901H76.53v5.983c0 1.545-.56 2.247-1.694 2.247-1.346 0-1.966-.569-1.966-2.316v-3.951c0-1.425-.727-1.963-1.648-1.963h-1.225v6.007c0 2.789 1.89 4.57 4.566 4.57v-.005zm10.726-8.476c.74 0 1.225.27 1.225 1.351 0 .75-.378 1.17-1.286 1.17a3.511 3.511 0 01-1.089-.135v-2.317a3.9 3.9 0 01.575-.075h.575v.006zm.212 4.808c2.16 0 3.884-1.451 3.884-3.7 0-2.158-1.679-3.357-3.841-3.357h-1.169c-.997 0-2.338.255-3.117.434v8.287c0 1.243.832 1.768 1.588 1.768h1.286v-3.578a4.68 4.68 0 001.363.148l.006-.002zM2.892 38.915c.494 0 .661.124.661.502 0 .268-.167.44-.612.44H2.52c-.152 0-.236-.07-.236-.206v-.736h.61zm0-1.76c.39 0 .585.117.585.407s-.165.465-.62.465h-.584v-.845c.109-.016.218-.026.328-.03h.29l.002.003zm.14 3.814c.934 0 1.836-.494 1.836-1.52 0-.412-.401-.885-.867-1.024a1.097 1.097 0 00.78-.965c0-.861-.791-1.352-1.754-1.352h-.584a6.034 6.034 0 00-1.469.236v3.42c0 .811.584 1.217 1.547 1.217h.522l-.012-.012zm8.99-3.602c.219.457.4.93.54 1.417h-1.106c.142-.488.327-.962.555-1.417h.01zm2.34 3.556c-.214-1.616-.934-3.492-1.392-4.247a1.049 1.049 0 00-.931-.496h-.513c-.833.86-1.741 3.474-1.741 4.16 0 .351.195.579.61.579h.533c.057-.295.139-.772.244-1.122h1.652c.054.193.097.386.132.558.082.427.331.564.81.564l.597.004zm6.74.11c1.277 0 2.005-.633 2.005-1.616 0-.735-.471-1.135-1.457-1.334-.888-.18-.974-.295-.974-.51 0-.266.222-.44.873-.44.5 0 1.077.14 1.395.456h.035v-.508c0-.488-.45-1.017-1.63-1.017-1.214 0-1.992.757-1.992 1.602 0 .722.404 1.1 1.444 1.307.728.145.991.241.991.529 0 .317-.194.461-.804.461-.547 0-1.169-.18-1.47-.482h-.038v.477c0 .679.569 1.079 1.625 1.079l-.002-.004zm8.38-4.098c0-.373-.285-.744-.854-.744h-.466v3.996a.712.712 0 00.224.553.725.725 0 00.567.196h.528v-2.264c.438.69.932 1.343 1.477 1.953.223.217.521.342.834.35.436 0 .652-.172.798-.714-.39-.09-.541-.255-.82-.543-.375-.423-.72-.871-1.032-1.341a20.356 20.356 0 011.893-2.159v-.034h-.974c-.39 0-.569.042-.84.316-.492.526-.942 1.09-1.346 1.685v-1.258l.01.008zm10.744 4.057c.848 0 1.119-.26 1.119-.695v-.502a4.393 4.393 0 01-1.119.132h-.346c-.667 0-.832-.18-.832-.688v-.171h1.13c.465 0 .722-.193.722-.537v-.475h-1.852c.002-.269.018-.537.049-.805h1.457c.555 0 .796-.3.796-.756v-.31h-2.608c-.466 0-.832.18-.923.786-.057.424-.084.85-.082 1.278v.797c0 1.313.693 1.946 1.948 1.946h.541zm9.787-3.723a.737.737 0 00.489-.179.724.724 0 00.246-.455v-.451h-3.355a.692.692 0 00-.672.372.676.676 0 00-.072.259v.454h1.364v2.97c0 .502.346.682.742.682h.584v-3.652h.68-.006zm7.823 1.646c.493 0 .659.124.659.502 0 .268-.166.44-.61.44h-.419c-.154 0-.237-.07-.237-.206v-.736h.611-.004zm.004-1.76c.39 0 .585.117.585.407s-.18.465-.627.465h-.585v-.845c.108-.016.216-.026.325-.03h.293l.01.003zm.129 3.814c.937 0 1.839-.494 1.839-1.52 0-.412-.401-.885-.867-1.024.212-.065.4-.192.54-.364.138-.172.222-.382.24-.601 0-.861-.792-1.352-1.754-1.352h-.584c-.502.02-.998.1-1.479.242v3.414c0 .811.584 1.217 1.549 1.217h.52l-.004-.012zm8.984-3.602c.218.457.4.931.542 1.417h-1.097c.141-.488.327-.962.555-1.417zm2.35 3.556c-.215-1.616-.936-3.492-1.395-4.247a1.043 1.043 0 00-.93-.496h-.514c-.832.86-1.741 3.474-1.741 4.16 0 .351.194.579.611.579h.534c.057-.295.138-.772.244-1.122h1.651c.055.193.096.386.131.558.084.427.333.564.812.564l.596.004zm7.488.065c.755 0 1.048-.303 1.048-.783v-.448h-.035c-.328.102-.67.151-1.013.145h-.209c-.596 0-.763-.194-.763-.805v-2.104c0-.537-.244-.803-.762-.803h-.555v2.995c0 1.195.52 1.801 1.733 1.801h.556v.002zm9.155-.002c.758 0 1.048-.303 1.048-.783v-.448h-.033c-.328.102-.67.151-1.015.145h-.208c-.596 0-.762-.193-.762-.805V36.99c0-.537-.243-.803-.763-.803h-.556v2.997c0 1.195.52 1.801 1.734 1.801h.555zM35.39 31.98v-7.822a.486.486 0 01.342-.569.499.499 0 01.242-.01h3.92v1.62h-2.818v1.771h2.38v1.564h-2.38v3.453l-1.687-.007zm5.19 0v-7.822a.49.49 0 01.351-.57.504.504 0 01.244-.01h1.097v8.41l-1.691-.008zm2.59 0v-7.822a.49.49 0 01.343-.567.504.504 0 01.241-.012h1.917a2.825 2.825 0 011.517.386c.358.203.64.516.803.892.126.303.192.627.195.955.01.373-.056.744-.195 1.09a1.612 1.612 0 01-.434.622c-.12.09-.246.171-.378.242.212.078.402.203.557.366.18.184.314.408.39.653.09.262.137.537.136.814.007.36-.06.718-.195 1.052a2.052 2.052 0 01-.526.746c-.23.205-.5.36-.795.455a3.42 3.42 0 01-1.009.145l-2.567-.017zm1.656-4.938h.734c.262.01.518-.081.713-.255a1.015 1.015 0 00.275-.772 1.022 1.022 0 00-.275-.772 1.017 1.017 0 00-.713-.253h-.734v2.052zm0 3.492h.746c.263.01.52-.082.716-.257a1.033 1.033 0 00.281-.79 1.01 1.01 0 00-.28-.785 1.024 1.024 0 00-.717-.259h-.746v2.09zm4.233 1.446v-6.307c.004-.246.04-.49.109-.727.086-.283.229-.545.419-.773.22-.262.506-.462.83-.579.356-.13.732-.195 1.112-.193.31-.004.618.037.915.124.238.073.462.184.664.328.175.123.325.276.445.452.11.155.2.324.269.502.066.154.113.316.14.482.023.132.035.266.037.4v6.314h-1.687v-2.855h-1.559v2.835l-1.694-.003zm1.687-4.402h1.558v-1.737a1.358 1.358 0 00-.08-.48.727.727 0 00-.703-.473.694.694 0 00-.528.193.835.835 0 00-.216.413 2.056 2.056 0 00-.04.343l.009 1.741z" fill="#fff"></path><path d="M61.234 30.007a21.085 21.085 0 00-1.169-3.172 20.035 20.035 0 00-1.01-2.075 17.853 17.853 0 00-3.63-4.492 16.418 16.418 0 00-4.971-3.052 15.919 15.919 0 00-5.767-1.084 16.197 16.197 0 00-5.764 1.086 16.454 16.454 0 00-4.967 3.05 18.022 18.022 0 00-3.637 4.492 19.233 19.233 0 00-1.099 2.28c-.43.961-.785 1.954-1.063 2.969 0 .011 0 .023-.022.044a.191.191 0 000 .137.169.169 0 00.103.093c.02.002.04.002.059 0 .039 0 .077-.014.107-.039a.166.166 0 00.055-.065l.019-.037a.037.037 0 010-.017v-.012c.201-.55.433-1.088.694-1.612a17.643 17.643 0 016.479-6.543 17.851 17.851 0 018.923-2.417h.23a17.6 17.6 0 014.946.714 17.522 17.522 0 0110.461 8.25c.258.518.486 1.05.684 1.594 0 0 0 .02.011.035a.08.08 0 00.018.037c.006.01.013.018.022.025l.011.013c.01.017.023.03.04.041a.197.197 0 00.153.021.182.182 0 00.1-.09.167.167 0 000-.138.37.37 0 00-.016-.044v.008zm-2.675-5.073a16.533 16.533 0 00-3.567-3.44 17.473 17.473 0 00-4.885-2.426 18.028 18.028 0 00-10.827 0 17.414 17.414 0 00-4.87 2.426 16.567 16.567 0 00-3.585 3.46c1-1.54 2.225-2.924 3.635-4.107 2.909-2.436 6.512-3.78 10.15-3.78h.153a15.47 15.47 0 015.373.983c1.75.654 3.372 1.6 4.798 2.797a18.478 18.478 0 013.633 4.098" fill="#fff"></path></g><defs><linearGradient id="header-desktop_svg__paint0_linear_13983_12137" x1="161.075" y1="23.835" x2="162.227" y2="39.175" gradientUnits="userSpaceOnUse"><stop stop-color="#FF2D00"></stop><stop offset="1" stop-color="#D70000"></stop></linearGradient><linearGradient id="header-desktop_svg__paint1_linear_13983_12137" x1="127.875" y1="28.109" x2="125.05" y2="27.606" gradientUnits="userSpaceOnUse"><stop stop-color="#FF2D00"></stop><stop offset="1" stop-color="#D70000"></stop></linearGradient><linearGradient id="header-desktop_svg__paint2_linear_13983_12137" x1="116.976" y1="41.977" x2="129.13" y2="62.054" gradientUnits="userSpaceOnUse"><stop stop-color="#D70000"></stop><stop offset="0.3" stop-color="#DF0900"></stop><stop offset="0.79" stop-color="#F42100"></stop><stop offset="1" stop-color="#FF2D00"></stop></linearGradient><linearGradient id="header-desktop_svg__paint3_linear_13983_12137" x1="134.296" y1="30.385" x2="123.373" y2="41.229" gradientUnits="userSpaceOnUse"><stop></stop><stop offset="1" stop-color="#0032FF"></stop></linearGradient><linearGradient id="header-desktop_svg__paint4_linear_13983_12137" x1="165.912" y1="41.195" x2="162.487" y2="57.665" gradientUnits="userSpaceOnUse"><stop stop-color="#FFBE00"></stop><stop offset="1" stop-color="#fff"></stop></linearGradient><linearGradient id="header-desktop_svg__paint5_linear_13983_12137" x1="126.987" y1="37.143" x2="142.278" y2="39.102" gradientUnits="userSpaceOnUse"><stop stop-color="#fff"></stop><stop offset="0.09" stop-color="#FFFCF2"></stop><stop offset="0.26" stop-color="#FFF3CF"></stop><stop offset="0.48" stop-color="#FFE597"></stop><stop offset="0.75" stop-color="#FFD14B"></stop><stop offset="1" stop-color="#FFBE00"></stop></linearGradient><linearGradient id="header-desktop_svg__paint7_linear_13983_12137" x1="154.121" y1="23.946" x2="142.906" y2="20.771" gradientUnits="userSpaceOnUse"><stop stop-color="#FFBE00"></stop><stop offset="1" stop-color="#FF2D00"></stop></linearGradient><radialGradient id="header-desktop_svg__paint6_radial_13983_12137" cx="0" cy="0" r="1" gradientUnits="userSpaceOnUse" gradientTransform="matrix(27.8195 0 0 27.5668 148.544 39.938)"><stop stop-color="#FF2D00"></stop><stop offset="1" stop-color="#FFBE00"></stop></radialGradient><clipPath id="header-desktop_svg__clip0_13983_12137"><path fill="#fff" d="M0 0h180v80H0z"></path></clipPath></defs></svg>
