<svg xmlns="http://www.w3.org/2000/svg" width="210" height="65.394" viewBox="0 0 210 65.394">
  <g id="Group_496" data-name="Group 496" transform="translate(-317.599 -331.582)">
    <path id="Path_794" data-name="Path 794" d="M527.6,359.97a.537.537,0,0,1-.044.214l-2.513,6.047a.545.545,0,0,1-.5.323l-13.934.006a.282.282,0,0,0-.259.163l-.534,1.3H518.7a4.2,4.2,0,0,1,3.619,1.763,4.768,4.768,0,0,1,.275,4.483l0,.009,0,.009-1.766,4.3a8.619,8.619,0,0,1-7.335,5.18l-17.791-.028L498.4,377a.546.546,0,0,1,.514-.362h.006l14.26-.015a.37.37,0,0,0,.322-.213l.486-1.239h-8.9a4.236,4.236,0,0,1-3.657-1.733,4.813,4.813,0,0,1-.238-4.512l0-.009,0-.01,1.768-4.3a8.409,8.409,0,0,1,7.374-5.18l16.707,0A.546.546,0,0,1,527.6,359.97Zm-46.376-3.188,5.2-11.786a.076.076,0,0,1,.069-.046l6.51-.011a3.611,3.611,0,0,1,2.883,1.155,2.459,2.459,0,0,1,.5,2.084,24.32,24.32,0,0,1-3.061,6.9,4.558,4.558,0,0,1-3.323,1.772c-.459.043-3.18.047-3.3.047l-5.417-.011a.076.076,0,0,1-.064-.035A.077.077,0,0,1,481.223,356.782Zm6.035-3.725,1.928,0a1.172,1.172,0,0,0,1.036-.446,20.033,20.033,0,0,0,1.743-3.585l.016-.043a.228.228,0,0,0,.008-.058.2.2,0,0,0-.2-.221l-2.6-.007Zm-33.186,3.818a.077.077,0,0,0,.068.041l4.715-.011a.076.076,0,0,0,.062-.033l1.458-2.1h2.219l-.038,2.048a.076.076,0,0,0,.076.077h4.307a.076.076,0,0,0,.076-.076l.013-11.783a.077.077,0,0,0-.076-.076h-2.586a4.212,4.212,0,0,0-3.357,2.026l-6.93,9.8A.077.077,0,0,0,454.072,356.874Zm13.652,20.387a.546.546,0,0,0-.546-.546H452.029l.718-1.553,12.32-.02a.545.545,0,0,0,.514-.363l2.394-5.9a.538.538,0,0,0,.056-.241.546.546,0,0,0-.546-.546l-11.653,0,.663-1.57,15.788-.008v0a.546.546,0,0,0,.5-.33l2.5-5.957a.547.547,0,0,0-.492-.782l-18.349,0a8.569,8.569,0,0,0-7.275,5.091l-5.751,13.033,0,.013-.006.013a4.661,4.661,0,0,0,.206,4.431,4.192,4.192,0,0,0,3.594,1.773l17.526-.014a.545.545,0,0,0,.513-.36l2.438-5.956A.537.537,0,0,0,467.724,377.261ZM449.083,360.2l-10.135,23.247a.545.545,0,0,1-.5.334v0l-7.088,0a.546.546,0,0,1-.546-.546.538.538,0,0,1,.054-.237l5.12-11.715-21.369,25.6a.214.214,0,0,1-.15.087.235.235,0,0,1-.26-.2.225.225,0,0,1,.033-.156l8.17-12.86-2.882.013a.546.546,0,0,1-.525-.4l-2.288-8.189h-6.183l-3.662,8.262a.546.546,0,0,1-.493.312v0l-7.231-.008a.546.546,0,0,1-.546-.546.538.538,0,0,1,.046-.22l9.916-22.7.211-.481,0-.013a.546.546,0,0,1,.514-.361h0l16.325.007a5.292,5.292,0,0,1,4.61,1.995,4.452,4.452,0,0,1,.79,1.975l6.48-7.924.013-.719h-2.219l-1.458,2.1a.076.076,0,0,1-.063.033l-4.715.011a.076.076,0,0,1-.062-.12l6.93-9.811a4.211,4.211,0,0,1,3.357-2.027h2.586a.077.077,0,0,1,.076.076l-.006,5.027,15.03-18.378.009-.014a.216.216,0,0,1,.149-.085.233.233,0,0,1,.258.2.227.227,0,0,1-.031.152l0,0-8.1,13.018h3.7a.076.076,0,0,1,.069.107l-3.591,8.019h5.787a.076.076,0,0,1,.069.107l-1.648,3.68a.076.076,0,0,1-.069.045l-10.219-.008a.076.076,0,0,1-.069-.107l3.649-8.116-9.1,14.63,1.637-.008,1.545-3.535a.546.546,0,0,1,.5-.326l7.065,0v0a.546.546,0,0,1,.5.763Zm-26.553,7.625a5.648,5.648,0,0,0,.522-.992.425.425,0,0,0-.356-.59l-8.279,0-1.149,2.652,7.339-.006A2.34,2.34,0,0,0,422.53,367.825Zm9.211,1.253-2.27.026c-1.192,2.663-2.332,4.156-4.959,5.236a2.929,2.929,0,0,1,.179.5l1.014,3.736Zm-24.993-8.84a.546.546,0,0,0-.488-.79l-7.047-.006a.545.545,0,0,0-.5.325L391.4,376.428a.606.606,0,0,1-.3.251h-9.251l7.285-16.464a.76.76,0,0,0,.049-.216.538.538,0,0,0-.538-.538l0,0h-7.112a.539.539,0,0,0-.464.308l-7.831,17.747a4.652,4.652,0,0,0,.154,4.468,4.205,4.205,0,0,0,3.621,1.783h14.227a8.785,8.785,0,0,0,7.392-5.125Zm-64.124,16.419-15.08-.006c-.437,0-.94.015-1.062-.265l-.048-.116a20.489,20.489,0,0,1-1.294-3.527c0-.174.008-.218.541-.787.408-.436,4.519-4.57,4.675-4.73a2.017,2.017,0,0,1,1.544-.7l15.7-.011h.013a.556.556,0,0,0,.493-.3l2.687-5.92a.553.553,0,0,0,.057-.237.541.541,0,0,0-.538-.538h0c-3.64,0-17.969,0-18.428.012a8.782,8.782,0,0,0-6.47,2.706l-.539.536c-1.443,1.432-3.86,3.83-5.706,5.867-2.361,2.607-1.507,4.861-.943,6.352.077.2,1.332,3.46,1.857,4.688.182.425.374.874.591,1.4a4.5,4.5,0,0,0,4.482,2.7l14.764-.006h.006a.539.539,0,0,0,.5-.329l0-.005,2.679-5.991a.538.538,0,0,0-.478-.784Zm60.1-19.781a.076.076,0,0,0,.064.035H415.11a.076.076,0,0,0,.069-.045l1.659-3.679a.075.075,0,0,0-.005-.072.076.076,0,0,0-.064-.035l-5.168,0,7.156-4.622.234-.167a.071.071,0,0,0,.025-.031l1.441-3.2a.076.076,0,0,0-.069-.107H408.018a.077.077,0,0,0-.069.045l-1.6,3.592a.075.075,0,0,0,.006.072.076.076,0,0,0,.064.035l5.272,0-7.5,4.859a.077.077,0,0,0-.028.033l-1.438,3.212A.077.077,0,0,0,402.724,356.877Zm-19.2.014a.076.076,0,0,0,.057.025h4.1a.077.077,0,0,0,.061-.03l3.675-4.934-.678,4.879a.075.075,0,0,0,.018.06.077.077,0,0,0,.057.026h4.117a.075.075,0,0,0,.06-.03l8.963-11.812a.076.076,0,0,0-.06-.122l-4.343,0a.075.075,0,0,0-.06.03l-3.84,5.1.725-5.035a.077.077,0,0,0-.017-.06.076.076,0,0,0-.058-.026l-4.023,0a.077.077,0,0,0-.061.031l-3.779,5.1.687-5.032a.077.077,0,0,0-.018-.06.077.077,0,0,0-.057-.026h-4.04a.076.076,0,0,0-.076.067l-1.435,11.8A.076.076,0,0,0,383.523,356.891Zm-29.975.017,4.225.011h0a.076.076,0,0,0,.069-.045l2.42-5.394,1.885,5.388a.076.076,0,0,0,.072.051h0l3.712-.009a.077.077,0,0,0,.069-.045l5.3-11.79a.076.076,0,0,0-.069-.107L367,344.957h0a.076.076,0,0,0-.069.045l-2.417,5.383-1.848-5.363a.075.075,0,0,0-.072-.051h-3.756a.076.076,0,0,0-.069.045L353.48,356.8a.077.077,0,0,0,.005.073A.076.076,0,0,0,353.549,356.908Zm23.009,8.952-5.683,12.808a8.865,8.865,0,0,1-7.535,5.116H348.669a4.256,4.256,0,0,1-3.688-1.814,4.623,4.623,0,0,1-.1-4.517l5.683-12.808a9.062,9.062,0,0,1,7.577-5.175h14.672a4.21,4.21,0,0,1,3.644,1.8A4.754,4.754,0,0,1,376.558,365.86Zm-8.72.732h-9.561c-.1-.006-.155.1-.178.145l-4.416,9.9h9.458a.387.387,0,0,0,.311-.212Zm1.035-10.578a2.108,2.108,0,0,0,1.807.9l8.638-.006a.077.077,0,0,0,.07-.047l1.392-3.414a.076.076,0,0,0-.007-.071.075.075,0,0,0-.063-.034l-7.577,0,.3-.673,6.073-.008a.077.077,0,0,0,.07-.048l1.344-3.325a.076.076,0,0,0-.071-.1l-5.892,0,.262-.621.012-.032a.145.145,0,0,1,.028-.024l7.721,0a.076.076,0,0,0,.07-.047l1.42-3.378a.076.076,0,0,0-.07-.105l-9.264,0a4.231,4.231,0,0,0-3.594,2.524l-2.768,6.288A2.361,2.361,0,0,0,368.873,356.015Zm49.115,0a2.108,2.108,0,0,0,1.807.9l8.638-.006a.076.076,0,0,0,.07-.047l1.392-3.414a.076.076,0,0,0-.07-.1l-7.577,0,.3-.673,6.073-.008a.077.077,0,0,0,.07-.048l1.344-3.325a.078.078,0,0,0-.008-.071.076.076,0,0,0-.063-.033l-5.892,0,.262-.621.011-.032a.161.161,0,0,1,.028-.024l7.721,0a.077.077,0,0,0,.07-.047l1.42-3.378a.076.076,0,0,0-.07-.105l-9.264,0a4.231,4.231,0,0,0-3.594,2.524l-2.768,6.288A2.361,2.361,0,0,0,417.988,356.015Zm75.289,18.825,2.417,8.91-7.58.025a.546.546,0,0,1-.525-.4l-2.288-8.189H479.12l-3.662,8.262a.546.546,0,0,1-.493.312v0l-7.231-.008a.546.546,0,0,1-.5-.766l9.916-22.7.211-.481,0-.013a.546.546,0,0,1,.514-.361h0l16.325.007a5.292,5.292,0,0,1,4.61,1.995,4.614,4.614,0,0,1,.632,4.029l-.022.067c-.4,1.209-.588,1.761-1.092,2.946-1.3,3.059-2.405,4.7-5.231,5.858A2.937,2.937,0,0,1,493.278,374.84Zm-1.995-8.6-8.279,0-1.149,2.652,7.339-.006a2.34,2.34,0,0,0,1.923-1.066,5.623,5.623,0,0,0,.522-.992A.425.425,0,0,0,491.283,366.243Zm-23.876-9.351,4.226.011a.076.076,0,0,0,.069-.045l2.42-5.394,1.885,5.388a.076.076,0,0,0,.072.051h0l3.711-.009a.077.077,0,0,0,.069-.045l5.3-11.79a.077.077,0,0,0-.006-.072.074.074,0,0,0-.063-.035l-4.226-.011h0a.075.075,0,0,0-.069.045l-2.418,5.383-1.848-5.363a.075.075,0,0,0-.072-.051H472.7a.075.075,0,0,0-.069.045l-5.291,11.785a.077.077,0,0,0,.005.072A.076.076,0,0,0,467.407,356.892Z" fill="#1a1818"/>
    <path id="Path_795" data-name="Path 795" d="M689.5,375.611h-2.625l2.778-4.122Zm-7.782,3.75,2.563-.006,1.479-2.128h3.674l-.04,2.121h2.539l.011-10.016h-1.709a3.263,3.263,0,0,0-2.571,1.614Z" transform="translate(-225.87 -23.414)" fill="#ffc900"/>
    <path id="Path_796" data-name="Path 796" d="M804.794,408.676a6.946,6.946,0,0,0-6.045,4.29l-1.764,4.29c-.93,2.36.063,4.29,2.565,4.29h9.934c.6,0,.877.472.61,1.074l-.84,2.145a1.833,1.833,0,0,1-1.532,1.072l-13.734.014-1.712,4.252,15.653.025a7.172,7.172,0,0,0,6-4.29l1.762-4.291c.932-2.359-.208-4.29-2.564-4.29H803.2c-.6,0-.876-.472-.609-1.073l.881-2.145a1.724,1.724,0,0,1,1.491-1.073l13.406-.014,1.784-4.277Z" transform="translate(-294.411 -47.796)" fill="#ffc900"/>
    <path id="Path_797" data-name="Path 797" d="M756.758,369.277l-4.416,10.02s6.056.079,7.261-.032a3.621,3.621,0,0,0,2.66-1.413,23.77,23.77,0,0,0,2.869-6.488c.234-1.147-.7-2.1-2.446-2.1Zm5.409,1.833a.569.569,0,0,1,.617.739,19.626,19.626,0,0,1-2.12,4.635,2.079,2.079,0,0,1-1.814.865l-3.386,0,2.761-6.249Z" transform="translate(-269.678 -23.374)" fill="#ffc900"/>
    <path id="Path_798" data-name="Path 798" d="M660.694,379.341l-8.287-.006,4.511-10.032H659.3l-3.631,8.109h5.892Z" transform="translate(-207.692 -23.395)" fill="#ffc900"/>
    <path id="Path_799" data-name="Path 799" d="M555.934,379.341H545.546l.785-1.753.041-.028,9.914-6.411-7.123,0,.823-1.842h10.43l-.787,1.747-.041.029-9.8,6.328,7.018,0Z" transform="translate(-141.397 -23.395)" fill="#ffc900"/>
    <path id="Path_800" data-name="Path 800" d="M494,379.339h2.676l5.608-7.506-1.045,7.523h2.676l7.618-10.039-2.161.006L503.6,377l1.106-7.683-2.581.012-5.7,7.685,1.05-7.691h-2.261Z" transform="translate(-109.42 -23.404)" fill="#ffc900"/>
    <path id="Path_801" data-name="Path 801" d="M418.8,408.7H404.154a7.636,7.636,0,0,0-6.264,4.347l-5.668,12.837a3.3,3.3,0,0,0-.008,3.18,2.819,2.819,0,0,0,2.488,1.169h14.641a7.455,7.455,0,0,0,6.222-4.287l5.668-12.837a3.411,3.411,0,0,0,.006-3.248A2.771,2.771,0,0,0,418.8,408.7Zm-20.3,17.139a.6.6,0,0,1-.536-.245.757.757,0,0,1,.033-.722l4.8-10.847a1.73,1.73,0,0,1,1.458-1.031h10.787a.611.611,0,0,1,.538.241.777.777,0,0,1,0,.731l-4.8,10.842a1.847,1.847,0,0,1-1.5,1.03Z" transform="translate(-46.099 -47.81)" fill="#ffc900"/>
    <path id="Path_802" data-name="Path 802" d="M327.413,430.216a3.108,3.108,0,0,1-3.2-1.845c-.211-.51-.394-.939-.594-1.408-.514-1.207-1.755-4.433-1.832-4.635-.523-1.385-1.115-2.956.673-4.935,1.817-2.01,4.212-4.393,5.643-5.817l.539-.536a7.359,7.359,0,0,1,5.5-2.3c.486-.008,17.052-.012,17.052-.012l-1.93,4.226-15.128.011a3.387,3.387,0,0,0-2.531,1.122c-.154.159-.643.652-1.261,1.275-1.267,1.277-3,3.026-3.423,3.477-.6.644-.964,1.091-.908,1.851a18.767,18.767,0,0,0,1.392,3.943l.044.106c.428,1.048,1.135,1.127,2.165,1.127l13.92.008-1.948,4.34Z" transform="translate(-2.275 -47.826)" fill="#ffc900"/>
    <path id="Path_803" data-name="Path 803" d="M455.473,379.33a1.163,1.163,0,0,1-1.015-.47,1.407,1.407,0,0,1-.021-1.326l2.768-6.274a3.257,3.257,0,0,1,2.713-1.932l7.933,0-.708,1.682-7.163,0a1,1,0,0,0-.871.623l-.782,1.8-.109.238a.675.675,0,0,1,.439-.191l5.682,0-.68,1.676-6.089.008-.766,1.71a.555.555,0,0,0,.009.54.5.5,0,0,0,.434.213h6.944l-.685,1.68Z" transform="translate(-84.787 -23.411)" fill="#ffc900"/>
    <path id="Path_804" data-name="Path 804" d="M584.848,379.33a1.163,1.163,0,0,1-1.015-.47,1.407,1.407,0,0,1-.021-1.326l2.768-6.274a3.257,3.257,0,0,1,2.713-1.932l7.933,0-.708,1.682-7.163,0a1,1,0,0,0-.872.623l-.781,1.8-.109.238a.675.675,0,0,1,.439-.191l5.682,0-.681,1.676-6.089.008-.766,1.71a.556.556,0,0,0,.009.54.5.5,0,0,0,.434.213h6.944l-.685,1.68Z" transform="translate(-165.04 -23.411)" fill="#ffc900"/>
    <path id="Path_805" data-name="Path 805" d="M663.479,408.671h0a7.223,7.223,0,0,0-6.024,4.256l-5.743,12.981a3.327,3.327,0,0,0,.083,3.151,2.834,2.834,0,0,0,2.467,1.165l16.9-.014h.051l.019-.047,1.715-4.193.042-.1h-.113l-14.931,0a.6.6,0,0,1-.533-.242.729.729,0,0,1,.014-.7l1.477-3.281,12.581-.017h.051l.019-.047,1.705-4.186.042-.1h-.112l-11.485-.006a1.7,1.7,0,0,0-1.1.469l1.6-3.706a1.633,1.633,0,0,1,1.4-1.007l15.09-.008h.05l.02-.046,1.77-4.2.044-.1h-.114l-16.99,0Z" transform="translate(-207.012 -47.793)" fill="#ffc900"/>
    <path id="Path_806" data-name="Path 806" d="M491.932,408.716l-.02.045L484.861,424.8a1.812,1.812,0,0,1-1.486,1.023H473.036a.613.613,0,0,1-.544-.246.74.74,0,0,1,.023-.714l7.053-16.028.047-.106H479.5l-5.138-.008h-.049l-.02.045-7.542,17.1a3.349,3.349,0,0,0,.047,3.194,2.862,2.862,0,0,0,2.506,1.184h14.2a7.458,7.458,0,0,0,6.16-4.317l7.529-17.1.047-.106h-.116l-5.138-.011Z" transform="translate(-92.274 -47.821)" fill="#ffc900"/>
    <path id="Path_807" data-name="Path 807" d="M629.95,408.7h-.05l-.02.045-1.046,2.385,1.683-.008-3.537,4.239-6.525,14.887h5.323l9.369-21.447.046-.106h-.116Z" transform="translate(-187.864 -47.805)" fill="#ffc900"/>
    <path id="Path_808" data-name="Path 808" d="M555.559,430.244l3.018,0,1.43-2.25-1.36-4.979a2.233,2.233,0,0,0-1.495-1.354c-.194-.058-.412-.1-.412-.1a8.155,8.155,0,0,0,1.445-.32,7.083,7.083,0,0,0,5.033-4.293l-1.56.018,3.04-3.717.128-.4c.386-1.2.117-4.141-3.883-4.141l-15.714-.007-9.4,21.534,5.3.006,3.839-8.663h8.171Zm-6.725-17.586,9.929,0c1.01,0,1.518.755,1.358,1.394a7.223,7.223,0,0,1-1.135,2.387,3.558,3.558,0,0,1-3.191,1.7l-9.339.007Z" transform="translate(-135.353 -47.815)" fill="#ffc900"/>
    <path id="Path_809" data-name="Path 809" d="M617.337,342.567l-18.969,28.979,4.41.011L580.421,399.47l17.054-25.1-4.966.024Z" transform="translate(-163.001 -6.824)" fill="#fff"/>
    <path id="Path_810" data-name="Path 810" d="M737.407,421.563a8.155,8.155,0,0,0,1.445-.32c3.345-1.058,4.272-2.437,5.569-5.488a26.382,26.382,0,0,0,1.072-2.9c.386-1.2.117-4.141-3.883-4.141l-15.714-.007-9.4,21.534,5.3.006,3.839-8.663h8.171l2.42,8.662,5.063.006-1.975-7.232a2.233,2.233,0,0,0-1.495-1.354C737.626,421.607,737.407,421.563,737.407,421.563Zm-10.283-3.416,2.377-5.489,9.929,0c1.01,0,1.518.755,1.358,1.394a7.223,7.223,0,0,1-1.135,2.387,3.558,3.558,0,0,1-3.19,1.7Z" transform="translate(-247.337 -47.815)" fill="#ffc900"/>
    <path id="Path_811" data-name="Path 811" d="M426.292,379.351l-2.522.006-2.461-7.036-3.156,7.036-2.309-.006,4.5-10.021h2.563l2.421,7.026,3.161-7.038,2.309.006Z" transform="translate(-60.942 -23.404)" fill="#ffc900"/>
    <path id="Path_812" data-name="Path 812" d="M726.209,379.31l-2.522.006-2.461-7.036-3.156,7.036-2.309-.006,4.5-10.021h2.563l2.421,7.026,3.161-7.038,2.309.006Z" transform="translate(-246.983 -23.379)" fill="#ffc900"/>
    <path id="Path_813" data-name="Path 813" d="M623.341,377.688l2.514-3.083.006-5.29h-1.709a3.263,3.263,0,0,0-2.571,1.61l-5.947,8.4,2.563-.006,1.479-2.123h3.674Zm-2.549-2.107,2.778-4.115-.153,4.115Z" transform="translate(-184.879 -23.403)" fill="#ffc900"/>
  </g>
</svg>
