<svg xmlns="http://www.w3.org/2000/svg" width="200.119" height="79.985" viewBox="0 0 200.119 79.985">
  <g id="Group_2" data-name="Group 2" transform="translate(-173.962 -173.962)">
    <path id="Path_1" data-name="Path 1" d="M220.584,198.755s-1.181-3.919-1.764-5.457a.258.258,0,0,0-.35-.142l-3.282,1.52a.515.515,0,0,0-.3.522c.279,2.615.271,6.344.271,6.344s-1.782-4.01-2.5-5.906a.258.258,0,0,0-.342-.146l-3.476,1.459a.515.515,0,0,0-.317.488c.07,2.878-.1,7.57-.1,7.57s-1.689-5.148-2.348-6.667a.258.258,0,0,0-.349-.128l-3.189,1.543a.516.516,0,0,0-.281.57c.516,2.5.969,8.333.969,8.333l-3.55-7.177c-.106-.187-.253-.182-.413-.077l-3.647,2.014a.515.515,0,0,0-.237.627,84.243,84.243,0,0,1,2.282,9.588s-3.634-6.562-5.06-8.417a.258.258,0,0,0-.368-.044l-3.846,3.1a.517.517,0,0,0-.127.655c1.9,3.4,4.913,10.242,4.913,10.242s-4.89-6.344-6.968-8.705a.258.258,0,0,0-.369-.019,23.548,23.548,0,0,0-3.04,3.292.514.514,0,0,0-.03.565,121.161,121.161,0,0,1,5.557,12s-5.291-8.215-7.276-10.4a.258.258,0,0,0-.4.027l-2.792,3.937a.516.516,0,0,0,.011.6c2.662,3.555,7.751,11.674,7.751,11.674s-6.515-7.782-8.977-10.052a.258.258,0,0,0-.407.077l-2.218,4.43a.517.517,0,0,0,.088.581,32.865,32.865,0,0,1,6.206,8.9c1.85,4.45.724,10.416-.329,13.486-1.011,2.947-.234,4.383,1.629,4.383h7.556a.129.129,0,0,0,.106-.2c-1.538-2.168-13.913-21.4,14.1-43.514,18.565-14.654,40.187-15.551,40.651-36.131a.131.131,0,0,0-.25-.06,13.779,13.779,0,0,1-2.36,4.22c-.574.744-.513.525-.222,1.423.176.544.583,1.7.583,1.7l-1.328-1.592a.259.259,0,0,0-.407.013c-.634.853-1.386,1.693-2.183,2.642a.518.518,0,0,0-.093.5c.4,1.15,1.237,3.695,1.237,3.695s-1.581-2.231-2.269-3.048a.258.258,0,0,0-.363-.032c-.688.574-1.42,1.143-2.167,1.769a.7.7,0,0,0-.221.748,35.976,35.976,0,0,1,.847,3.514s-1.376-2.031-2.113-3.046a.256.256,0,0,0-.348-.063q-.977.639-2.011,1.258a.519.519,0,0,0-.242.547c.5,2.485.761,4.8.761,4.8s-1.5-2.818-2.21-4.179a.257.257,0,0,0-.35-.107c-.81.437-1.636.864-2.471,1.282a.56.56,0,0,0-.285.483c.1,2.244-.092,5.772-.092,5.772A35.754,35.754,0,0,1,224.209,191a.258.258,0,0,0-.37-.187l-3.253,1.616a.518.518,0,0,0-.287.489Z" transform="translate(0 -0.006)" fill="#bcbec0"/>
    <g id="Group_1" data-name="Group 1" transform="translate(187.483 173.962)">
      <path id="Path_2" data-name="Path 2" d="M820.924,400.71c-4.614-1.08-7.854-1.817-12.2-1.511-6.29.443-12.264,2.539-13.712,8.793-2.848,12.3,13.964,10.249,12.777,14.137-.862,2.825-9.785,3.229-16.866-2.658a.28.28,0,0,0-.452.251l1.288,11.1a.283.283,0,0,0,.185.236,30.624,30.624,0,0,0,9.919,1.715c6.986,0,13.8-1.894,15.951-9.525,3.476-12.318-13.639-10.21-12.905-14.1.556-2.509,6.475-2.593,13.633.192a.281.281,0,0,0,.374-.186l2.214-8.1A.283.283,0,0,0,820.924,400.71Z" transform="translate(-691.46 -358.029)" fill="#fff"/>
      <path id="Path_3" data-name="Path 3" d="M919.813,239.78c3.907,2.686,9.816,4.027,14.584,4.027,6.986,0,13.8-1.894,15.951-9.525,3.476-12.318-13.639-10.21-12.905-14.1.556-2.509,6.475-2.593,13.633.192a.281.281,0,0,0,.374-.186l2.214-8.1a.282.282,0,0,0-.208-.348c-4.614-1.08-7.8-1.818-12.2-1.511-6.29.439-12.264,2.539-13.712,8.793-2.848,12.3,13.923,10.236,12.777,14.137-.756,2.439-8.623,3.414-15.23-1.522a.28.28,0,0,0-.429.118,24.376,24.376,0,0,1-4.891,7.6A.281.281,0,0,0,919.813,239.78Z" transform="translate(-797.096 -203.554)" fill="#fff"/>
      <path id="Path_4" data-name="Path 4" d="M774.429,246c11.539,0,19.211-9.1,20.307-19.23.9-8.292-3.342-13.851-12.942-13.851-11.539,0-19.211,9.1-20.308,19.23C760.589,240.439,764.828,246,774.429,246ZM772.2,232.369c.556-5.13,3.386-10.651,8.287-10.651a3.532,3.532,0,0,1,2.743.966,4.963,4.963,0,0,1,.783,3.86c-.555,5.13-3.385,10.652-8.287,10.652a3.532,3.532,0,0,1-2.743-.966A4.964,4.964,0,0,1,772.2,232.369Z" transform="translate(-667.67 -205.806)" fill="#fff"/>
      <path id="Path_5" data-name="Path 5" d="M461.74,405.534h-9.851a.281.281,0,0,0-.272.21l-2.9,11.085h-8.664l2.154-8.116a2.53,2.53,0,0,0-2.445-3.179H432.79a.281.281,0,0,0-.272.21L424.3,436.935a.281.281,0,0,0,.272.353h9.9a.281.281,0,0,0,.272-.21l2.9-11.085h8.619l-2.124,8.125a2.53,2.53,0,0,0,2.448,3.17h6.94a.281.281,0,0,0,.272-.21l8.215-31.191A.281.281,0,0,0,461.74,405.534Z" transform="translate(-392.121 -363.265)" fill="#fff"/>
      <path id="Path_6" data-name="Path 6" d="M1123.727,405.534h-23.46a.281.281,0,0,0-.272.21l-8.215,31.191a.281.281,0,0,0,.272.353h23.733a.281.281,0,0,0,.272-.21l2.043-7.784a.281.281,0,0,0-.272-.352h-13.471l.984-3.765H1117.1a.281.281,0,0,0,.272-.21l1.885-7.15a.281.281,0,0,0-.272-.353h-11.611l.93-3.674h11.011a3.373,3.373,0,0,0,3.261-2.512l1.424-5.391A.281.281,0,0,0,1123.727,405.534Z" transform="translate(-937.763 -363.265)" fill="#fff"/>
      <path id="Path_7" data-name="Path 7" d="M278.716,216.674l-13.15-2.764,15.136,1.03a.515.515,0,0,0,.392-.142c.845-.809,1.842-1.714,2.814-2.547a.258.258,0,0,0-.084-.441l-10.772-3.722,12.422,2.6a.516.516,0,0,0,.433-.106c.962-.787,2.148-1.75,2.986-2.444a.259.259,0,0,0-.059-.435l-9.006-4.039,10.791,2.767a.517.517,0,0,0,.463-.106c.846-.719,1.841-1.585,2.637-2.292a.258.258,0,0,0-.071-.43l-7.977-3.415,9.256,2.429a.516.516,0,0,0,.484-.122c.824-.772,1.756-1.674,2.551-2.484a.259.259,0,0,0-.076-.416l-5.746-2.665,6.642,1.811a.516.516,0,0,0,.52-.152c.631-.7,1.628-1.843,2.251-2.585a.258.258,0,0,0-.117-.411l-4.983-1.674,5.721.85a.516.516,0,0,0,.491-.2c.561-.757,1.289-1.807,1.82-2.606a.258.258,0,0,0-.135-.387l-3.8-1.263,4.425.011a.52.52,0,0,0,.466-.291c.4-.795.835-2.038,1.165-2.87a.258.258,0,0,0-.216-.352l-2.88-.283,3.117-.693a.258.258,0,0,0,.2-.269c-.083-1.252-.51-7.547-.892-11.462a.156.156,0,0,0-.311.011c-.183,6.276-1.946,11.712-6.272,15.92-4.195,4.081-9.552,7.075-15.631,10.245A117.709,117.709,0,0,0,265.314,212c-6.468,5.105-11.192,10.437-14.041,15.845a26.573,26.573,0,0,0-3.239,12.743,16.228,16.228,0,0,0,.367,3.457.128.128,0,0,0,.249,0c.317-1.159,1.517-3.685,6-4.467a104.582,104.582,0,0,1,14.065-1.263.517.517,0,0,0,.509-.489c.051-.941.159-3,.169-3.95a.255.255,0,0,0-.248-.258l-17.406-.593,18-1.348a.515.515,0,0,0,.452-.354c.336-1.028.952-2.679,1.445-3.821a.258.258,0,0,0-.228-.361L254.6,226.49l17.777-.951a.518.518,0,0,0,.421-.258c.515-.889,1.406-2.3,2.051-3.268a.258.258,0,0,0-.182-.4l-14.741-1.9,16.165.281a.517.517,0,0,0,.4-.178l2.367-2.718A.259.259,0,0,0,278.716,216.674Z" transform="translate(-248.034 -173.962)" fill="#fff"/>
      <path id="Path_8" data-name="Path 8" d="M577.794,248.305h7.514a3.374,3.374,0,0,0,3.262-2.514L590.094,240h3.765c8.438,0,14.551-2.495,16.77-11.113,2.462-9.209-3.56-12.339-11.181-12.339H586.01a.281.281,0,0,0-.272.21l-8.215,31.191A.281.281,0,0,0,577.794,248.305Zm16.423-23.529h4.038c2.4,0,3.931,1.022,3.276,3.374-.687,2.658-2.732,3.629-5.543,3.629h-3.63Z" transform="translate(-517.373 -208.778)" fill="#fff"/>
      <path id="Path_9" data-name="Path 9" d="M1136.871,216.553h-26.908a.282.282,0,0,0-.272.21l-2.264,8.6a.281.281,0,0,0,.272.353h8.164L1110,247.954a.281.281,0,0,0,.272.353h9.852a.282.282,0,0,0,.272-.209l5.9-22.381h5.928a3.373,3.373,0,0,0,3.262-2.515l1.657-6.3A.281.281,0,0,0,1136.871,216.553Z" transform="translate(-950.554 -208.779)" fill="#fff"/>
      <path id="Path_10" data-name="Path 10" d="M988.078,412.184l1.657-6.3a.281.281,0,0,0-.272-.353H962.555a.281.281,0,0,0-.272.21l-2.264,8.6a.281.281,0,0,0,.272.353h8.163L962.6,436.936a.281.281,0,0,0,.272.353h9.852a.281.281,0,0,0,.272-.21l5.9-22.38h5.928A3.373,3.373,0,0,0,988.078,412.184Z" transform="translate(-830.052 -363.266)" fill="#fff"/>
      <path id="Path_11" data-name="Path 11" d="M627.652,405.784a.281.281,0,0,0-.279-.25H616.484a.281.281,0,0,0-.237.13L596.4,436.855a.281.281,0,0,0,.237.432h10.123a.282.282,0,0,0,.242-.139l2.741-4.66h10.824l.307,4.536a.281.281,0,0,0,.281.262h9.63a.281.281,0,0,0,.279-.312ZM613.97,425.176l5.909-10.66.449,10.66Z" transform="translate(-532.777 -363.265)" fill="#fff"/>
    </g>
  </g>
</svg>
