<svg width="756" height="512" viewBox="0 0 756 512" fill="none" xmlns="http://www.w3.org/2000/svg">
<g opacity="0.1" filter="url(#filter0_d)">
<path d="M57.7153 302.988C82.33 334.288 72.7688 380.017 57.1274 416.632C51.8905 428.894 45.965 441.867 48.1774 455.011C50.8771 471.087 65.1957 482.861 80.2955 489.05C107.757 500.406 140.633 497.699 165.859 482.002C187.665 468.433 203.284 446.37 225.461 433.419C262.592 411.758 309.826 419.935 350.128 434.858C378.641 445.418 409.816 459.157 438.151 448.118C458.086 440.382 471.871 421.451 479.382 401.415C483.01 391.737 485.64 381.301 492.532 373.565C496.648 369.008 502.016 365.767 507.524 363.044C557.805 338.126 621.237 351.439 670.033 323.837C702.994 305.177 724.097 269.97 733.465 233.262C742.833 196.554 741.719 158.059 739.344 120.26C737.657 93.3929 734.633 64.715 717.468 43.9744C699.312 22.0425 668.145 13.8809 639.98 18.0506C611.815 22.2204 586.272 37.1512 563.839 54.6503C535.766 76.5204 509.736 103.759 475.267 112.625C451.797 118.659 427.105 115.356 402.892 114.219C362.42 112.308 321.94 116.539 281.691 121.181C243.16 125.637 204.336 130.542 167.646 143.074C141.67 151.948 120.845 168.047 96.3159 179.295C80.3264 186.629 62.8905 188.656 47.7597 197.993C29.1092 209.497 12.0213 229.51 16.8173 252.92C21.3194 275.208 44.6422 286.379 57.7153 302.988Z" fill="#A5B3FC"/>
</g>
<g opacity="0.7">
<path opacity="0.7" d="M585.204 0H214.062C210.881 0.0116458 207.835 1.28614 205.594 3.5433C203.352 5.80046 202.098 8.85555 202.108 12.037V267.526C202.098 270.707 203.352 273.762 205.594 276.019C207.835 278.277 210.881 279.551 214.062 279.563H341.71V323.664H335.89C335.091 323.667 334.301 323.827 333.564 324.136C332.827 324.444 332.158 324.895 331.595 325.462C331.032 326.029 330.586 326.701 330.283 327.44C329.98 328.18 329.826 328.971 329.829 329.77V338.619H341.71V343.853H457.557V338.619H469.438V329.77C469.441 328.971 469.286 328.18 468.983 327.44C468.68 326.701 468.234 326.029 467.672 325.462C467.109 324.895 466.44 324.444 465.703 324.136C464.966 323.827 464.175 323.667 463.376 323.664H457.901V323.283H457.528V279.563H585.204C588.385 279.551 591.431 278.277 593.673 276.019C595.915 273.762 597.168 270.707 597.159 267.526V12.037C597.168 8.85555 595.915 5.80046 593.673 3.5433C591.431 1.28614 588.385 0.0116458 585.204 0Z" fill="url(#paint0_linear)"/>
</g>
<path d="M457.168 271.968H342.831V339.41H457.168V271.968Z" fill="#BDBDBD"/>
<g opacity="0.1">
<path opacity="0.1" d="M345.081 278.566H455.146C456.472 272.797 457.535 269.036 457.535 269.036H342.465C342.465 269.036 343.645 272.782 345.081 278.566Z" fill="black"/>
</g>
<path d="M216.8 2H583.12C586.25 2 589.251 3.24346 591.464 5.45684C593.677 7.67022 594.92 10.6722 594.92 13.8024V239.514H205V13.8024C205 10.6722 206.243 7.67022 208.456 5.45684C210.669 3.24346 213.671 2 216.8 2Z" fill="#000"/>
<path d="M583.16 276.367H216.84C213.711 276.367 210.709 275.123 208.496 272.91C206.283 270.696 205.04 267.694 205.04 264.564V239.713H594.96V264.564C594.96 267.694 593.717 270.696 591.504 272.91C589.291 275.123 586.29 276.367 583.16 276.367Z" fill="#BDBDBD"/>
<path d="M400 264.637C403.643 264.637 406.597 261.684 406.597 258.04C406.597 254.396 403.643 251.442 400 251.442C396.357 251.442 393.404 254.396 393.404 258.04C393.404 261.684 396.357 264.637 400 264.637Z" fill="#262626"/>
<path d="M337.093 319.618H462.908C464.496 319.618 466.019 320.249 467.142 321.372C468.265 322.495 468.896 324.018 468.896 325.607V334.279H331.104V325.607C331.104 324.82 331.259 324.041 331.56 323.315C331.861 322.588 332.302 321.928 332.858 321.372C333.414 320.816 334.075 320.374 334.801 320.073C335.528 319.772 336.306 319.618 337.093 319.618Z" fill="#BDBDBD"/>
<g opacity="0.5">
<path opacity="0.5" d="M464.459 26H230.283C228.47 26 227 27.47 227 29.2834V159.717C227 161.53 228.47 163 230.283 163H464.459C466.272 163 467.742 161.53 467.742 159.717V29.2834C467.742 27.47 466.272 26 464.459 26Z" fill="url(#paint1_linear)"/>
</g>
<path d="M461.373 27.0069H233.369C231.556 27.0069 230.086 28.4769 230.086 30.2903V157.951C230.086 159.764 231.556 161.234 233.369 161.234H461.373C463.186 161.234 464.656 159.764 464.656 157.951V30.2903C464.656 28.4769 463.186 27.0069 461.373 27.0069Z" fill="white"/>
<g opacity="0.5">
<path opacity="0.5" d="M318 46.2771H298.712C296.898 46.2771 295.429 47.7471 295.429 49.5605V66.2696C295.429 68.083 296.898 69.5531 298.712 69.5531H318C319.813 69.5531 321.283 68.083 321.283 66.2696V49.5605C321.283 47.7471 319.813 46.2771 318 46.2771Z" fill="#092BCD"/>
</g>
<path d="M397.555 46.2771H330.329C329.616 46.2771 329.038 46.8553 329.038 47.5686C329.038 48.2819 329.616 48.8601 330.329 48.8601H397.555C398.268 48.8601 398.846 48.2819 398.846 47.5686C398.846 46.8553 398.268 46.2771 397.555 46.2771Z" fill="#E0E0E0"/>
<path d="M385.773 54.0406H330.329C329.616 54.0406 329.038 54.6188 329.038 55.3321C329.038 56.0453 329.616 56.6236 330.329 56.6236H385.773C386.486 56.6236 387.064 56.0453 387.064 55.3321C387.064 54.6188 386.486 54.0406 385.773 54.0406Z" fill="#E0E0E0"/>
<g opacity="0.5">
<path opacity="0.5" d="M318 82.4825H298.712C296.898 82.4825 295.429 83.9526 295.429 85.766V102.475C295.429 104.288 296.898 105.759 298.712 105.759H318C319.813 105.759 321.283 104.288 321.283 102.475V85.766C321.283 83.9526 319.813 82.4825 318 82.4825Z" fill="#092BCD"/>
</g>
<path d="M397.555 82.4825H330.329C329.616 82.4825 329.038 83.0608 329.038 83.774C329.038 84.4873 329.616 85.0655 330.329 85.0655H397.555C398.268 85.0655 398.846 84.4873 398.846 83.774C398.846 83.0608 398.268 82.4825 397.555 82.4825Z" fill="#E0E0E0"/>
<path d="M397.555 90.2388H330.329C329.616 90.2388 329.038 90.817 329.038 91.5303C329.038 92.2435 329.616 92.8217 330.329 92.8217H397.555C398.268 92.8217 398.846 92.2435 398.846 91.5303C398.846 90.817 398.268 90.2388 397.555 90.2388Z" fill="#E0E0E0"/>
<g opacity="0.5">
<path opacity="0.5" d="M318 118.688H298.712C296.898 118.688 295.429 120.158 295.429 121.971V138.681C295.429 140.494 296.898 141.964 298.712 141.964H318C319.813 141.964 321.283 140.494 321.283 138.681V121.971C321.283 120.158 319.813 118.688 318 118.688Z" fill="#092BCD"/>
</g>
<path d="M397.555 118.688H330.329C329.616 118.688 329.038 119.266 329.038 119.979C329.038 120.693 329.616 121.271 330.329 121.271H397.555C398.268 121.271 398.846 120.693 398.846 119.979C398.846 119.266 398.268 118.688 397.555 118.688Z" fill="#E0E0E0"/>
<path d="M398.153 126.444H330.198C329.557 126.444 329.038 126.964 329.038 127.604V127.867C329.038 128.508 329.557 129.027 330.198 129.027H398.153C398.793 129.027 399.313 128.508 399.313 127.867V127.604C399.313 126.964 398.793 126.444 398.153 126.444Z" fill="#E0E0E0"/>
<path d="M235.324 33.6882C236.11 33.6882 236.748 33.051 236.748 32.2649C236.748 31.4788 236.11 30.8416 235.324 30.8416C234.539 30.8416 233.901 31.4788 233.901 32.2649C233.901 33.051 234.539 33.6882 235.324 33.6882Z" fill="#4361F9"/>
<path d="M239.306 33.6882C240.092 33.6882 240.729 33.051 240.729 32.2649C240.729 31.4788 240.092 30.8416 239.306 30.8416C238.52 30.8416 237.883 31.4788 237.883 32.2649C237.883 33.051 238.52 33.6882 239.306 33.6882Z" fill="#758AFA"/>
<path d="M243.287 33.6882C244.073 33.6882 244.71 33.051 244.71 32.2649C244.71 31.4788 244.073 30.8416 243.287 30.8416C242.501 30.8416 241.864 31.4788 241.864 32.2649C241.864 33.051 242.501 33.6882 243.287 33.6882Z" fill="#A5B3FC"/>
<g opacity="0.1">
<path opacity="0.1" d="M457.535 319.251H343.198V321.45H457.535V319.251Z" fill="black"/>
</g>
<g opacity="0.7">
<path opacity="0.7" d="M175.341 269.08H122.277L123.01 263.113C138.006 249.646 147.702 213.77 147.702 213.77C147.487 213.8 147.274 213.844 147.065 213.902C138.27 215.676 132.01 219.29 127.635 223.637L129.496 207.759C157.201 201.792 168.188 165.138 168.188 165.138C150.51 169.06 139.486 175.13 132.641 180.892L135.367 157.566C154.101 163.995 173.48 129.841 173.48 129.841L172.747 129.687L173.113 129.452L172.556 129.65C151.851 125.186 140.784 137.025 137.192 141.944L137.463 139.657C136.916 141.123 136.384 142.56 135.866 143.967V144.026C134.4 147.999 133.058 151.923 131.842 155.799C130.781 159.107 129.79 162.382 128.866 165.622V165.578C128.866 165.578 128.009 144.715 106.013 139.224C106.013 139.224 108.322 184.726 125.751 177.278C124.139 183.875 122.819 190.224 121.676 196.389C120.948 200.401 120.313 204.311 119.77 208.118L119.668 208.235L119.77 208.147L119.726 208.448C119.238 211.903 118.822 215.27 118.48 218.55C118.818 212.23 117.667 193.977 96.1626 176.823C96.1626 176.823 67.5782 227.068 116.318 236.935C116.428 237.03 116.538 237.125 116.641 237.213L116.567 236.986L117.007 237.081L117.205 234.501C116.618 245.271 116.674 256.066 117.374 266.829C117.425 267.562 117.476 268.295 117.528 268.992H63.8549C43.3768 311.356 75.2301 334.572 75.2301 334.572H163.182C197.337 291.512 175.341 269.08 175.341 269.08Z" fill="url(#paint2_linear)"/>
</g>
<path opacity="0.6" d="M119.287 285.163C119.287 285.163 105.361 224.319 136.144 145.88" stroke="#262626" stroke-width="3" stroke-miterlimit="10"/>
<path d="M65.05 266.837H172.791C172.791 266.837 194.046 293.96 161.064 334.279H76.044C76.044 334.279 45.2608 306.422 65.05 266.837Z" fill="#A5B3FC"/>
<path d="M134.598 149.912C134.598 149.912 145.306 130.853 170.959 136.717C170.959 136.717 149.755 172.828 130.647 161.004L134.598 149.912Z" fill="#4DB6AC"/>
<path d="M127.811 170.138C127.811 170.138 126.983 150.645 105.728 145.514C105.728 145.514 107.926 188.032 124.784 181.068L127.811 170.138Z" fill="#4DB6AC"/>
<path d="M120.863 198.925C120.863 198.925 124.784 178.502 165.828 169.705C165.828 169.705 152.738 211.945 118.972 210.251L120.863 198.925Z" fill="#4DB6AC"/>
<path d="M117.535 221.848C117.535 221.848 121.852 200.494 96.1994 180.701C96.1994 180.701 68.348 228.109 116.34 237.023L117.535 221.848Z" fill="#4DB6AC"/>
<path d="M116.766 251.2C116.766 251.2 113.79 221.02 146.039 215.155C146.039 215.155 134.261 257.299 116.722 264.813L116.766 251.2Z" fill="#4DB6AC"/>
<path opacity="0.3" d="M131.014 161.275C131.014 161.275 158.865 140.016 170.592 136.351" stroke="#262626" stroke-miterlimit="10"/>
<path opacity="0.3" d="M118.92 210.024C118.92 210.024 152.635 174.104 165.828 169.705" stroke="#262626" stroke-miterlimit="10"/>
<path opacity="0.3" d="M105.728 145.514C105.728 145.514 126.25 173.37 124.784 180.701" stroke="#262626" stroke-miterlimit="10"/>
<path opacity="0.3" d="M96.1992 180.701C96.1992 180.701 107.193 230.55 115.988 237.147" stroke="#262626" stroke-miterlimit="10"/>
<path opacity="0.3" d="M116.722 265.004C116.722 265.004 134.312 216.622 146.039 215.155" stroke="#262626" stroke-miterlimit="10"/>
<g opacity="0.1">
<path opacity="0.1" d="M172.791 266.837H65.0498C64.808 267.328 64.5734 267.819 64.3169 268.303H169.126C169.126 268.303 189.861 294.774 158.572 334.279H161.064C194.046 293.96 172.791 266.837 172.791 266.837Z" fill="black"/>
</g>
<path d="M756 333.986H44V358.126H756V333.986Z" fill="#E0E0E0"/>
<path d="M725.825 358.126H74.1675V368H725.825V358.126Z" fill="#E0E0E0"/>
<path opacity="0.1" d="M725.825 358.126H74.1675V361.417H725.825V358.126Z" fill="black"/>
<g filter="url(#filter1_d)">
<path d="M558.312 219H356.275C354.896 218.998 353.573 218.45 352.598 217.475C351.623 216.499 351.074 215.177 351.073 213.798V89.2178C351.074 88.2074 351.476 87.2387 352.19 86.5242C352.905 85.8097 353.873 85.4078 354.884 85.4067H559.637C560.665 85.4078 561.65 85.8167 562.377 86.5435C563.104 87.2703 563.513 88.2558 563.514 89.2837V213.798C563.512 215.177 562.964 216.499 561.989 217.475C561.013 218.45 559.691 218.998 558.312 219Z" fill="#F2F2F2"/>
<path d="M551.78 212.432H363.486C360.726 212.432 358.48 210.329 358.48 207.745V99.2586C358.48 97.3417 360.144 95.7822 362.19 95.7822H553.015C555.094 95.7822 556.785 97.3674 556.785 99.3159V207.745C556.785 210.329 554.54 212.432 551.78 212.432Z" fill="white"/>
<path d="M563.442 89.866H351V87.2177C351.002 85.8339 351.553 84.5074 352.532 83.5293C353.51 82.5511 354.837 82.0011 356.221 82H558.221C559.605 82.0011 560.931 82.5511 561.91 83.5293C562.889 84.5074 563.44 85.8339 563.442 87.2177V89.866Z" fill="#3F3D56"/>
<path d="M360.488 87.2913C361.234 87.2913 361.839 86.6867 361.839 85.9409C361.839 85.1951 361.234 84.5905 360.488 84.5905C359.742 84.5905 359.138 85.1951 359.138 85.9409C359.138 86.6867 359.742 87.2913 360.488 87.2913Z" fill="#F55F44"/>
<path d="M365.614 87.2913C366.36 87.2913 366.965 86.6867 366.965 85.9409C366.965 85.1951 366.36 84.5905 365.614 84.5905C364.868 84.5905 364.264 85.1951 364.264 85.9409C364.264 86.6867 364.868 87.2913 365.614 87.2913Z" fill="#ECC762"/>
<path d="M370.74 87.2913C371.486 87.2913 372.091 86.6867 372.091 85.9409C372.091 85.1951 371.486 84.5905 370.74 84.5905C369.994 84.5905 369.39 85.1951 369.39 85.9409C369.39 86.6867 369.994 87.2913 370.74 87.2913Z" fill="#4DB677"/>
<path d="M453.166 119.503H416.34C415.791 119.503 415.265 119.285 414.876 118.896C414.488 118.508 414.27 117.982 414.27 117.433C414.27 116.884 414.488 116.357 414.876 115.969C415.265 115.581 415.791 115.363 416.34 115.363H453.166C453.715 115.363 454.242 115.581 454.63 115.969C455.018 116.357 455.236 116.884 455.236 117.433C455.236 117.982 455.018 118.508 454.63 118.896C454.242 119.285 453.715 119.503 453.166 119.503Z" fill="#CCCCCC"/>
<path d="M498.927 119.503H462.1C461.551 119.503 461.025 119.285 460.637 118.896C460.248 118.508 460.03 117.982 460.03 117.433C460.03 116.884 460.248 116.357 460.637 115.969C461.025 115.581 461.551 115.363 462.1 115.363H498.927C499.476 115.363 500.002 115.581 500.39 115.969C500.779 116.357 500.997 116.884 500.997 117.433C500.997 117.982 500.779 118.508 500.39 118.896C500.002 119.285 499.476 119.503 498.927 119.503Z" fill="#CCCCCC"/>
<path d="M498.926 127.347H434.862C434.313 127.347 433.787 127.129 433.398 126.741C433.01 126.353 432.792 125.826 432.792 125.277C432.792 124.728 433.01 124.202 433.398 123.814C433.787 123.425 434.313 123.207 434.862 123.207H498.926C499.476 123.207 500.002 123.425 500.39 123.814C500.778 124.202 500.997 124.728 500.997 125.277C500.997 125.826 500.778 126.353 500.39 126.741C500.002 127.129 499.476 127.347 498.926 127.347Z" fill="#CCCCCC"/>
<path d="M453.166 111.549H416.34C415.791 111.549 415.266 111.33 414.878 110.942C414.49 110.554 414.272 110.028 414.272 109.479C414.272 108.931 414.49 108.404 414.878 108.016C415.266 107.628 415.791 107.41 416.34 107.409H453.166C453.438 107.409 453.708 107.462 453.959 107.566C454.211 107.67 454.439 107.822 454.632 108.014C454.824 108.207 454.977 108.435 455.081 108.686C455.185 108.938 455.239 109.207 455.239 109.479C455.239 109.751 455.185 110.021 455.081 110.272C454.977 110.523 454.824 110.752 454.632 110.944C454.439 111.136 454.211 111.288 453.959 111.392C453.708 111.496 453.438 111.55 453.166 111.549Z" fill="#CCCCCC"/>
<path d="M473.431 111.658H462.972C462.423 111.658 461.896 111.44 461.508 111.052C461.12 110.664 460.902 110.137 460.902 109.588C460.902 109.039 461.12 108.513 461.508 108.124C461.896 107.736 462.423 107.518 462.972 107.518H473.431C473.98 107.518 474.507 107.736 474.895 108.124C475.283 108.513 475.502 109.039 475.502 109.588C475.502 110.137 475.283 110.664 474.895 111.052C474.507 111.44 473.98 111.658 473.431 111.658Z" fill="#CCCCCC"/>
<path d="M426.8 127.347H416.34C415.791 127.347 415.266 127.128 414.878 126.74C414.49 126.352 414.272 125.826 414.272 125.277C414.272 124.729 414.49 124.203 414.878 123.814C415.266 123.426 415.791 123.208 416.34 123.207H426.8C427.072 123.207 427.341 123.26 427.592 123.364C427.844 123.468 428.072 123.62 428.265 123.813C428.457 124.005 428.61 124.233 428.714 124.485C428.819 124.736 428.872 125.005 428.872 125.277C428.872 125.549 428.819 125.819 428.714 126.07C428.61 126.321 428.457 126.55 428.265 126.742C428.072 126.934 427.844 127.087 427.592 127.191C427.341 127.294 427.072 127.348 426.8 127.347Z" fill="#CCCCCC"/>
<path d="M453.166 192.961H416.34C415.791 192.961 415.265 192.743 414.876 192.355C414.488 191.966 414.27 191.44 414.27 190.891C414.27 190.342 414.488 189.815 414.876 189.427C415.265 189.039 415.791 188.821 416.34 188.821H453.166C453.438 188.821 453.707 188.874 453.958 188.978C454.21 189.082 454.438 189.235 454.63 189.427C454.822 189.619 454.975 189.847 455.079 190.099C455.183 190.35 455.236 190.619 455.236 190.891C455.236 191.163 455.183 191.432 455.079 191.683C454.975 191.934 454.822 192.162 454.63 192.355C454.438 192.547 454.21 192.699 453.958 192.803C453.707 192.907 453.438 192.961 453.166 192.961Z" fill="#CCCCCC"/>
<path d="M498.927 192.961H462.1C461.551 192.961 461.025 192.743 460.637 192.355C460.248 191.966 460.03 191.44 460.03 190.891C460.03 190.342 460.248 189.815 460.637 189.427C461.025 189.039 461.551 188.821 462.1 188.821H498.927C499.198 188.821 499.468 188.874 499.719 188.978C499.97 189.082 500.198 189.235 500.39 189.427C500.583 189.619 500.735 189.847 500.839 190.099C500.943 190.35 500.997 190.619 500.997 190.891C500.997 191.163 500.943 191.432 500.839 191.683C500.735 191.934 500.583 192.162 500.39 192.355C500.198 192.547 499.97 192.699 499.719 192.803C499.468 192.907 499.198 192.961 498.927 192.961Z" fill="#CCCCCC"/>
<path d="M498.926 200.805H434.862C434.313 200.805 433.787 200.587 433.398 200.199C433.01 199.811 432.792 199.284 432.792 198.735C432.792 198.186 433.01 197.66 433.398 197.271C433.787 196.883 434.313 196.665 434.862 196.665H498.926C499.199 196.665 499.468 196.718 499.719 196.822C499.971 196.926 500.199 197.078 500.392 197.271C500.584 197.463 500.737 197.691 500.841 197.942C500.946 198.194 500.999 198.463 500.999 198.735C500.999 199.007 500.946 199.277 500.841 199.528C500.737 199.779 500.584 200.008 500.392 200.2C500.199 200.392 499.971 200.545 499.719 200.648C499.468 200.752 499.199 200.806 498.926 200.805Z" fill="#CCCCCC"/>
<path d="M453.166 185.007H416.34C415.791 185.007 415.265 184.789 414.876 184.401C414.488 184.013 414.27 183.486 414.27 182.937C414.27 182.388 414.488 181.861 414.876 181.473C415.265 181.085 415.791 180.867 416.34 180.867H453.166C453.715 180.867 454.242 181.085 454.63 181.473C455.018 181.861 455.236 182.388 455.236 182.937C455.236 183.486 455.018 184.013 454.63 184.401C454.242 184.789 453.715 185.007 453.166 185.007Z" fill="#CCCCCC"/>
<path d="M473.431 185.116H462.972C462.423 185.116 461.896 184.898 461.508 184.51C461.12 184.122 460.902 183.595 460.902 183.046C460.902 182.497 461.12 181.97 461.508 181.582C461.896 181.194 462.423 180.976 462.972 180.976H473.431C473.98 180.976 474.507 181.194 474.895 181.582C475.283 181.97 475.502 182.497 475.502 183.046C475.502 183.595 475.283 184.122 474.895 184.51C474.507 184.898 473.98 185.116 473.431 185.116Z" fill="#CCCCCC"/>
<path d="M426.8 200.805H416.34C415.791 200.805 415.265 200.587 414.876 200.199C414.488 199.811 414.27 199.284 414.27 198.735C414.27 198.186 414.488 197.66 414.876 197.271C415.265 196.883 415.791 196.665 416.34 196.665H426.8C427.072 196.665 427.341 196.718 427.593 196.822C427.844 196.926 428.073 197.078 428.265 197.271C428.458 197.463 428.61 197.691 428.714 197.942C428.819 198.194 428.872 198.463 428.872 198.735C428.872 199.007 428.819 199.277 428.714 199.528C428.61 199.779 428.458 200.008 428.265 200.2C428.073 200.392 427.844 200.545 427.593 200.648C427.341 200.752 427.072 200.806 426.8 200.805Z" fill="#CCCCCC"/>
<path d="M443.548 170.736C442.767 170.738 442.016 170.431 441.46 169.882L427.617 156.212C427.345 155.944 427.13 155.624 426.982 155.272C426.835 154.919 426.759 154.541 426.759 154.159C426.759 153.777 426.835 153.399 426.982 153.047C427.13 152.694 427.345 152.375 427.617 152.106L441.404 138.492C441.979 137.927 442.753 137.612 443.558 137.615C444.363 137.617 445.135 137.937 445.706 138.505C446.277 139.078 446.598 139.854 446.598 140.663C446.598 141.472 446.277 142.247 445.706 142.82L435.461 153.065C435.142 153.385 434.962 153.819 434.962 154.271C434.962 154.723 435.142 155.156 435.461 155.476L445.65 165.666C446.066 166.081 446.35 166.61 446.465 167.187C446.58 167.763 446.521 168.361 446.296 168.904C446.071 169.447 445.689 169.911 445.2 170.237C444.711 170.564 444.136 170.737 443.548 170.737V170.736Z" fill="#A5B3FC"/>
<path d="M465.606 170.737C465.018 170.737 464.443 170.564 463.954 170.237C463.465 169.911 463.084 169.447 462.859 168.904C462.634 168.361 462.575 167.763 462.69 167.187C462.805 166.61 463.088 166.081 463.504 165.666L473.694 155.476C474.013 155.156 474.192 154.723 474.192 154.271C474.192 153.819 474.013 153.385 473.694 153.065L463.449 142.82C463.166 142.537 462.941 142.2 462.787 141.83C462.634 141.46 462.555 141.063 462.555 140.663C462.555 140.262 462.634 139.865 462.787 139.495C462.941 139.125 463.166 138.788 463.449 138.505C464.02 137.937 464.792 137.617 465.597 137.615C466.402 137.612 467.176 137.927 467.75 138.492L481.537 152.106C481.809 152.375 482.025 152.694 482.172 153.047C482.32 153.399 482.395 153.777 482.395 154.159C482.395 154.541 482.32 154.919 482.172 155.272C482.025 155.624 481.809 155.944 481.537 156.212L467.694 169.882C467.138 170.431 466.388 170.738 465.606 170.737Z" fill="#A5B3FC"/>
</g>
<path d="M681.962 220.252V272.671C681.962 273.43 681.661 274.159 681.124 274.695C680.587 275.232 679.859 275.534 679.1 275.534C678.341 275.534 677.613 275.232 677.076 274.695C676.539 274.159 676.237 273.43 676.237 272.671V220.252C676.237 218.671 677.518 219.894 679.1 219.894C679.891 219.894 679.833 219.02 680.352 219.537C680.869 220.055 681.962 219.461 681.962 220.252Z" fill="#A0616A"/>
<path opacity="0.1" d="M681.962 221.594H676.237V223.741H681.962V221.594Z" fill="black"/>
<path opacity="0.1" d="M681.962 228.392H676.237V230.539H681.962V228.392Z" fill="black"/>
<path opacity="0.1" d="M681.962 235.191H676.237V237.338H681.962V235.191Z" fill="black"/>
<path opacity="0.1" d="M681.962 241.989H676.237V244.136H681.962V241.989Z" fill="black"/>
<path opacity="0.1" d="M681.962 248.788H676.237V250.934H681.962V248.788Z" fill="black"/>
<path opacity="0.1" d="M681.962 255.586H676.237V257.733H681.962V255.586Z" fill="black"/>
<path opacity="0.1" d="M681.962 262.384H676.237V264.531H681.962V262.384Z" fill="black"/>
<path opacity="0.1" d="M681.962 269.183H676.237V271.329H681.962V269.183Z" fill="black"/>
<path d="M679.1 220.789C680.681 220.789 681.962 220.389 681.962 219.895C681.962 219.4 680.681 219 679.1 219C677.519 219 676.237 219.4 676.237 219.895C676.237 220.389 677.519 220.789 679.1 220.789Z" fill="#A0616A"/>
<path opacity="0.1" d="M679.1 220.789C680.681 220.789 681.962 220.389 681.962 219.895C681.962 219.4 680.681 219 679.1 219C677.519 219 676.237 219.4 676.237 219.895C676.237 220.389 677.519 220.789 679.1 220.789Z" fill="black"/>
<path d="M708.787 231.38L675.618 271.97C675.38 272.261 675.087 272.503 674.756 272.681C674.425 272.859 674.062 272.97 673.688 273.007C673.314 273.045 672.936 273.009 672.576 272.9C672.216 272.792 671.881 272.614 671.59 272.376C671.299 272.138 671.057 271.845 670.879 271.514C670.701 271.182 670.591 270.819 670.553 270.445C670.515 270.071 670.552 269.693 670.66 269.334C670.769 268.974 670.947 268.638 671.185 268.347L704.354 227.757C705.355 226.533 705.573 228.291 706.797 229.292C707.409 229.792 707.919 229.078 707.993 229.807C708.065 230.536 709.288 230.768 708.787 231.38Z" fill="#A0616A"/>
<path opacity="0.1" d="M703.505 228.797L702.146 230.459L706.58 234.082L707.938 232.419L703.505 228.797Z" fill="black"/>
<path opacity="0.1" d="M699.204 234.061L697.845 235.723L702.278 239.346L703.637 237.683L699.204 234.061Z" fill="black"/>
<path opacity="0.1" d="M694.902 239.325L693.543 240.987L697.977 244.61L699.335 242.948L694.902 239.325Z" fill="black"/>
<path opacity="0.1" d="M690.6 244.589L689.241 246.252L693.674 249.874L695.033 248.212L690.6 244.589Z" fill="black"/>
<path opacity="0.1" d="M686.298 249.853L684.939 251.516L689.373 255.138L690.731 253.476L686.298 249.853Z" fill="black"/>
<path opacity="0.1" d="M681.996 255.118L680.638 256.78L685.071 260.403L686.429 258.74L681.996 255.118Z" fill="black"/>
<path opacity="0.1" d="M677.694 260.382L676.336 262.044L680.769 265.667L682.127 264.004L677.694 260.382Z" fill="black"/>
<path opacity="0.1" d="M673.393 265.646L672.034 267.309L676.467 270.931L677.826 269.269L673.393 265.646Z" fill="black"/>
<path d="M709.014 231.103C709.327 230.721 708.588 229.599 707.364 228.599C706.14 227.599 704.894 227.098 704.581 227.48C704.269 227.863 705.008 228.984 706.232 229.984C707.456 230.985 708.702 231.486 709.014 231.103Z" fill="#A0616A"/>
<path opacity="0.1" d="M709.014 231.103C709.327 230.721 708.588 229.599 707.364 228.599C706.14 227.599 704.894 227.098 704.581 227.48C704.269 227.863 705.008 228.984 706.232 229.984C707.456 230.985 708.702 231.486 709.014 231.103Z" fill="black"/>
<path d="M708.515 280.007H700.855L700.911 278.574L701.24 270.108L701.405 265.902H648.061L648.145 268.054L648.363 273.666L648.778 284.316L649.055 291.406L649.413 300.577L649.717 308.409L649.805 310.662L649.807 310.689L649.85 311.81L649.961 314.621L649.971 314.934L650.046 316.841L650.059 317.185L650.168 319.956L650.265 322.453L650.299 323.316L650.315 323.708L650.329 324.087C650.327 325.374 650.578 326.649 651.066 327.84C651.194 328.156 651.339 328.464 651.501 328.763C652.68 330.965 654.646 332.64 657.006 333.456C657.317 333.565 657.634 333.658 657.956 333.733C658.705 333.912 659.473 334.001 660.244 334H689.219C690.677 334.002 692.117 333.682 693.436 333.063C694.905 332.368 696.182 331.326 697.157 330.027C697.572 329.476 697.927 328.883 698.216 328.257C698.24 328.207 698.263 328.157 698.283 328.107C698.776 327.002 699.06 325.815 699.12 324.606C699.129 324.434 699.134 324.26 699.134 324.087L699.227 321.699L699.342 318.766L699.353 318.475L699.471 315.43H708.515C711.721 315.426 714.794 314.151 717.061 311.884C719.328 309.618 720.603 306.544 720.606 303.339V292.097C720.603 288.892 719.328 285.819 717.061 283.552C714.794 281.285 711.721 280.01 708.515 280.007ZM713.45 303.339C713.449 304.647 712.928 305.901 712.003 306.827C711.078 307.752 709.824 308.272 708.515 308.274H699.752L699.753 308.241L699.836 306.127L699.898 304.513L700.252 295.435L700.575 287.163H708.515C709.824 287.164 711.078 287.685 712.003 288.61C712.928 289.535 713.449 290.789 713.45 292.097L713.45 303.339Z" fill="#6A729E"/>
<path d="M660.894 233.094C664.091 233.094 666.683 230.502 666.683 227.305C666.683 224.108 664.091 221.516 660.894 221.516C657.697 221.516 655.105 224.108 655.105 227.305C655.105 230.502 657.697 233.094 660.894 233.094Z" fill="#D0CDE1"/>
<path d="M664.529 246.815C668.919 246.815 672.479 243.255 672.479 238.865C672.479 234.474 668.919 230.915 664.529 230.915C660.138 230.915 656.579 234.474 656.579 238.865C656.579 243.255 660.138 246.815 664.529 246.815Z" fill="#D0CDE1"/>
<path d="M666.869 229.957L657.733 232.83C657.665 232.851 657.609 232.898 657.576 232.961C657.543 233.024 657.537 233.097 657.558 233.164L657.722 233.686C657.733 233.72 657.75 233.751 657.772 233.778C657.795 233.804 657.822 233.827 657.853 233.843C657.884 233.859 657.918 233.869 657.953 233.872C657.988 233.875 658.023 233.871 658.057 233.861L659.61 233.372L659.819 233.475L660.629 240.967L661.914 241.871L661.039 234.076L666.929 236.977L668.185 236.34L661.186 232.877L667.193 230.988C667.227 230.977 667.258 230.96 667.285 230.938C667.311 230.915 667.334 230.888 667.35 230.857C667.366 230.826 667.376 230.792 667.379 230.757C667.382 230.722 667.378 230.687 667.368 230.653L667.204 230.131C667.193 230.098 667.176 230.067 667.154 230.04C667.131 230.013 667.104 229.991 667.073 229.975C667.041 229.959 667.007 229.949 666.973 229.946C666.938 229.943 666.903 229.946 666.869 229.957Z" fill="#A5B3FC"/>
<path d="M657.042 225.523C657.042 225.523 659.035 223.596 658.903 223.173C658.77 222.751 657.442 221.776 655.752 222.307C655.752 222.307 655.09 221.679 654.769 222.43C654.448 223.181 655.342 223.364 655.342 223.364C655.342 223.364 654.89 225.178 656.535 225.682L657.042 225.523Z" fill="#A5B3FC"/>
<path d="M658.485 227.312C658.741 227.312 658.948 227.105 658.948 226.849C658.948 226.593 658.741 226.386 658.485 226.386C658.229 226.386 658.022 226.593 658.022 226.849C658.022 227.105 658.229 227.312 658.485 227.312Z" fill="#3F3D56"/>
<path d="M662.608 226.015C662.864 226.015 663.071 225.808 663.071 225.552C663.071 225.296 662.864 225.089 662.608 225.089C662.352 225.089 662.145 225.296 662.145 225.552C662.145 225.808 662.352 226.015 662.608 226.015Z" fill="#3F3D56"/>
<path d="M661.253 227.03L660.443 227.285L661.23 229.789L662.04 229.534L661.253 227.03Z" fill="#FF6584"/>
<path d="M663.819 236.557C664.075 236.557 664.282 236.35 664.282 236.094C664.282 235.838 664.075 235.631 663.819 235.631C663.563 235.631 663.356 235.838 663.356 236.094C663.356 236.35 663.563 236.557 663.819 236.557Z" fill="#3F3D56"/>
<path d="M664.329 238.177C664.585 238.177 664.792 237.97 664.792 237.714C664.792 237.458 664.585 237.251 664.329 237.251C664.073 237.251 663.866 237.458 663.866 237.714C663.866 237.97 664.073 238.177 664.329 238.177Z" fill="#3F3D56"/>
<path d="M664.839 239.797C665.094 239.797 665.302 239.59 665.302 239.334C665.302 239.078 665.094 238.871 664.839 238.871C664.583 238.871 664.375 239.078 664.375 239.334C664.375 239.59 664.583 239.797 664.839 239.797Z" fill="#3F3D56"/>
<path d="M661.924 230.581C661.186 230.803 660.405 230.837 659.651 230.68L659.68 230.528C660.408 230.689 661.166 230.656 661.877 230.433C662.588 230.209 663.228 229.802 663.733 229.254L663.844 229.361C663.316 229.922 662.655 230.341 661.924 230.581Z" fill="#3F3D56"/>
<path d="M664.203 226.893C664.416 226.893 664.589 226.72 664.589 226.507C664.589 226.294 664.416 226.121 664.203 226.121C663.99 226.121 663.817 226.294 663.817 226.507C663.817 226.72 663.99 226.893 664.203 226.893Z" fill="#FF6584"/>
<path d="M657.723 228.931C657.936 228.931 658.109 228.758 658.109 228.545C658.109 228.332 657.936 228.159 657.723 228.159C657.51 228.159 657.337 228.332 657.337 228.545C657.337 228.758 657.51 228.931 657.723 228.931Z" fill="#FF6584"/>
<path d="M682.132 287.993C682.634 287.993 683.04 287.586 683.04 287.084C683.04 286.583 682.634 286.176 682.132 286.176C681.63 286.176 681.223 286.583 681.223 287.084C681.223 287.586 681.63 287.993 682.132 287.993Z" fill="#D0CDE1"/>
<path d="M684.994 303.021C685.496 303.021 685.903 302.614 685.903 302.112C685.903 301.61 685.496 301.203 684.994 301.203C684.492 301.203 684.085 301.61 684.085 302.112C684.085 302.614 684.492 303.021 684.994 303.021Z" fill="#D0CDE1"/>
<path d="M667.103 306.778C667.605 306.778 668.012 306.371 668.012 305.869C668.012 305.368 667.605 304.961 667.103 304.961C666.602 304.961 666.195 305.368 666.195 305.869C666.195 306.371 666.602 306.778 667.103 306.778Z" fill="#D0CDE1"/>
<path d="M676.228 323.953C676.73 323.953 677.137 323.546 677.137 323.044C677.137 322.542 676.73 322.136 676.228 322.136C675.726 322.136 675.319 322.542 675.319 323.044C675.319 323.546 675.726 323.953 676.228 323.953Z" fill="#D0CDE1"/>
<path d="M655.832 310.177C656.334 310.177 656.741 309.77 656.741 309.268C656.741 308.767 656.334 308.36 655.832 308.36C655.331 308.36 654.924 308.767 654.924 309.268C654.924 309.77 655.331 310.177 655.832 310.177Z" fill="#D0CDE1"/>
<path d="M655.117 292.644C655.619 292.644 656.026 292.238 656.026 291.736C656.026 291.234 655.619 290.827 655.117 290.827C654.615 290.827 654.208 291.234 654.208 291.736C654.208 292.238 654.615 292.644 655.117 292.644Z" fill="#D0CDE1"/>
<path d="M692.866 285.667C693.368 285.667 693.774 285.26 693.774 284.758C693.774 284.256 693.368 283.85 692.866 283.85C692.364 283.85 691.957 284.256 691.957 284.758C691.957 285.26 692.364 285.667 692.866 285.667Z" fill="#D0CDE1"/>
<path d="M664.42 323.058C664.922 323.058 665.329 322.652 665.329 322.15C665.329 321.648 664.922 321.241 664.42 321.241C663.919 321.241 663.512 321.648 663.512 322.15C663.512 322.652 663.919 323.058 664.42 323.058Z" fill="#D0CDE1"/>
<path d="M659.947 281.876C660.627 281.876 661.178 281.324 661.178 280.644C661.178 279.964 660.627 279.412 659.947 279.412C659.266 279.412 658.715 279.964 658.715 280.644C658.715 281.324 659.266 281.876 659.947 281.876Z" fill="#D0CDE1"/>
<path d="M672.113 294.757C672.793 294.757 673.345 294.205 673.345 293.525C673.345 292.845 672.793 292.293 672.113 292.293C671.432 292.293 670.881 292.845 670.881 293.525C670.881 294.205 671.432 294.757 672.113 294.757Z" fill="#D0CDE1"/>
<path d="M687.856 320.698C688.537 320.698 689.088 320.147 689.088 319.466C689.088 318.786 688.537 318.234 687.856 318.234C687.176 318.234 686.625 318.786 686.625 319.466C686.625 320.147 687.176 320.698 687.856 320.698Z" fill="#D0CDE1"/>
<path d="M674.732 269.144C689.495 269.144 701.464 267.692 701.464 265.901C701.464 264.111 689.495 262.659 674.732 262.659C659.968 262.659 648 264.111 648 265.901C648 267.692 659.968 269.144 674.732 269.144Z" fill="#A0616A"/>
<path d="M675.395 232.345C675.395 232.345 676.218 238.77 668.27 240.927C660.323 243.084 658.277 247.745 658.277 247.745C658.277 247.745 649.777 250.077 654.978 255.356C654.978 255.356 642.91 263.683 654.697 267.116C666.485 270.549 698.328 268.226 696.993 261.72C696.993 261.72 698.65 258.702 694.811 258.097C694.811 258.097 700.157 250.808 686.659 246.581C686.659 246.581 688.854 244.304 682.981 244.952C682.981 244.952 686.642 230.053 675.395 232.345Z" fill="#D0CDE1"/>
<path d="M658.139 248.111L658.118 247.594C667.562 247.206 672.749 244.26 675.436 241.857C678.34 239.261 679.031 236.722 679.038 236.697L679.539 236.827C679.511 236.936 678.816 239.517 675.812 242.216C673.062 244.688 667.763 247.717 658.139 248.111Z" fill="#A0616A"/>
<path d="M654.888 255.717L654.772 255.211C654.813 255.202 658.99 254.253 670.511 251.92C678.398 250.323 680.287 248.682 680.712 247.846C680.799 247.706 680.833 247.54 680.807 247.377L681.277 247.161C681.295 247.199 681.442 247.551 681.174 248.08C680.603 249.204 678.309 250.87 670.614 252.428C659.101 254.76 654.928 255.707 654.888 255.717Z" fill="#A0616A"/>
<path d="M660.108 257.851C660.059 257.851 660.023 257.851 660.001 257.851L660.004 257.332C660.184 257.335 678.967 257.358 684.747 251.144C685.975 249.824 686.532 248.295 686.4 246.601L686.917 246.561C687.06 248.406 686.457 250.067 685.126 251.498C679.358 257.697 661.806 257.851 660.108 257.851Z" fill="#A0616A"/>
<path d="M682.107 264.218C682.091 264.218 682.081 264.218 682.078 264.218L682.086 263.7C682.174 263.699 691.138 263.758 694.588 257.964L695.033 258.229C691.531 264.113 682.686 264.218 682.107 264.218Z" fill="#A0616A"/>
<path d="M676.647 231.987C676.647 231.987 677.47 238.412 669.523 240.569C661.576 242.726 659.529 247.387 659.529 247.387C659.529 247.387 651.03 249.719 656.23 254.998C656.23 254.998 644.162 263.325 655.95 266.758C667.737 270.191 699.581 267.868 698.246 261.362C698.246 261.362 699.902 258.344 696.063 257.739C696.063 257.739 701.409 250.45 687.911 246.223C687.911 246.223 690.106 243.946 684.233 244.594C684.233 244.594 687.895 229.695 676.647 231.987Z" fill="#D0CDE1"/>
<path d="M659.391 247.754L659.37 247.236C668.814 246.849 674.001 243.903 676.688 241.499C679.592 238.903 680.283 236.365 680.29 236.339L680.791 236.47C680.763 236.578 680.068 239.159 677.064 241.858C674.314 244.33 669.015 247.359 659.391 247.754Z" fill="#A0616A"/>
<path d="M656.14 255.359L656.024 254.853C656.065 254.844 660.242 253.895 671.763 251.562C679.65 249.965 681.539 248.324 681.964 247.488C682.051 247.348 682.085 247.182 682.059 247.019L682.529 246.803C682.547 246.841 682.694 247.193 682.426 247.722C681.855 248.846 679.561 250.512 671.866 252.07C660.353 254.402 656.18 255.349 656.14 255.359Z" fill="#A0616A"/>
<path d="M661.361 257.493C661.312 257.493 661.276 257.493 661.254 257.493L661.257 256.974C661.436 256.977 680.219 257 685.999 250.786C687.228 249.466 687.784 247.937 687.653 246.243L688.169 246.203C688.312 248.048 687.71 249.709 686.379 251.14C680.611 257.34 663.059 257.493 661.361 257.493Z" fill="#A0616A"/>
<path d="M683.36 263.86C683.343 263.86 683.334 263.86 683.331 263.86L683.339 263.342C683.426 263.341 692.391 263.401 695.841 257.606L696.286 257.872C692.783 263.755 683.938 263.86 683.36 263.86Z" fill="#A0616A"/>
<defs>
<filter id="filter0_d" x="0" y="9" width="749" height="503" filterUnits="userSpaceOnUse" color-interpolation-filters="sRGB">
<feFlood flood-opacity="0" result="BackgroundImageFix"/>
<feColorMatrix in="SourceAlpha" type="matrix" values="0 0 0 0 0 0 0 0 0 0 0 0 0 0 0 0 0 0 127 0"/>
<feOffset dx="-4" dy="4"/>
<feGaussianBlur stdDeviation="6"/>
<feColorMatrix type="matrix" values="0 0 0 0 0 0 0 0 0 0 0 0 0 0 0 0 0 0 0.25 0"/>
<feBlend mode="normal" in2="BackgroundImageFix" result="effect1_dropShadow"/>
<feBlend mode="normal" in="SourceGraphic" in2="effect1_dropShadow" result="shape"/>
</filter>
<filter id="filter1_d" x="335" y="74" width="236.514" height="161" filterUnits="userSpaceOnUse" color-interpolation-filters="sRGB">
<feFlood flood-opacity="0" result="BackgroundImageFix"/>
<feColorMatrix in="SourceAlpha" type="matrix" values="0 0 0 0 0 0 0 0 0 0 0 0 0 0 0 0 0 0 127 0"/>
<feOffset dx="-4" dy="4"/>
<feGaussianBlur stdDeviation="6"/>
<feColorMatrix type="matrix" values="0 0 0 0 0 0 0 0 0 0 0 0 0 0 0 0 0 0 0.25 0"/>
<feBlend mode="normal" in2="BackgroundImageFix" result="effect1_dropShadow"/>
<feBlend mode="normal" in="SourceGraphic" in2="effect1_dropShadow" result="shape"/>
</filter>
<linearGradient id="paint0_linear" x1="399.633" y1="343.845" x2="399.633" y2="0" gradientUnits="userSpaceOnUse">
<stop stop-color="#808080" stop-opacity="0.25"/>
<stop offset="0.54" stop-color="#808080" stop-opacity="0.12"/>
<stop offset="1" stop-color="#808080" stop-opacity="0.1"/>
</linearGradient>
<linearGradient id="paint1_linear" x1="117160" y1="35492.6" x2="117160" y2="9769.44" gradientUnits="userSpaceOnUse">
<stop stop-color="#808080" stop-opacity="0.25"/>
<stop offset="0.54" stop-color="#808080" stop-opacity="0.12"/>
<stop offset="1" stop-color="#808080" stop-opacity="0.1"/>
</linearGradient>
<linearGradient id="paint2_linear" x1="16599.6" y1="106172" x2="38029.8" y2="106172" gradientUnits="userSpaceOnUse">
<stop stop-color="#808080" stop-opacity="0.25"/>
<stop offset="0.54" stop-color="#808080" stop-opacity="0.12"/>
<stop offset="1" stop-color="#808080" stop-opacity="0.1"/>
</linearGradient>
</defs>
</svg>
