<svg width="70px" height="70px" viewBox="0 0 55 60" fill="none" xmlns="http://www.w3.org/2000/svg"><path d="M0 44.6326H2.22856L2.2228 48.1851H2.23851L3.85218 44.6326H5.6895L5.78115 48.1851H5.79791L7.30474 44.6326H9.5333L6.58825 50.4503H4.32775L4.223 47.2239H4.20624L2.71931 50.4503H0.458805L0 44.6326Z" fill="#ffffff"></path><path d="M13.0047 48.4239C12.6464 48.4969 12.0567 48.5463 11.3161 48.6114C10.9338 48.644 10.7279 48.7658 10.6672 49.051C10.6017 49.3609 10.8133 49.5568 11.3187 49.5568C12.0048 49.5568 12.8004 49.3856 12.9633 48.6198L13.0047 48.4239ZM9.16926 47.3483C9.4217 46.7375 9.75428 46.363 10.311 46.1262C10.8573 45.8982 11.6173 45.8163 12.6951 45.8163C14.776 45.8163 15.5019 46.2811 15.2186 47.6093L14.7608 49.7601C14.6875 50.1025 14.7346 50.3058 14.8011 50.4528H12.7119C12.6993 50.3057 12.706 50.1575 12.7318 50.0122C12.1845 50.436 11.4486 50.6314 10.3634 50.6314C8.99223 50.6314 8.20503 50.2637 8.44805 49.1246C8.62141 48.3094 9.31224 47.7879 10.8358 47.7228L12.5752 47.6419C12.989 47.6172 13.1513 47.5195 13.2006 47.2743C13.2629 46.9812 12.9256 46.8431 12.3458 46.8431C11.8802 46.8431 11.3999 46.9155 11.2093 47.3478L9.16926 47.3483Z" fill="#ffffff"></path><path d="M16.8588 44.4292H18.8993L17.6172 50.4496H15.5767L16.8588 44.4292Z" fill="#ffffff"></path><path d="M19.8793 44.4292H21.9194L20.6372 50.4496H18.5967L19.8793 44.4292Z" fill="#ffffff"></path><path d="M26.1467 48.424C25.7884 48.497 25.1987 48.5464 24.4576 48.6115C24.0752 48.6441 23.8699 48.7659 23.8092 49.0511C23.7432 49.361 23.9548 49.5569 24.4607 49.5569C25.1468 49.5569 25.9419 49.3856 26.1053 48.6199L26.1467 48.424ZM22.3118 47.3457C22.5637 46.7349 22.8968 46.3605 23.4535 46.1236C23.9998 45.8957 24.7598 45.8137 25.8376 45.8137C27.9185 45.8137 28.6439 46.2785 28.3611 47.6068L27.9033 49.7575C27.83 50.0999 27.8771 50.3032 27.9431 50.4502H25.8534C25.841 50.3031 25.8477 50.155 25.8733 50.0096C25.3265 50.4334 24.5906 50.6299 23.5054 50.6299C22.1337 50.6299 21.347 50.2622 21.5895 49.123C21.7634 48.3079 22.4542 47.7864 23.9778 47.7213L25.7161 47.6393C26.1299 47.6146 26.2923 47.517 26.3415 47.2717C26.4038 46.9786 26.066 46.8405 25.4867 46.8405C25.0211 46.8405 24.5403 46.913 24.3502 47.3452L22.3118 47.3457Z" fill="#ffffff"></path><path d="M32.1305 49.26C32.9224 49.26 33.3393 48.8361 33.4639 48.2505C33.5854 47.6796 33.3068 47.2401 32.5688 47.2401C31.7775 47.2401 31.3611 47.6229 31.228 48.2505C31.095 48.8782 31.3469 49.26 32.1305 49.26ZM30.0009 44.4281H32.0435L31.603 46.4974H31.6198C32.0608 46.0736 32.6919 45.8672 33.5247 45.8672C34.8472 45.8672 35.9088 46.5925 35.5563 48.2469C35.2038 49.9013 33.8311 50.6297 32.5086 50.6297C31.6025 50.6297 31.0882 50.4018 30.8106 49.9779H30.7965L30.6959 50.4506H28.7188L30.0009 44.4281Z" fill="#ffffff"></path><path d="M37.1026 44.4287H39.1452L38.9058 45.5537H36.8632L37.1026 44.4287ZM36.7674 45.9933H38.81L37.8615 50.4502H35.8188L36.7674 45.9933Z" fill="#ffffff"></path><path d="M43.7092 47.6719C43.7705 47.1913 43.3698 46.8899 42.668 46.8899C41.9578 46.8899 41.5027 47.1094 41.2769 47.6719H43.7092ZM45.4345 49.1136C45.1804 49.5784 44.7536 49.9613 44.1775 50.2223C43.6013 50.4833 42.8681 50.6293 41.9253 50.6293C39.778 50.6293 38.721 49.8468 39.0678 48.2176C39.3962 46.6772 40.7553 45.8137 42.7628 45.8137C44.7384 45.8137 46.0504 46.4744 45.5439 48.6981H41.0554C40.9873 49.0133 41.2178 49.5049 42.1155 49.5049C42.646 49.5049 42.9807 49.3904 43.2604 49.1136H45.4345Z" fill="#ffffff"></path><path d="M47.6652 48.682C46.5083 48.5601 46.2653 48.0869 46.4308 47.3133C46.6544 46.2629 47.7291 45.8143 49.721 45.8143C51.1084 45.8143 52.5806 46.067 52.3523 47.3295H50.0509C50.0755 47.2151 50.0556 47.1195 49.9545 47.0522C49.8535 46.985 49.677 46.9388 49.3748 46.9388C48.763 46.9388 48.619 47.0775 48.5828 47.2481C48.5588 47.3621 48.6384 47.4845 49.0705 47.5255L50.9769 47.6967C52.0579 47.7944 52.3706 48.2828 52.2088 49.0407C51.9637 50.1893 50.8743 50.6299 48.7201 50.6299C46.5973 50.6299 45.7687 50.1898 45.9442 49.0654H48.3424C48.3288 49.2445 48.3948 49.3589 48.5189 49.4241C48.6431 49.4892 48.8521 49.5055 49.0809 49.5055C49.6047 49.5055 49.788 49.3673 49.8315 49.163C49.8592 49.0328 49.8199 48.9109 49.6131 48.8868L47.6652 48.682Z" fill="#ffffff"></path><path d="M52.8728 44.8441H52.9603C53.0682 44.8441 53.1205 44.8762 53.1205 44.9492C53.1205 45.0222 53.0682 45.0511 52.9666 45.0511H52.8728V44.8441ZM52.7314 44.7533V45.4176H52.8733V45.1409H52.9781L53.109 45.4176H53.2693L53.1205 45.1183C53.1635 45.1116 53.2026 45.0891 53.23 45.0553C53.2575 45.0214 53.2715 44.9786 53.2693 44.935C53.2693 44.8184 53.1766 44.7538 52.9891 44.7538H52.7324L52.7314 44.7533ZM52.9728 44.5915C53.0399 44.591 53.1064 44.604 53.1685 44.6296C53.2305 44.6553 53.2867 44.6932 53.3339 44.741C53.3811 44.7888 53.4183 44.8456 53.4433 44.9081C53.4682 44.9705 53.4805 45.0374 53.4793 45.1046C53.4798 45.1699 53.4669 45.2346 53.4414 45.2947C53.4159 45.3548 53.3784 45.409 53.3311 45.4539C53.2827 45.5015 53.2254 45.539 53.1625 45.5643C53.0995 45.5897 53.0322 45.6023 52.9645 45.6015C52.8323 45.5994 52.7062 45.5457 52.613 45.4518C52.5192 45.3576 52.4664 45.2299 52.4664 45.0967C52.4675 44.9612 52.5221 44.8317 52.6183 44.7365C52.6645 44.6898 52.7197 44.653 52.7804 44.6281C52.8411 44.6032 52.9062 44.5907 52.9718 44.5915H52.9728ZM52.9718 44.5054C52.8951 44.5041 52.819 44.5184 52.7479 44.5472C52.6768 44.5761 52.6122 44.619 52.558 44.6734C52.5018 44.7287 52.457 44.7945 52.4263 44.8671C52.3955 44.9398 52.3794 45.0178 52.3789 45.0967C52.379 45.1738 52.3943 45.2501 52.4238 45.3212C52.4534 45.3923 52.4967 45.4568 52.5512 45.5111C52.6058 45.5673 52.6709 45.612 52.7428 45.6427C52.8148 45.6735 52.892 45.6896 52.9702 45.6902C53.1273 45.6894 53.2777 45.6268 53.3892 45.5159C53.4455 45.4616 53.4901 45.3963 53.5201 45.324C53.5501 45.2517 53.5649 45.174 53.5636 45.0957C53.5643 45.0188 53.5498 44.9426 53.5207 44.8714C53.4917 44.8002 53.4487 44.7356 53.3945 44.6813C53.3393 44.6244 53.2731 44.5794 53.2 44.5489C53.1269 44.5185 53.0483 44.5033 52.9692 44.5043" fill="#ffffff"></path><path d="M33.0951 20.6737C33.1757 20.6737 33.2569 20.6737 33.3381 20.6779C34.6345 20.7435 35.9101 21.032 37.1091 21.5308C38.3692 22.0602 39.5398 22.8622 40.3857 23.9468C41.2619 25.0676 41.738 26.4153 41.8412 27.8265C41.9367 29.189 41.6667 30.5524 41.0592 31.775C40.4831 32.9415 39.6393 33.9593 38.6604 34.8096C38.1444 35.2597 37.5914 35.6653 37.0075 36.0223C36.7011 36.2088 36.3895 36.3842 36.0647 36.5428C35.9375 36.6048 35.7908 36.7003 35.6457 36.6972C35.5839 36.6952 35.5236 36.6774 35.4705 36.6455C35.4174 36.6136 35.3734 36.5687 35.3425 36.5149C35.166 36.2056 35.5027 35.9897 35.6971 35.8106C35.9537 35.5712 36.2004 35.3206 36.4387 35.0617C36.9117 34.5539 37.3441 34.0095 37.7318 33.4336C38.4954 32.2865 39.082 30.9651 39.1046 29.567C39.1255 28.2456 38.6489 26.9011 37.5941 26.0602C36.5392 25.2194 35.0995 24.8985 33.7707 24.8102C33.5654 24.7966 33.3596 24.7861 33.1543 24.7892C33.1543 24.7892 33.1364 24.7892 33.1543 24.7892C32.61 24.7975 32.0848 24.5887 31.6941 24.2086C31.3034 23.8286 31.0793 23.3085 31.071 22.7627C31.0628 22.217 31.271 21.6903 31.65 21.2985C32.029 20.9067 32.5477 20.682 33.0919 20.6737" fill="#FFD100"></path><path d="M29.2482 40.0432C29.8545 39.7545 30.4763 39.4997 31.1107 39.2801C31.9932 38.965 32.8914 38.7024 33.8012 38.4739C35.6208 38.0221 37.477 37.7346 39.3477 37.6147C40.3245 37.5511 41.2971 37.548 42.2744 37.5674C43.6885 37.5958 45.1027 37.7706 46.4958 38.0185C47.4106 38.1826 48.316 38.3951 49.2083 38.6551C49.6478 38.7827 50.0835 38.9214 50.5177 39.0669C50.6801 39.1194 50.8136 39.2155 50.8534 39.3925C50.8711 39.4733 50.8645 39.5575 50.8346 39.6346C50.8047 39.7116 50.7528 39.7782 50.6853 39.8258C50.5051 39.9513 50.2867 39.8783 50.0898 39.8452C49.8547 39.8042 49.6184 39.7612 49.3848 39.7202C48.4619 39.5639 47.5315 39.4554 46.5975 39.3951C44.715 39.2658 42.8247 39.308 40.9499 39.5212C39.0914 39.7374 37.2549 40.1129 35.4604 40.6435C34.5704 40.9051 33.6936 41.2071 32.8302 41.5495C32.0938 41.8426 31.3589 42.1535 30.6597 42.5279C30.4089 42.6624 30.158 42.758 29.8678 42.7554C29.5458 42.7551 29.2334 42.6454 28.9817 42.4441C28.7299 42.2428 28.5537 41.9619 28.4818 41.6471C28.4098 41.3324 28.4465 41.0025 28.5857 40.7114C28.7249 40.4203 28.9585 40.1851 29.2482 40.0443" fill="#FFD100"></path><path d="M41.0478 5.16854C43.2177 6.31979 45.4866 5.2804 45.4866 5.2804C45.3766 7.77145 43.7409 10.7016 43.1491 11.9931C42.8909 12.5545 43.2785 12.8581 43.93 12.3891C44.3731 12.0697 45.1289 11.137 45.5013 10.4805C46.1209 9.38751 46.5608 8.6559 47.0919 7.39593C47.5492 6.32402 47.9251 5.219 48.2164 4.09029C48.4536 3.18063 48.7846 1.98947 48.8129 1.04042C48.8265 0.580865 48.7888 -0.129213 48.1106 0.0204708C42.5703 2.98473 44.6978 3.6843 38.7878 0.0992516C38.3327 -0.176481 37.9624 0.174881 37.9163 0.519416C37.6691 2.34503 40.3748 8.20212 41.0902 8.36861C41.9806 8.57869 41.0007 7.15276 41.0499 5.17011" fill="#FFD100"></path><path d="M52.3283 16.6743C52.0313 16.7578 51.7349 16.8371 51.4432 16.9369C51.2405 16.9999 51.0409 17.0739 50.8398 17.1422C49.4524 17.6757 48.113 18.3273 46.8363 19.0897L46.2957 19.4284C46.0737 19.575 45.8521 19.7215 45.629 19.8665C45.4111 20.0198 45.1933 20.1721 44.9764 20.3255C44.8905 20.389 44.8057 20.4526 44.7203 20.5167C44.5176 20.6705 44.2945 20.9163 44.0394 20.9815C43.3308 21.1637 43.9347 19.8785 44.0394 19.6532C44.0918 19.5424 44.1531 19.4363 44.2102 19.3265C44.3845 19.0117 44.5894 18.7149 44.8219 18.4405C46.1596 16.7993 48.2703 15.8061 50.3873 15.8234C50.6361 15.8315 50.8842 15.8536 51.1305 15.8896C51.5369 15.9568 52.0628 16.0372 52.4074 16.2788C52.6336 16.4363 52.5561 16.6102 52.3252 16.6748L52.3283 16.6743ZM54.0645 16.4453C53.4135 14.7888 51.0048 14.5671 49.5079 14.7168C48.5808 14.8106 47.6754 15.0565 46.8279 15.4447C44.5035 15.3203 42.1204 15.8623 40.0191 16.7966C40.6429 15.4411 41.23 13.9117 41.1551 12.3949C41.1169 11.6071 40.8409 10.7667 40.1647 10.3004C39.818 10.0624 39.3754 9.98523 38.9674 9.92536C38.5283 9.8607 38.0843 9.83557 37.6408 9.85026C35.8228 9.90278 34.0746 10.564 32.5347 11.5047C31.6774 12.0299 30.8467 12.6323 30.1302 13.3387C30.1229 13.346 30.1161 13.3518 30.1093 13.3592H30.1129C28.1326 15.1202 26.8437 17.4815 25.8255 19.8927C24.6643 22.6395 23.7457 25.4841 22.4829 28.191C21.8754 29.4872 21.2118 30.7771 20.3586 31.9378C19.5286 33.0681 18.5332 34.0664 17.4062 34.8989C15.1777 36.5449 12.505 37.5023 9.7956 37.9976C6.82332 38.5454 3.74891 38.6026 0.752009 38.2177C0.50218 38.1851 0.215165 38.1436 0.0632774 38.3957C0.0306949 38.4511 0.0103166 38.5129 0.00351238 38.5768C-0.00329185 38.6408 0.00363559 38.7054 0.0238291 38.7665C0.0440226 38.8275 0.0770142 38.8835 0.120586 38.9307C0.164159 38.9779 0.217302 39.0152 0.276444 39.0401C0.645688 39.1977 1.04531 39.2723 1.43236 39.3694C1.84193 39.4745 2.25412 39.5643 2.66841 39.6478C3.50048 39.8145 4.33848 39.9444 5.18241 40.0375C6.82574 40.2254 8.48265 40.2639 10.1329 40.1525C13.212 39.933 16.2608 39.1121 18.9193 37.5265C20.3184 36.6969 21.5878 35.665 22.6867 34.464C23.6205 33.5832 24.6502 32.7597 25.7936 32.1668C26.907 31.589 28.2421 31.1857 29.4792 31.6053C29.805 31.7482 31.2599 32.5013 30.9902 34.4656V34.4614C30.8048 35.3191 30.2046 36.0134 29.5426 36.5564C28.781 37.1793 27.9048 37.6562 27.0097 38.0585C26.718 38.1898 26.3927 38.2833 26.1136 38.4372C26.0655 38.4663 26.0242 38.5053 25.9923 38.5515C25.9604 38.5978 25.9386 38.6503 25.9283 38.7056C25.9181 38.7609 25.9196 38.8178 25.9329 38.8724C25.9461 38.9271 25.9707 38.9784 26.0051 39.0228C26.1555 39.2071 26.4152 39.1599 26.6221 39.1247C28.3222 38.8327 30.0459 38.3369 31.4212 37.2518C32.6945 36.2476 33.4639 34.7592 33.4047 33.1242C33.3994 32.9625 33.3864 32.8002 33.3659 32.6395C33.2711 31.8763 33.0517 31.1164 32.6227 30.4704C32.2325 29.8837 31.6894 29.4152 31.0866 29.0554C29.7452 28.2566 28.1457 28.0576 26.6153 28.2624C26.7997 27.8559 26.9769 27.4473 27.1469 27.0366C28.4752 23.8228 29.2739 20.2478 31.3626 17.4027C31.9801 16.5624 32.672 15.7646 33.4754 15.096C34.2893 14.4185 35.2619 13.8177 36.323 13.6454C36.7808 13.5703 37.3705 13.501 37.7743 13.7804C38.0844 13.9936 38.1834 14.3754 38.1991 14.7315C38.2457 15.7819 37.8147 16.8633 37.4224 17.8171C37.2558 18.2677 36.753 19.158 37.1757 19.5981C37.6958 20.139 38.7532 19.4368 39.2607 19.2026C40.0416 18.8418 40.8231 18.4794 41.6234 18.1627C42.4438 17.835 43.2859 17.5649 44.1437 17.3544C44.1238 17.3749 44.1028 17.3954 44.0834 17.4158C43.8474 17.659 43.6383 17.927 43.4596 18.2152C42.6216 19.4022 42.2519 20.6779 42.6054 21.5765C43.2763 23.284 46.6571 23.9988 49.7525 22.6122C52.8479 21.2257 54.7386 18.148 54.0677 16.4426" fill="#FFD100"></path><path d="M52.0856 53.0342H0.400855C0.371554 53.0375 0.341888 53.0346 0.313798 53.0256C0.285707 53.0166 0.259825 53.0018 0.237843 52.9821C0.215861 52.9624 0.198274 52.9382 0.186233 52.9112C0.174193 52.8842 0.167969 52.855 0.167969 52.8254C0.167969 52.7959 0.174193 52.7666 0.186233 52.7396C0.198274 52.7127 0.215861 52.6885 0.237843 52.6688C0.259825 52.6491 0.285707 52.6343 0.313798 52.6253C0.341888 52.6163 0.371554 52.6134 0.400855 52.6167H52.0856C52.1149 52.6134 52.1445 52.6163 52.1726 52.6253C52.2007 52.6343 52.2266 52.6491 52.2486 52.6688C52.2706 52.6885 52.2882 52.7127 52.3002 52.7396C52.3122 52.7666 52.3185 52.7959 52.3185 52.8254C52.3185 52.855 52.3122 52.8842 52.3002 52.9112C52.2882 52.9382 52.2706 52.9624 52.2486 52.9821C52.2266 53.0018 52.2007 53.0166 52.1726 53.0256C52.1445 53.0346 52.1149 53.0375 52.0856 53.0342Z" fill="#FFD100"></path><path d="M15.893 56.3057H14.1558L14.4108 55.1099H19.762L19.5069 56.3057H17.7702L17.0144 59.8535H15.1373L15.893 56.3057Z" fill="#FFD100"></path><path d="M19.8054 56.2195H21.4159L21.2672 56.917H21.2803C21.8339 56.3524 22.4294 56.1198 23.0013 56.1198C23.1812 56.1198 23.3608 56.1331 23.5387 56.1597L23.2213 57.6481C22.9442 57.5746 22.7106 57.5152 22.4173 57.5152C21.8255 57.5152 21.1519 57.708 20.9849 58.4916L20.6947 59.8534H19.0308L19.8054 56.2195Z" fill="#FFD100"></path><path d="M26.6507 58.1997C26.3589 58.2596 25.8776 58.299 25.2737 58.3525C24.9595 58.3788 24.7945 58.4786 24.7453 58.7113C24.6929 58.9634 24.8636 59.123 25.2764 59.123C25.8352 59.123 26.4841 58.9838 26.6166 58.3589L26.6507 58.1997ZM23.5234 57.3226C23.7292 56.8237 24.0005 56.5185 24.4541 56.3247C24.9076 56.1309 25.5199 56.0726 26.3982 56.0726C28.0957 56.0726 28.6875 56.4513 28.4566 57.5343L28.0831 59.2885C28.0234 59.5673 28.0611 59.7328 28.1156 59.8531H26.4113C26.4015 59.7333 26.4071 59.6127 26.4281 59.4943C25.9818 59.8389 25.3806 59.9985 24.497 59.9985C23.3788 59.9985 22.7367 59.6997 22.9352 58.7696C23.0771 58.1052 23.6402 57.6803 24.8825 57.6267L26.3008 57.5605C26.6381 57.5406 26.7685 57.4607 26.8104 57.2617C26.8628 57.0227 26.5863 56.9098 26.1138 56.9098C25.7341 56.9098 25.3423 56.9692 25.1873 57.3216L23.5234 57.3226Z" fill="#FFD100"></path><path d="M28.6167 56.2195H30.4938L30.7829 58.3923H30.796L32.0111 56.2195H33.8882L31.4303 59.8534H29.5259L28.6167 56.2195Z" fill="#FFD100"></path><path d="M36.9765 57.5887C37.0289 57.1959 36.7 56.9506 36.127 56.9506C35.554 56.9506 35.1775 57.1292 34.9931 57.5887H36.9765ZM38.3833 58.7641C38.1738 59.1428 37.8297 59.4548 37.3589 59.668C36.888 59.8813 36.2899 60 35.5258 60C33.7754 60 32.9128 59.3618 33.1961 58.0331C33.4632 56.7778 34.572 56.073 36.2098 56.073C37.8198 56.073 38.8898 56.6113 38.4766 58.4249H34.815C34.7626 58.6843 34.9475 59.0829 35.6803 59.0829C36.1124 59.0829 36.3858 58.99 36.6131 58.7641H38.3833Z" fill="#FFD100"></path><path d="M39.5772 54.9438H41.2412L40.1947 59.8535H38.5308L39.5772 54.9438Z" fill="#FFD100"></path></svg>
